<svg id="svg" version="1.1" xmlns="http://www.w3.org/2000/svg" viewBox="0 0 882 772" style="display: block;"><path d="M0 0 C291.06 0 582.12 0 882 0 C882 254.76 882 509.52 882 772 C590.94 772 299.88 772 0 772 C0 517.24 0 262.48 0 0 Z " transform="translate(0,0)" style="fill: #FEFEFE;"/><path d="M0 0 C3.43507379 2.76299414 5.22053929 4.69334675 6 9 C6.09823283 11.9102864 6.14223656 14.79661132 6.1386652 17.70692825 C6.14150742 18.59962819 6.14434964 19.49232812 6.14727798 20.41207957 C6.15564709 23.42473298 6.15689493 26.43734805 6.15821838 29.45001221 C6.16278222 31.62311035 6.16778198 33.79620762 6.17318195 35.96930385 C6.18679272 41.95749234 6.19418991 47.94567515 6.20060861 53.93387508 C6.20859966 60.38513293 6.22230188 66.83637887 6.23532104 73.28762817 C6.2572739 84.47040646 6.27527523 95.65318688 6.29092598 106.83597565 C6.30735823 118.56640323 6.3258373 130.29682463 6.34705925 142.02724457 C6.34837686 142.75618802 6.34969446 143.48513146 6.351052 144.23616411 C6.35775394 147.93799195 6.36449254 151.63981972 6.37124526 155.34164748 C6.41902786 181.57216004 6.46220727 207.80267836 6.50268555 234.03320312 C6.54202392 259.51823343 6.58344365 285.00325896 6.62768555 310.48828125 C6.62904808 311.27362855 6.63041061 312.05897586 6.63181442 312.86812157 C6.64549962 320.75479152 6.65922717 328.64146139 6.67298577 336.52813121 C6.70101347 352.59466111 6.72875841 368.66119149 6.7563324 384.72772217 C6.7576006 385.46646018 6.7588688 386.2051982 6.76017542 386.96632221 C6.84485329 436.31087374 6.92291865 485.65543608 7 535 C11.16587388 530.85899129 15.32834048 526.71459735 19.48779297 522.56713867 C20.90094157 521.15899437 22.31498948 519.75175193 23.72998047 518.34545898 C25.77292701 516.31474997 27.81253279 514.28073473 29.8515625 512.24609375 C30.789431 511.31596718 30.789431 511.31596718 31.74624634 510.36705017 C35.2456407 506.8680962 38.55579363 503.28112339 41.72442627 499.47906494 C43.37573902 497.56431965 45.1870347 495.93270176 47.125 494.3125 C51.11290135 490.90506823 54.67843304 487.38066668 58.09643555 483.40185547 C62.01673007 478.91634556 66.16895827 474.70425065 70.39453125 470.5078125 C71.20360931 469.7001947 72.01268738 468.8925769 72.84628296 468.06048584 C74.5906082 466.31994465 76.336087 464.5805589 78.08261108 462.84222412 C80.85150234 460.0861786 83.61718583 457.32694953 86.38208008 454.56689453 C92.74954908 448.21140541 99.1220493 441.86096893 105.49461365 435.5105896 C111.80726421 429.21980221 118.11789457 422.92700491 124.42514038 416.63079834 C127.14115772 413.9212322 129.86018485 411.21471172 132.5793457 408.50830078 C134.254869 406.83641228 135.93025079 405.16438194 137.60546875 403.4921875 C138.35476654 402.74805603 139.10406433 402.00392456 139.87606812 401.23724365 C143.89939045 397.21432288 147.73156957 393.09142858 151.44643593 388.78234482 C153.44088281 386.49419197 155.53798887 384.32782891 157.6784668 382.17626953 C158.94964607 380.89552048 158.94964607 380.89552048 160.24650574 379.58889771 C161.58434868 378.24938553 161.58434868 378.24938553 162.94921875 376.8828125 C163.89377241 375.93503702 164.8382545 374.9871902 165.78266907 374.03927612 C167.74666482 372.06934163 169.71266594 370.10143433 171.67993164 368.13476562 C174.19671235 365.61808727 176.70649701 363.09455158 179.21464825 360.56927681 C181.62168032 358.1484617 184.03587861 355.73483896 186.44921875 353.3203125 C187.34718674 352.415159 188.24515472 351.51000549 189.17033386 350.5774231 C190.00833023 349.74250336 190.8463266 348.90758362 191.7097168 348.04736328 C192.4436113 347.31204376 193.1775058 346.57672424 193.93363953 345.81912231 C198.09532928 342.15537497 201.41269394 341.61784986 206.8125 341.7421875 C209.81997081 342.09663942 211.67013361 343.09374568 214 345 C216.20956223 348.31434334 216.23600142 349.02198506 215.875 352.8125 C215.81054688 353.64394531 215.74609375 354.47539062 215.6796875 355.33203125 C214.20905518 361.10468568 210.00039155 365.24858102 205.8830719 369.35743713 C205.38090509 369.86131279 204.87873828 370.36518845 204.36135429 370.88433307 C202.69035167 372.55860969 201.01233978 374.225673 199.33422852 375.89282227 C198.12951407 377.09697211 196.92524075 378.30156343 195.72137451 379.50656128 C192.45931353 382.76919517 189.19112936 386.02563206 185.92180371 389.28098416 C182.49725407 392.69300269 179.07839453 396.11071313 175.65892029 399.52781677 C169.18080674 405.99971736 162.69761474 412.46650568 156.21257395 418.93146414 C148.84900933 426.27271445 141.49108349 433.61960508 134.13364899 440.96699822 C121.55461885 453.52866521 108.97139626 466.08611957 96.38340759 478.6388092 C95.85110076 479.16963684 95.31879393 479.70046449 94.7703566 480.24737781 C93.35528104 481.6584892 91.94014437 483.06953929 90.52500248 484.48058414 C89.69175166 485.31199138 88.85850084 486.14339861 88 487 C87.10164901 487.89549529 86.20329802 488.79099058 85.27772427 489.71362209 C83.9360737 491.06036992 82.60786855 492.42117823 81.3125 493.8125 C80 495 80 495 78 495 C78 495.99 78 496.98 78 498 C78.72281662 497.93429306 79.44563324 497.86858612 80.19035339 497.80088806 C87.57874454 497.15381127 94.9519565 496.71134443 102.36328125 496.44140625 C103.51895096 496.39915421 104.67462067 496.35690216 105.86531067 496.31336975 C119.63845295 495.8543515 133.40853328 495.89055142 147.1875 495.9375 C149.810546 495.94253526 152.43359296 495.94709451 155.05664062 495.95117188 C161.3711153 495.96199353 167.68555287 495.97856445 174 496 C173.96261719 495.05769531 173.92523437 494.11539062 173.88671875 493.14453125 C174 490 174 490 175.8125 487.6875 C179.23586103 485.04662149 181.99032424 484.87290838 186.17735291 484.85955811 C187.24956085 484.85384796 188.3217688 484.84813782 189.4264679 484.84225464 C190.6030748 484.84113678 191.7796817 484.84001892 192.99194336 484.83886719 C194.23131653 484.83390228 195.4706897 484.82893738 196.74761963 484.82382202 C200.15104749 484.81170798 203.55441383 484.80425266 206.95785594 484.79981136 C209.08818942 484.79687728 211.21851756 484.79277162 213.34884834 484.78830719 C220.02519802 484.77462716 226.70153543 484.76496556 233.37789816 484.7611053 C241.06278466 484.75663685 248.74749222 484.73914786 256.43232435 484.7101047 C262.38411914 484.68839977 268.33586395 484.67839618 274.28769785 484.67706418 C277.83608894 484.67602152 281.38431195 484.67023108 284.93266106 484.65224457 C288.90299956 484.63251242 292.87311978 484.63708774 296.84350586 484.64355469 C298.00189468 484.6343399 299.16028351 484.62512512 300.35377502 484.6156311 C313.2170652 484.68089943 325.88248701 487.38464284 335.546875 496.3671875 C343.34208729 504.74831444 348.23907135 512.85576252 348.26069641 524.62765503 C348.26778122 525.92005096 348.27486603 527.2124469 348.28216553 528.54400635 C348.27987215 529.95886266 348.27736252 531.37371863 348.2746582 532.78857422 C348.27900978 534.29222872 348.28419441 535.79588101 348.29014587 537.29953003 C348.30349972 541.36986307 348.30411855 545.44010304 348.30158257 549.5104537 C348.30051033 552.91486386 348.30540274 556.31925539 348.310188 559.72366154 C348.32127084 567.75898525 348.32172758 575.7942622 348.31567383 583.82958984 C348.30963539 592.10422155 348.32194452 600.37868317 348.3432439 608.65328586 C348.36088842 615.77114182 348.36685674 622.88894378 348.36360615 630.0068208 C348.36179758 634.25199901 348.36438677 638.4970559 348.37832069 642.7422142 C348.3909408 646.73631954 348.38891566 650.73016072 348.37590981 654.72426224 C348.37355349 656.18469077 348.37624463 657.64513813 348.38453293 659.10554504 C348.45845032 673.14959089 345.51330814 684.18844869 335.8125 694.75 C326.39059473 703.58695328 315.67884326 706.30765934 303.19268513 706.26006222 C302.10933259 706.26386789 301.02598005 706.26767356 299.90979865 706.27159455 C296.26650316 706.28193057 292.62336289 706.27800038 288.98005676 706.27415466 C286.34681471 706.27860597 283.71358472 706.28384094 281.08034724 706.29002339 C275.34828225 706.3018667 269.61624909 706.3062363 263.88417244 706.30570221 C255.36015415 706.30490887 246.83617603 706.3154599 238.31216848 706.32811778 C221.31482397 706.35285664 204.31748922 706.36164038 187.32012919 706.36665427 C186.43988784 706.36691544 185.5596465 706.36717662 184.65273118 706.36744571 C183.77072443 706.36770598 182.88871768 706.36796626 181.97998345 706.36823442 C172.20626051 706.37131661 162.43254027 706.3778213 152.6588192 706.3844471 C123.13956872 706.40409461 93.62032117 706.4204993 64.10106373 706.42332363 C63.15688076 706.42341769 62.21269778 706.42351175 61.23990321 706.42360866 C57.41353082 706.42398715 53.58715843 706.42435114 49.76078604 706.42471164 C46.88080723 706.42498336 44.00082842 706.42526004 41.12084961 706.42553711 C39.69336686 706.42566914 39.69336686 706.42566914 38.23704607 706.42580384 C8.33500359 706.42870934 -21.56697425 706.4508058 -51.46899414 706.48706055 C-85.06052611 706.52778757 -118.65201404 706.5514822 -152.24357206 706.55178314 C-155.82562817 706.55187997 -159.40768427 706.55204669 -162.98974037 706.55226326 C-163.87173895 706.55230737 -164.75373753 706.55235149 -165.66246334 706.55239694 C-179.85549965 706.55351675 -194.04847119 706.57092481 -208.24148665 706.59408258 C-222.50670722 706.61692635 -236.7718403 706.62114952 -251.03707244 706.60653328 C-259.51079772 706.59838269 -267.98424738 706.6040696 -276.45793922 706.62971413 C-282.12135294 706.64547008 -287.78457107 706.64298451 -293.44798011 706.6258074 C-296.67287907 706.61653798 -299.89714252 706.61780629 -303.12202015 706.63577347 C-327.58574905 706.76328599 -327.58574905 706.76328599 -337 701 C-338.0725 700.401875 -339.145 699.80375 -340.25 699.1875 C-349.92674394 691.49009005 -356.78174284 682.69183027 -358.53581238 670.1771698 C-359.20373575 663.84966428 -359.16357999 657.52186573 -359.17700195 651.1652832 C-359.18328008 649.78767227 -359.18992803 648.41006297 -359.19691467 647.03245544 C-359.21779358 642.53857568 -359.22830041 638.04469618 -359.23828125 633.55078125 C-359.24233457 631.99432039 -359.24645166 630.43785969 -359.25063133 628.88139915 C-359.26964587 621.56648154 -359.28388579 614.25157379 -359.2922433 606.93663627 C-359.30200803 598.53242233 -359.32832325 590.12847228 -359.36874419 581.72435123 C-359.39902877 575.20086056 -359.41372371 568.67744507 -359.41702431 562.15388554 C-359.41936025 558.27012205 -359.42812899 554.38664168 -359.45348549 550.50295448 C-359.47698977 546.84445741 -359.48091131 543.18642548 -359.47072411 539.52787209 C-359.4700031 537.5696777 -359.48893418 535.61150572 -359.50878906 533.65341187 C-359.42183293 518.61290194 -355.38978182 507.28372767 -345.2578125 496.1796875 C-334.88880143 486.16946574 -321.74993829 484.5388508 -307.90698242 484.61181641 C-306.03390411 484.60393097 -306.03390411 484.60393097 -304.12298584 484.59588623 C-300.73677375 484.5850347 -297.35112016 484.58744903 -293.96494079 484.59702349 C-290.40348491 484.60468678 -286.84205081 484.59755693 -283.28059387 484.59286499 C-277.30852026 484.58743021 -271.33655853 484.59454254 -265.36450195 484.60888672 C-258.47400848 484.6252464 -251.58378091 484.61989166 -244.69329375 484.6034075 C-238.754115 484.58977205 -232.81501601 484.58788188 -226.87582666 484.59572351 C-223.33837386 484.60038394 -219.80104593 484.60106929 -216.2636013 484.59111404 C-212.32431135 484.58079864 -208.38531731 484.59511536 -204.44604492 484.61181641 C-203.28381912 484.60574371 -202.12159332 484.59967102 -200.92414856 484.59341431 C-194.87133331 484.64092596 -190.28052728 484.91520918 -185 488 C-183 491 -183 491 -183 498 C-152.31 497.67 -121.62 497.34 -90 497 C-98.25621609 487.10024718 -98.25621609 487.10024718 -106.97889709 477.79405212 C-107.48916158 477.28348992 -107.99942606 476.77292772 -108.5251531 476.24689394 C-110.18140459 474.59199578 -111.84461526 472.94429895 -113.50805664 471.29663086 C-114.71869114 470.08984719 -115.92886188 468.88259814 -117.13861084 467.67492676 C-119.71652888 465.10326597 -122.29750212 462.53472827 -124.88099861 459.9686718 C-128.96683277 455.91014413 -133.04479241 451.8437634 -137.12168884 447.77626038 C-145.7626659 439.15735043 -154.41216331 430.54701458 -163.0625 421.9375 C-172.43529627 412.60881984 -181.80655468 403.27862256 -191.16814321 393.93869311 C-195.22162952 389.89516476 -199.27993889 385.85655964 -203.34202492 381.82167137 C-205.86035427 379.31824035 -208.37455122 376.81069076 -210.88763428 374.30199432 C-212.05414163 373.13923532 -213.22237874 371.97820872 -214.39245415 370.8190403 C-215.98759743 369.23830346 -217.57647831 367.65152491 -219.16395569 366.06309509 C-220.05486939 365.17662261 -220.9457831 364.29015013 -221.86369419 363.37681484 C-225.05036604 359.83138192 -226.28255269 357.2526924 -226.25 352.5 C-226.25773437 351.37078125 -226.25773437 351.37078125 -226.265625 350.21875 C-225.96055729 347.67053734 -225.42872424 346.1340438 -224 344 C-221.23486351 342.16824292 -218.91392574 341.68270045 -215.625 341.625 C-214.89539063 341.59664063 -214.16578125 341.56828125 -213.4140625 341.5390625 C-207.73080472 342.62421528 -203.52776792 347.22262264 -199.57336426 351.17939758 C-199.06202706 351.68832037 -198.55068986 352.19724315 -198.02385759 352.72158784 C-196.32428247 354.41556052 -194.6319054 356.1165401 -192.93945312 357.81762695 C-191.71721341 359.03879291 -190.49454066 360.25952557 -189.27146912 361.4798584 C-185.95908574 364.78740459 -182.65297044 368.10115118 -179.34808922 371.41619134 C-175.88285659 374.8902272 -172.41233302 378.35897012 -168.94250488 381.82841492 C-163.11531766 387.65653803 -157.2920118 393.48851643 -151.47119141 399.32299805 C-144.7512369 406.05866616 -138.02608227 412.78910559 -131.29789972 419.51655418 C-124.1235226 426.69025447 -116.95296443 433.86776278 -109.78351402 441.04638648 C-107.72302553 443.10900131 -105.66183184 445.17090918 -103.60047913 447.23266029 C-100.35431285 450.47983519 -97.11072358 453.72956334 -93.86906624 456.98123932 C-92.6823731 458.17083979 -91.49484825 459.35961128 -90.30640984 460.54746819 C-84.65536812 466.19679183 -79.10501986 471.842662 -74 478 C-72.35429523 479.68736818 -70.68736818 481.35429523 -69 483 C-67.94657043 484.05073537 -66.8945726 485.10290744 -65.84375 486.15625 C-65.29589844 486.70410156 -64.74804688 487.25195312 -64.18359375 487.81640625 C-40.59179688 511.40820312 -40.59179688 511.40820312 -17 535 C-16.99853479 533.33074347 -16.99853479 533.33074347 -16.99703997 531.62776458 C-16.95380353 482.59396559 -16.90686938 433.56017198 -16.84101868 384.52639771 C-16.84002311 383.78429436 -16.83902754 383.04219102 -16.83800181 382.2775997 C-16.81634433 366.15051069 -16.79402172 350.02342267 -16.77101372 333.89633553 C-16.75973499 325.98785668 -16.74860328 318.07937761 -16.73754883 310.17089844 C-16.73644626 309.38390089 -16.7353437 308.59690335 -16.73420772 307.78605739 C-16.6985258 282.26754739 -16.67255555 256.74903871 -16.65161031 231.23051271 C-16.63003892 205.0115113 -16.59869231 178.79253938 -16.55500887 152.57356503 C-16.54884643 148.87210387 -16.54279599 145.17064252 -16.53681374 141.46918106 C-16.53563285 140.7406653 -16.53445197 140.01214953 -16.53323531 139.26155753 C-16.51449849 127.5245287 -16.50609626 115.78751403 -16.50153876 104.05047208 C-16.49673944 92.25679543 -16.48085777 80.46317634 -16.45433434 68.66952829 C-16.44028429 62.27701934 -16.4311616 55.88460033 -16.43499184 49.49207497 C-16.43838953 43.64434735 -16.42810975 37.79681217 -16.40676448 31.94912399 C-16.40147437 29.82925321 -16.40128479 27.70936254 -16.40660437 25.58949183 C-16.41308354 22.71564321 -16.40126564 19.84243629 -16.38476086 16.96864128 C-16.39103755 16.13891332 -16.39731425 15.30918535 -16.40378115 14.45431411 C-16.3519553 9.58004345 -15.7127482 6.21533055 -13 2 C-8.47609191 -1.18729888 -5.29441691 -1.54019401 0 0 Z " transform="translate(421,49)" style="fill: #C2C2C3;"/><path d="M0 0 C1.24871887 -0.00525696 2.49743774 -0.01051392 3.78399658 -0.01593018 C7.17020867 -0.02678171 10.55586226 -0.02436737 13.94204164 -0.01479292 C17.50349751 -0.00712963 21.06493161 -0.01425948 24.62638855 -0.01895142 C30.59846216 -0.0243862 36.5704239 -0.01727387 42.54248047 -0.00292969 C49.43297394 0.01342999 56.32320151 0.00807525 63.21368867 -0.0084089 C69.15286743 -0.02204436 75.09196641 -0.02393452 81.03115577 -0.0160929 C84.56860857 -0.01143246 88.10593649 -0.01074712 91.64338112 -0.02070236 C95.58267107 -0.03101776 99.52166511 -0.01670105 103.4609375 0 C104.6231633 -0.00607269 105.7853891 -0.01214539 106.98283386 -0.0184021 C113.03564912 0.02910956 117.62645514 0.30339277 122.90698242 3.38818359 C125.72694653 7.61812975 125.69929431 11.42038808 124.90698242 16.38818359 C122.38022204 19.73443383 120.867647 21.06796207 116.90698242 22.38818359 C115.2167391 22.48355557 113.5229881 22.52147712 111.83006287 22.5262146 C110.25527916 22.53439461 110.25527916 22.53439461 108.64868164 22.54273987 C107.49698486 22.5437822 106.34528809 22.54482452 105.15869141 22.54589844 C103.33870384 22.55351952 103.33870384 22.55351952 101.48194885 22.56129456 C98.84153727 22.57200982 96.20117846 22.5810077 93.56075859 22.58741379 C89.37811481 22.59811038 85.19555145 22.61836223 81.01295471 22.64053345 C69.1185375 22.70239353 57.22412417 22.75637432 45.32958984 22.78955078 C38.76098521 22.80795236 32.19251466 22.83696109 25.62400872 22.87755549 C22.15172975 22.89854067 18.67961918 22.91407054 15.20727348 22.91636276 C11.32505436 22.91892842 7.44316354 22.94448509 3.56103516 22.97167969 C2.423508 22.96867355 1.28598083 22.96566742 0.11398315 22.96257019 C-7.94368172 23.0461379 -16.10379882 24.03459488 -23.09301758 28.38818359 C-24.31284467 30.22801123 -24.31284467 30.22801123 -25.09301758 32.38818359 C-25.36952967 33.08048285 -25.64604176 33.77278212 -25.930933 34.48606014 C-28.32864535 41.7102493 -28.51824689 48.48222657 -28.48120117 56.04858398 C-28.48527528 57.39504927 -28.49062183 58.74151121 -28.49713135 60.08796692 C-28.51070991 63.71604726 -28.50554623 67.34386926 -28.49599409 70.97195363 C-28.48834961 74.78473004 -28.49545616 78.5974857 -28.50015259 82.41026306 C-28.50559563 88.80960016 -28.49845613 95.20883305 -28.48413086 101.6081543 C-28.46780011 108.98820847 -28.47310171 116.36801401 -28.48961008 123.74806219 C-28.50325815 130.10591055 -28.50512864 136.4636844 -28.49729407 142.82154268 C-28.49263664 146.60947932 -28.4919393 150.39729937 -28.50190353 154.18522835 C-28.51061978 157.74685271 -28.50446726 161.30815881 -28.48722076 164.86974907 C-28.48141341 166.78710375 -28.49023106 168.7044856 -28.49960327 170.62182617 C-28.44103072 178.64713788 -27.5118146 185.20180414 -23.46801758 192.20068359 C-17.00239738 198.15586009 -9.65265094 198.97220012 -1.18740082 198.89154816 C0.4171121 198.9002688 0.4171121 198.9002688 2.05403942 198.90916562 C5.6389173 198.92376513 9.22311049 198.90987979 12.8079834 198.89611816 C15.40383965 198.90072706 17.9996933 198.9070799 20.59554148 198.91502714 C26.23969021 198.92945811 31.88368583 198.92904546 37.52784157 198.9188385 C45.92090128 198.90370167 54.31383195 198.91144706 62.70689081 198.92367173 C77.69727897 198.94473289 92.68759893 198.94290986 107.67799358 198.93135608 C120.79630743 198.92129481 133.91459629 198.91866661 147.03291321 198.92344666 C148.33804423 198.92390497 148.33804423 198.92390497 149.66954153 198.92437254 C153.2014884 198.92561788 156.73343526 198.92689148 160.26538211 198.92821159 C193.39937986 198.94044826 226.53333418 198.92935269 259.66732524 198.907824 C289.10644648 198.8888415 318.54549851 198.89054001 347.98461914 198.90966797 C381.05792029 198.93108538 414.13118306 198.93958045 447.20449018 198.92721891 C450.73001066 198.92593604 454.25553114 198.92468468 457.78105164 198.92344666 C459.08316615 198.92297219 459.08316615 198.92297219 460.41158601 198.92248814 C473.52182246 198.91793779 486.63203118 198.92326022 499.74226379 198.93336487 C514.64883459 198.94479674 529.55532652 198.94195363 544.46188748 198.92024189 C552.80512388 198.90849073 561.14818949 198.90773858 569.49142148 198.92282659 C575.71780039 198.93284491 581.94397753 198.9219904 588.17033166 198.90292829 C590.69173768 198.89845158 593.21316651 198.90075231 595.73455793 198.91043144 C599.15715469 198.92256461 602.57881788 198.91014995 606.00136566 198.89154816 C606.98428319 198.90091282 607.96720073 198.91027749 608.97990364 198.91992593 C616.78123584 198.83496693 622.798311 196.96771945 628.84448242 191.95068359 C633.45363945 186.22415516 634.02575122 179.74304322 634.04742432 172.57086182 C634.05313446 171.43274048 634.0588446 170.29461914 634.06472778 169.12200928 C634.06584564 167.88759094 634.0669635 166.65317261 634.06811523 165.38134766 C634.07308014 164.07004883 634.07804504 162.75875 634.0831604 161.40771484 C634.09623233 157.82073672 634.10271913 154.23377726 634.10717106 150.64677906 C634.11011018 148.401701 634.11421654 146.15662795 634.11867523 143.91155243 C634.13233637 136.8753443 634.14200982 129.83914773 634.14587712 122.80292726 C634.15035479 114.70262136 634.16789489 106.60248446 634.19687772 98.50222993 C634.21854858 92.22599264 634.22858428 85.94980271 634.22991824 79.67352843 C634.23096239 75.93186538 634.23678663 72.19036149 634.25473785 68.4487381 C634.2743981 64.26992156 634.26990812 60.09145548 634.26342773 55.91259766 C634.27264252 54.68627625 634.2818573 53.45995483 634.29135132 52.19647217 C634.25188289 44.05070311 633.94186417 35.34744514 628.28198242 28.95068359 C621.19496424 22.80265512 612.12923577 22.95981924 603.23046875 23.01928711 C601.99033524 23.01552063 600.75020172 23.01175415 599.4724884 23.00787354 C596.792675 23.00146057 594.11347489 23.00029798 591.43372536 23.00805855 C587.19283472 23.01971428 582.95221386 23.00742029 578.71134949 22.99143982 C568.18435244 22.95537615 557.65736334 22.94901755 547.13031006 22.95153809 C538.93401124 22.95325054 530.73793513 22.94611171 522.54169863 22.91155952 C518.3291195 22.89479969 514.11708493 22.89652879 509.90450823 22.91238225 C506.66805601 22.91955114 503.43172936 22.90093851 500.1953125 22.88647461 C499.03412903 22.89621811 497.87294556 22.90596161 496.67657471 22.91600037 C490.51563739 22.86097107 486.47769996 22.73275281 481.90698242 18.38818359 C480.53198242 14.63818359 480.53198242 14.63818359 479.90698242 11.38818359 C480.56698242 11.38818359 481.22698242 11.38818359 481.90698242 11.38818359 C481.82448242 10.48068359 481.74198242 9.57318359 481.65698242 8.63818359 C481.90698242 5.38818359 481.90698242 5.38818359 483.71948242 3.07568359 C487.14284346 0.43480508 489.89730666 0.26109198 494.08433533 0.2477417 C495.69264725 0.23917648 495.69264725 0.23917648 497.33345032 0.23043823 C498.51005722 0.22932037 499.68666412 0.22820251 500.89892578 0.22705078 C502.75798553 0.21960342 502.75798553 0.21960342 504.65460205 0.21200562 C508.05802991 0.19989157 511.46139625 0.19243626 514.86483836 0.18799496 C516.99517184 0.18506087 519.12549998 0.18095521 521.25583076 0.17649078 C527.93218044 0.16281075 534.60851785 0.15314915 541.28488058 0.14928889 C548.96976709 0.14482045 556.65447464 0.12733146 564.33930677 0.0982883 C570.29110156 0.07658337 576.24284637 0.06657978 582.19468027 0.06524777 C585.74307137 0.06420512 589.29129437 0.05841467 592.83964348 0.04042816 C596.80998198 0.02069602 600.78010221 0.02527134 604.75048828 0.03173828 C606.48807152 0.01791611 606.48807152 0.01791611 608.26075745 0.0038147 C621.12404762 0.06908303 633.78946943 2.77282643 643.45385742 11.75537109 C651.24906971 20.13649803 656.14605377 28.24394611 656.16767883 40.01583862 C656.17476364 41.30823456 656.18184845 42.60063049 656.18914795 43.93218994 C656.18685458 45.34704625 656.18434494 46.76190223 656.18164062 48.17675781 C656.1859922 49.68041232 656.19117683 51.1840646 656.1971283 52.68771362 C656.21048214 56.75804666 656.21110097 60.82828663 656.208565 64.89863729 C656.20749275 68.30304745 656.21238516 71.70743898 656.21717042 75.11184514 C656.22825327 83.14716884 656.22871 91.18244579 656.22265625 99.21777344 C656.21661782 107.49240515 656.22892694 115.76686676 656.25022632 124.04146945 C656.26787084 131.15932542 656.27383916 138.27712738 656.27058858 145.39500439 C656.26878 149.64018261 656.2713692 153.88523949 656.28530312 158.1303978 C656.29792323 162.12450314 656.29589808 166.11834432 656.28289223 170.11244583 C656.28053591 171.57287436 656.28322705 173.03332173 656.29151535 174.49372864 C656.36543274 188.53777449 653.42029056 199.57663228 643.71948242 210.13818359 C634.29757715 218.97513688 623.58582568 221.69584294 611.09966755 221.64824581 C610.01631501 221.65205148 608.93296248 221.65585715 607.81678107 221.65977815 C604.17348559 221.67011417 600.53034532 221.66618398 596.88703918 221.66233826 C594.25379713 221.66678956 591.62056714 221.67202454 588.98732966 221.67820698 C583.25526467 221.69005029 577.52323151 221.69441989 571.79115486 221.6938858 C563.26713657 221.69309246 554.74315846 221.7036435 546.21915091 221.71630137 C529.2218064 221.74104024 512.22447164 221.74982397 495.22711161 221.75483786 C494.34687027 221.75509904 493.46662892 221.75536021 492.5597136 221.7556293 C491.67770685 221.75588958 490.7957001 221.75614985 489.88696587 221.75641801 C480.11324293 221.7595002 470.33952269 221.7660049 460.56580162 221.77263069 C431.04655114 221.7922782 401.52730359 221.80868289 372.00804615 221.81150723 C371.06386318 221.81160129 370.11968021 221.81169535 369.14688563 221.81179226 C365.32051324 221.81217074 361.49414085 221.81253474 357.66776846 221.81289524 C354.78778965 221.81316696 351.90781084 221.81344364 349.02783203 221.8137207 C347.60034928 221.81385274 347.60034928 221.81385274 346.14402849 221.81398744 C316.24198601 221.81689293 286.34000818 221.8389894 256.43798828 221.87524414 C222.84645631 221.91597116 189.25496838 221.93966579 155.66341037 221.93996674 C152.08135426 221.94006356 148.49929816 221.94023028 144.91724205 221.94044685 C144.03524347 221.94049097 143.15324489 221.94053508 142.24451909 221.94058053 C128.05148277 221.94170034 113.85851123 221.9591084 99.66549577 221.98226617 C85.4002752 222.00510994 71.13514212 222.00933312 56.86990998 221.99471688 C48.3961847 221.98656628 39.92273505 221.99225319 31.4490432 222.01789772 C25.78562949 222.03365367 20.12241135 222.0311681 14.45900231 222.01399099 C11.23410335 222.00472158 8.0098399 222.00598988 4.78496227 222.02395707 C-19.67876662 222.15146958 -19.67876662 222.15146958 -29.09301758 216.38818359 C-30.16551758 215.79005859 -31.23801758 215.19193359 -32.34301758 214.57568359 C-42.01976152 206.87827364 -48.87476042 198.08001387 -50.62882996 185.56535339 C-51.29675333 179.23784787 -51.25659757 172.91004932 -51.27001953 166.5534668 C-51.27629765 165.17585586 -51.2829456 163.79824656 -51.28993225 162.42063904 C-51.31081116 157.92675927 -51.32131799 153.43287978 -51.33129883 148.93896484 C-51.33535215 147.38250398 -51.33946923 145.82604328 -51.34364891 144.26958275 C-51.36266345 136.95466514 -51.37690337 129.63975738 -51.38526088 122.32481986 C-51.39502561 113.92060592 -51.42134083 105.51665587 -51.46176177 97.11253482 C-51.49204634 90.58904416 -51.50674129 84.06562866 -51.51004189 77.54206914 C-51.51237782 73.65830565 -51.52114657 69.77482527 -51.54650307 65.89113808 C-51.57000735 62.232641 -51.57392889 58.57460907 -51.56374168 54.91605568 C-51.56302068 52.9578613 -51.58195176 50.99968931 -51.60180664 49.04159546 C-51.51485051 34.00108554 -47.4827994 22.67191127 -37.35083008 11.56787109 C-26.98181901 1.55764934 -13.84295586 -0.07296561 0 0 Z " transform="translate(113.093017578125,533.61181640625)" style="fill: #193253;"/><path d="M0 0 C3.43507379 2.76299414 5.22053929 4.69334675 6 9 C6.09823283 11.9102864 6.14223656 14.79661132 6.1386652 17.70692825 C6.14150742 18.59962819 6.14434964 19.49232812 6.14727798 20.41207957 C6.15564709 23.42473298 6.15689493 26.43734805 6.15821838 29.45001221 C6.16278222 31.62311035 6.16778198 33.79620762 6.17318195 35.96930385 C6.18679272 41.95749234 6.19418991 47.94567515 6.20060861 53.93387508 C6.20859966 60.38513293 6.22230188 66.83637887 6.23532104 73.28762817 C6.2572739 84.47040646 6.27527523 95.65318688 6.29092598 106.83597565 C6.30735823 118.56640323 6.3258373 130.29682463 6.34705925 142.02724457 C6.34837686 142.75618802 6.34969446 143.48513146 6.351052 144.23616411 C6.35775394 147.93799195 6.36449254 151.63981972 6.37124526 155.34164748 C6.41902786 181.57216004 6.46220727 207.80267836 6.50268555 234.03320312 C6.54202392 259.51823343 6.58344365 285.00325896 6.62768555 310.48828125 C6.62904808 311.27362855 6.63041061 312.05897586 6.63181442 312.86812157 C6.64549962 320.75479152 6.65922717 328.64146139 6.67298577 336.52813121 C6.70101347 352.59466111 6.72875841 368.66119149 6.7563324 384.72772217 C6.7576006 385.46646018 6.7588688 386.2051982 6.76017542 386.96632221 C6.84485329 436.31087374 6.92291865 485.65543608 7 535 C11.16587388 530.85899129 15.32834048 526.71459735 19.48779297 522.56713867 C20.90094157 521.15899437 22.31498948 519.75175193 23.72998047 518.34545898 C25.77292701 516.31474997 27.81253279 514.28073473 29.8515625 512.24609375 C30.789431 511.31596718 30.789431 511.31596718 31.74624634 510.36705017 C35.2456407 506.8680962 38.55579363 503.28112339 41.72442627 499.47906494 C43.37573902 497.56431965 45.1870347 495.93270176 47.125 494.3125 C51.11290135 490.90506823 54.67843304 487.38066668 58.09643555 483.40185547 C62.01673007 478.91634556 66.16895827 474.70425065 70.39453125 470.5078125 C71.20360931 469.7001947 72.01268738 468.8925769 72.84628296 468.06048584 C74.5906082 466.31994465 76.336087 464.5805589 78.08261108 462.84222412 C80.85150234 460.0861786 83.61718583 457.32694953 86.38208008 454.56689453 C92.74954908 448.21140541 99.1220493 441.86096893 105.49461365 435.5105896 C111.80726421 429.21980221 118.11789457 422.92700491 124.42514038 416.63079834 C127.14115772 413.9212322 129.86018485 411.21471172 132.5793457 408.50830078 C134.254869 406.83641228 135.93025079 405.16438194 137.60546875 403.4921875 C138.35476654 402.74805603 139.10406433 402.00392456 139.87606812 401.23724365 C143.89939045 397.21432288 147.73156957 393.09142858 151.44643593 388.78234482 C153.44088281 386.49419197 155.53798887 384.32782891 157.6784668 382.17626953 C158.52591965 381.32243683 159.3733725 380.46860413 160.24650574 379.58889771 C161.58434868 378.24938553 161.58434868 378.24938553 162.94921875 376.8828125 C163.89377241 375.93503702 164.8382545 374.9871902 165.78266907 374.03927612 C167.74666482 372.06934163 169.71266594 370.10143433 171.67993164 368.13476562 C174.19671235 365.61808727 176.70649701 363.09455158 179.21464825 360.56927681 C181.62168032 358.1484617 184.03587861 355.73483896 186.44921875 353.3203125 C187.34718674 352.415159 188.24515472 351.51000549 189.17033386 350.5774231 C190.00833023 349.74250336 190.8463266 348.90758362 191.7097168 348.04736328 C192.4436113 347.31204376 193.1775058 346.57672424 193.93363953 345.81912231 C198.09532928 342.15537497 201.41269394 341.61784986 206.8125 341.7421875 C209.81997081 342.09663942 211.67013361 343.09374568 214 345 C216.20956223 348.31434334 216.23600142 349.02198506 215.875 352.8125 C215.81054688 353.64394531 215.74609375 354.47539062 215.6796875 355.33203125 C214.20905518 361.10468568 210.00039155 365.24858102 205.8830719 369.35743713 C205.12982168 370.11325062 205.12982168 370.11325062 204.36135429 370.88433307 C202.69035167 372.55860969 201.01233978 374.225673 199.33422852 375.89282227 C198.12951407 377.09697211 196.92524075 378.30156343 195.72137451 379.50656128 C192.45931353 382.76919517 189.19112936 386.02563206 185.92180371 389.28098416 C182.49725407 392.69300269 179.07839453 396.11071313 175.65892029 399.52781677 C169.18080674 405.99971736 162.69761474 412.46650568 156.21257395 418.93146414 C148.84900933 426.27271445 141.49108349 433.61960508 134.13364899 440.96699822 C121.55461885 453.52866521 108.97139626 466.08611957 96.38340759 478.6388092 C95.85110076 479.16963684 95.31879393 479.70046449 94.7703566 480.24737781 C93.35528104 481.6584892 91.94014437 483.06953929 90.52500248 484.48058414 C88.78742307 486.21431912 87.05694264 487.95518859 85.33241177 489.70190334 C83 492 83 492 80.4375 494 C77.94560177 495.8970233 77.94560177 495.8970233 76.1875 498.3125 C74.40919431 500.49727557 72.8948911 501.99505147 70.76464844 503.76831055 C64.74436887 508.98259594 59.21268323 514.69352694 53.60907745 520.34632301 C51.54342146 522.42952965 49.4741036 524.50903513 47.40374756 526.58757019 C41.5234739 532.49216999 35.64900265 538.4025184 29.77880859 544.31713867 C26.17526585 547.94744291 22.56688333 551.57287765 18.95546722 555.19534874 C17.5836425 556.57337889 16.21371791 557.95330333 14.84574127 559.33515358 C12.93847321 561.26161307 11.02514671 563.18185615 9.11035156 565.10083008 C8.5482045 565.67173874 7.98605743 566.2426474 7.40687561 566.83085632 C3.35691522 570.87073744 0.40829951 573.27353861 -5.375 573.375 C-6.10460937 573.40335938 -6.83421875 573.43171875 -7.5859375 573.4609375 C-13.96038211 572.24381054 -18.6597234 566.6077852 -23.02758789 562.16772461 C-24.04097984 561.14995186 -24.04097984 561.14995186 -25.07484436 560.11161804 C-26.53389088 558.64498915 -27.99062325 557.17605514 -29.44526863 555.70506096 C-31.74850882 553.37620364 -34.0580181 551.0537305 -36.36924744 548.73280334 C-41.27262752 543.80661303 -46.16811865 538.87262891 -51.0625 533.9375 C-56.73886722 528.2139119 -62.41843248 522.49357631 -68.10650444 516.78161812 C-70.38007044 514.49510094 -72.64752203 512.20263675 -74.91481018 509.90989685 C-76.31017862 508.50726262 -77.70582904 507.10490883 -79.10180664 505.70288086 C-80.04253021 504.74665833 -80.04253021 504.74665833 -81.0022583 503.77111816 C-81.58945145 503.18378403 -82.17664459 502.59644989 -82.78163147 501.99131775 C-83.28543366 501.48307433 -83.78923586 500.97483091 -84.30830479 500.45118618 C-86.03201197 498.87739556 -86.03201197 498.87739556 -88.44869804 497.61941719 C-91.36558176 495.76795009 -92.9479964 493.83971827 -95.03919983 491.0980072 C-100.3695359 484.40052196 -106.29783057 478.45010937 -112.37280273 472.43188477 C-113.5929929 471.21554258 -114.81272141 469.99873712 -116.0320282 468.7815094 C-118.63672629 466.18308358 -121.24448477 463.5877848 -123.85473442 460.99493599 C-127.98238182 456.89452948 -132.10221384 452.78632895 -136.22096252 448.67698669 C-144.95386444 439.96618453 -153.69526043 431.26392923 -162.4375 422.5625 C-171.90182663 413.14226582 -181.36463959 403.72053866 -190.81776959 394.28906673 C-194.91307094 390.20372744 -199.01319751 386.12331242 -203.11709106 382.04660523 C-205.66273599 379.51585934 -208.20424803 376.98099423 -210.74464607 374.44498253 C-211.92405225 373.26932492 -213.10518831 372.09539981 -214.28816223 370.92333221 C-215.90092797 369.32497201 -217.50743344 367.7205698 -219.11253357 366.11451721 C-220.01341926 365.21807275 -220.91430494 364.32162828 -221.8424902 363.39801884 C-225.04189049 359.84196446 -226.28266506 357.26909812 -226.25 352.5 C-226.25515625 351.7471875 -226.2603125 350.994375 -226.265625 350.21875 C-225.96055729 347.67053734 -225.42872424 346.1340438 -224 344 C-221.23486351 342.16824292 -218.91392574 341.68270045 -215.625 341.625 C-214.89539063 341.59664063 -214.16578125 341.56828125 -213.4140625 341.5390625 C-207.73080472 342.62421528 -203.52776792 347.22262264 -199.57336426 351.17939758 C-199.06202706 351.68832037 -198.55068986 352.19724315 -198.02385759 352.72158784 C-196.32428247 354.41556052 -194.6319054 356.1165401 -192.93945312 357.81762695 C-191.71721341 359.03879291 -190.49454066 360.25952557 -189.27146912 361.4798584 C-185.95908574 364.78740459 -182.65297044 368.10115118 -179.34808922 371.41619134 C-175.88285659 374.8902272 -172.41233302 378.35897012 -168.94250488 381.82841492 C-163.11531766 387.65653803 -157.2920118 393.48851643 -151.47119141 399.32299805 C-144.7512369 406.05866616 -138.02608227 412.78910559 -131.29789972 419.51655418 C-124.1235226 426.69025447 -116.95296443 433.86776278 -109.78351402 441.04638648 C-107.72302553 443.10900131 -105.66183184 445.17090918 -103.60047913 447.23266029 C-100.35431285 450.47983519 -97.11072358 453.72956334 -93.86906624 456.98123932 C-92.6823731 458.17083979 -91.49484825 459.35961128 -90.30640984 460.54746819 C-84.65536812 466.19679183 -79.10501986 471.842662 -74 478 C-72.35429523 479.68736818 -70.68736818 481.35429523 -69 483 C-67.94657043 484.05073537 -66.8945726 485.10290744 -65.84375 486.15625 C-65.29589844 486.70410156 -64.74804688 487.25195312 -64.18359375 487.81640625 C-48.45572917 503.54427083 -32.72786458 519.27213542 -17 535 C-16.99853479 533.33074347 -16.99853479 533.33074347 -16.99703997 531.62776458 C-16.95380353 482.59396559 -16.90686938 433.56017198 -16.84101868 384.52639771 C-16.84002311 383.78429436 -16.83902754 383.04219102 -16.83800181 382.2775997 C-16.81634433 366.15051069 -16.79402172 350.02342267 -16.77101372 333.89633553 C-16.75973499 325.98785668 -16.74860328 318.07937761 -16.73754883 310.17089844 C-16.73644626 309.38390089 -16.7353437 308.59690335 -16.73420772 307.78605739 C-16.6985258 282.26754739 -16.67255555 256.74903871 -16.65161031 231.23051271 C-16.63003892 205.0115113 -16.59869231 178.79253938 -16.55500887 152.57356503 C-16.54884643 148.87210387 -16.54279599 145.17064252 -16.53681374 141.46918106 C-16.53563285 140.7406653 -16.53445197 140.01214953 -16.53323531 139.26155753 C-16.51449849 127.5245287 -16.50609626 115.78751403 -16.50153876 104.05047208 C-16.49673944 92.25679543 -16.48085777 80.46317634 -16.45433434 68.66952829 C-16.44028429 62.27701934 -16.4311616 55.88460033 -16.43499184 49.49207497 C-16.43838953 43.64434735 -16.42810975 37.79681217 -16.40676448 31.94912399 C-16.40147437 29.82925321 -16.40128479 27.70936254 -16.40660437 25.58949183 C-16.41308354 22.71564321 -16.40126564 19.84243629 -16.38476086 16.96864128 C-16.3941759 15.72404933 -16.3941759 15.72404933 -16.40378115 14.45431411 C-16.3519553 9.58004345 -15.7127482 6.21533055 -13 2 C-8.47609191 -1.18729888 -5.29441691 -1.54019401 0 0 Z " transform="translate(421,49)" style="fill: #193254;"/><path d="M0 0 C0.87696533 0.00757324 1.75393066 0.01514648 2.6574707 0.02294922 C9.42906602 0.19482667 15.10671844 1.17420882 21.125 4.4375 C22.300625 5.07365234 22.300625 5.07365234 23.5 5.72265625 C32.63269118 11.26089296 40.00168602 19.55439179 42.8046875 29.9609375 C45.78126826 44.19144002 44.68757171 57.94908893 36.6640625 70.3203125 C34.70710125 73.01237595 32.62995118 75.24566771 30.125 77.4375 C28.7946875 78.7059375 28.7946875 78.7059375 27.4375 80 C16.78855396 88.76809324 2.0979917 88.35426491 -10.875 87.4375 C-14.97268993 86.67321177 -18.2485101 85.47098935 -21.875 83.4375 C-22.74253906 82.95152344 -23.61007812 82.46554687 -24.50390625 81.96484375 C-35.52087966 75.01971744 -40.54303835 64.76534661 -43.625 52.4375 C-44.66114144 40.00380276 -43.81322259 27.58198609 -35.875 17.4375 C-35.37097656 16.76074219 -34.86695313 16.08398438 -34.34765625 15.38671875 C-25.73968126 4.63181353 -13.52543327 -0.16441916 0 0 Z " transform="translate(658.875,600.5625)" style="fill: #183153;"/><path d="M0 0 C6.23442128 3.29326572 9.90802112 7.36320097 12.2265625 14.0546875 C13.40520822 23.10010815 11.26008985 30.24581104 5.8515625 37.4921875 C0.30573381 42.90597265 -6.68319838 42.59483781 -14.05859375 42.5078125 C-20.33466221 41.74227734 -24.49916448 38.85338112 -28.43359375 34.01171875 C-32.3498499 28.29147288 -32.53593428 21.75512791 -31.7734375 15.0546875 C-30.06619104 9.39943359 -26.52573897 4.56579964 -21.7734375 1.0546875 C-15.2537287 -2.21077767 -6.85708723 -2.33720438 0 0 Z " transform="translate(668.7734375,623.9453125)" style="fill: #FA5500;"/><path d="M0 0 C1.4783226 2.95664519 1.06032783 5.74229737 1 9 C0.46890625 8.59007812 -0.0621875 8.18015625 -0.609375 7.7578125 C-1.31578125 7.21898437 -2.0221875 6.68015625 -2.75 6.125 C-3.44609375 5.59132813 -4.1421875 5.05765625 -4.859375 4.5078125 C-9.34247796 1.3500064 -12.31502421 0.70543541 -17.875 0.6875 C-19.66550781 0.66236328 -19.66550781 0.66236328 -21.4921875 0.63671875 C-26.67195821 1.1731538 -30.50258607 3.27608773 -34.375 6.6875 C-35.24125 7.450625 -36.1075 8.21375 -37 9 C-37 7.02 -37 5.04 -37 3 C-32.06227964 -0.15501093 -28.00613607 -1.70942575 -22.125 -2.25 C-21.42463623 -2.32371826 -20.72427246 -2.39743652 -20.00268555 -2.47338867 C-4.89784557 -3.97949953 -4.89784557 -3.97949953 0 0 Z " transform="translate(677,623)" style="fill: #1E3400;"/><path d="M0 0 C3.96 0 7.92 0 12 0 C12.33 1.32 12.66 2.64 13 4 C12 5 12 5 9.27734375 5.09765625 C7.62412109 5.08025391 7.62412109 5.08025391 5.9375 5.0625 C4.83277344 5.05347656 3.72804688 5.04445313 2.58984375 5.03515625 C1.30787109 5.01775391 1.30787109 5.01775391 0 5 C0 3.35 0 1.7 0 0 Z " transform="translate(595,540)" style="fill: #000000;"/><path d="M0 0 C-0.33 0.763125 -0.66 1.52625 -1 2.3125 C-3.10006875 10.05650352 -2.75524849 16.92280093 1 24 C1.391875 24.804375 1.78375 25.60875 2.1875 26.4375 C2.455625 26.953125 2.72375 27.46875 3 28 C1.68 28 0.36 28 -1 28 C-4.58214448 22.41523931 -4.3564056 17.51742747 -4.1875 11.125 C-4.17396484 10.15046875 -4.16042969 9.1759375 -4.14648438 8.171875 C-4.11131962 5.78067137 -4.0621067 3.39063025 -4 1 C-2 0 -2 0 0 0 Z " transform="translate(640,633)" style="fill: #1F3500;"/><path d="M0 0 C0.99 0.33 1.98 0.66 3 1 C3.05814085 4.58326501 3.09364357 8.16640838 3.125 11.75 C3.14175781 12.76578125 3.15851562 13.7815625 3.17578125 14.828125 C3.18222656 15.8078125 3.18867187 16.7875 3.1953125 17.796875 C3.20578613 18.69760742 3.21625977 19.59833984 3.22705078 20.52636719 C2.9828154 23.18721979 2.48257631 24.7839915 1 27 C-1.625 27.75 -1.625 27.75 -4 28 C-3.6390625 27.26136719 -3.278125 26.52273438 -2.90625 25.76171875 C1.21215544 16.75842685 2.10541899 9.64696079 0 0 Z " transform="translate(679,633)" style="fill: #243701;"/><path d="M0 0 C4.75 1.875 4.75 1.875 7 3 C9.0374763 3.22858114 11.08040303 3.41024278 13.125 3.5625 C14.76855469 3.68818359 14.76855469 3.68818359 16.4453125 3.81640625 C17.28835938 3.87699219 18.13140625 3.93757812 19 4 C19 4.33 19 4.66 19 5 C13.06 5 7.12 5 1 5 C0.67 3.35 0.34 1.7 0 0 Z " transform="translate(644,662)" style="fill: #333C00;"/></svg>