<svg id="svg" version="1.1" xmlns="http://www.w3.org/2000/svg" viewBox="0 0 744 658" style="display: block;"><path d="M0 0 C245.52 0 491.04 0 744 0 C744 217.14 744 434.28 744 658 C498.48 658 252.96 658 0 658 C0 440.86 0 223.72 0 0 Z " transform="translate(0,0)" style="fill: #FEFEFE;"/><path d="M0 0 C16.58650163 9.521478 29.60886463 24.45307854 43.01488388 37.85484111 C45.56322124 40.40130403 48.11439672 42.94492126 50.66514587 45.4889679 C56.22131989 51.03166041 61.77380582 56.57803733 67.32545257 62.12526393 C70.79854037 65.59557489 74.27235885 69.0651538 77.74630165 72.53460884 C87.3863307 82.16246411 97.02542562 91.79125242 106.66106701 101.42349911 C107.27557986 102.0377924 107.89009272 102.65208568 108.52322717 103.28499392 C109.13908992 103.90063839 109.75495266 104.51628285 110.38947791 105.15058321 C111.63717317 106.39783502 112.88486999 107.64508528 114.13256836 108.89233398 C114.75145065 109.51099484 115.37033294 110.1296557 116.00796924 110.76706386 C126.04464433 120.7997876 136.08806205 130.82573248 146.13438662 140.84879272 C156.4766879 151.16733915 166.81331401 161.49154257 177.14432698 171.82139117 C182.93390467 177.61005501 188.72584157 183.39631225 194.52406883 189.1763134 C199.45783973 194.09462815 204.38636775 199.01812369 209.30830213 203.9482848 C211.8150436 206.45891178 214.32406812 208.96713087 216.83981323 211.46873856 C236.25949984 230.78564674 236.25949984 230.78564674 243 241 C243.65583163 241.99230086 244.31166327 242.98460173 244.98736858 244.00697231 C255.83409208 260.88677066 258.3214892 281.38149652 254.54858398 300.88549805 C249.39189116 324.24128918 232.8061118 340.38438216 216.40722656 356.69042969 C215.40197054 357.6937589 214.3969476 358.69732167 213.39213562 359.70109558 C211.25478403 361.8353243 209.11589971 363.96799971 206.97574615 366.09941864 C203.58441924 369.47704657 200.19706823 372.85864398 196.8102417 376.24078369 C189.62648363 383.41352062 182.43846589 390.5819817 175.25 397.75 C167.47173695 405.50616875 159.69425226 413.26310937 151.92164016 421.02494168 C148.56144601 424.38018598 145.19883781 427.73298542 141.83428907 431.08386278 C139.73789262 433.17275291 137.64361239 435.26375516 135.54987526 437.35531044 C134.13004996 438.7723995 132.70770626 440.18696392 131.28526306 441.60142517 C126.95956701 445.9267668 122.78171053 450.30501052 118.79552269 454.94438553 C115.11076068 459.1629065 111.23059659 463.20337543 107.3815918 467.27148438 C106.68645446 468.00721491 106.68645446 468.00721491 105.97727394 468.75780869 C96.82959835 478.43571813 87.57905167 488.0130939 78.28924847 497.55449677 C72.39638491 503.61112944 66.53939164 509.69562665 60.75952148 515.86035156 C55.69024427 521.26703153 50.56130529 526.60835543 45.3556779 531.88400126 C42.61343188 534.66719777 39.90708918 537.47042419 37.27084923 540.35453796 C19.83084301 559.36849072 19.83084301 559.36849072 5.85049438 560.35180664 C-2.47512709 560.70765954 -10.74453635 560.0618131 -19 559 C-18.06482391 557.89776573 -17.1280115 556.79691968 -16.1905365 555.69664001 C-15.66902984 555.08345382 -15.14752317 554.47026762 -14.61021328 553.83850002 C-12.11812382 550.9930965 -9.44803338 548.34395213 -6.75390625 545.69140625 C-6.17970444 545.12099106 -5.60550262 544.55057587 -5.01390076 543.96287537 C-2.59114554 541.55624785 -0.16241462 539.15568571 2.26586914 536.75463867 C11.19853352 527.93568504 11.19853352 527.93568504 19.60620117 518.62084961 C21.60369548 516.29796212 23.75539842 514.14853079 25.9375 512 C26.70964844 511.236875 27.48179687 510.47375 28.27734375 509.6875 C29.13005859 508.8521875 29.13005859 508.8521875 30 508 C28.64782283 504.98410383 27.14117534 502.89256572 24.80615711 500.56285477 C24.14464675 499.897979 23.48313638 499.23310324 22.80158025 498.54807973 C22.0729006 497.82590788 21.34422094 497.10373602 20.59346008 496.35968018 C19.82081525 495.58603205 19.04817041 494.81238393 18.25211209 494.01529193 C15.65367557 491.41590041 13.04814746 488.82373468 10.44262695 486.23144531 C8.58135588 484.3723748 6.72053178 482.5128567 4.86012268 480.65292358 C0.84836691 476.64353071 -3.16698077 472.63776443 -7.18472862 468.63437653 C-13.00184975 462.83794673 -18.81295418 457.03551508 -24.62251625 451.23151025 C-34.05901266 441.80427282 -43.49959958 432.38114325 -52.94311523 422.9609375 C-53.50836486 422.39708118 -54.0736145 421.83322487 -54.6559929 421.25228199 C-55.22192483 420.6877456 -55.78785675 420.12320921 -56.37093812 419.54156566 C-64.38332654 411.54891919 -72.39476455 403.55532173 -80.4050293 395.56054688 C-80.96807519 394.99859183 -81.53112108 394.43663679 -82.11122897 393.85765281 C-91.51135017 384.47557774 -100.90942607 375.09145558 -110.30645972 365.7062881 C-116.09916435 359.92116022 -121.89393521 354.13811608 -127.69142548 348.357784 C-131.668132 344.39267966 -135.64311706 340.42585529 -139.61677708 336.4576979 C-141.9069299 334.17086395 -144.19819329 331.88516215 -146.4911499 329.60113907 C-148.98261248 327.11916796 -151.47093385 324.63408795 -153.95854187 322.14825439 C-154.67606792 321.43500543 -155.39359396 320.72175646 -156.13286322 319.98689389 C-160.07260649 316.04272552 -163.81595918 311.98970489 -167.45775169 307.76916194 C-169.32670961 305.62522104 -171.28417401 303.59278046 -173.29649353 301.58325195 C-174.0718042 300.80656662 -174.84711487 300.02988129 -175.6459198 299.22966003 C-176.47167007 298.40750504 -177.29742035 297.58535004 -178.14819336 296.73828125 C-179.48108902 295.40516655 -179.48108902 295.40516655 -180.84091187 294.04512024 C-183.2539091 291.63269616 -185.669088 289.22249767 -188.08530498 286.81330109 C-190.61886452 284.2860356 -193.14955142 281.75589673 -195.68055725 279.22607422 C-200.46301363 274.44671343 -205.24801108 269.66990527 -210.03394943 264.89403152 C-215.48702739 259.45217001 -220.93723193 254.0074345 -226.38720882 248.56246758 C-237.58830073 237.37179989 -248.79295717 226.18470825 -260 215 C-264.86675283 219.05858419 -269.45481051 223.30794459 -273.93136597 227.79092407 C-274.59253233 228.44911931 -275.25369869 229.10731456 -275.9349004 229.78545511 C-278.13328203 231.97521676 -280.3281247 234.16848987 -282.52294922 236.36181641 C-284.1052271 237.93946139 -285.6877009 239.5169099 -287.27035522 241.09417725 C-291.55807039 245.36881248 -295.84248183 249.6467436 -300.12588644 253.9256978 C-302.80586933 256.60274303 -305.48643537 259.27920299 -308.16717911 261.9554863 C-315.60490347 269.38111069 -323.04176982 276.80759186 -330.47514153 284.23757362 C-330.94988464 284.71209718 -331.42462776 285.18662073 -331.91375703 285.67552378 C-332.38956277 286.15111124 -332.86536851 286.6266987 -333.35559261 287.11669791 C-334.31957972 288.08024157 -335.28356838 289.04378367 -336.24755859 290.00732422 C-336.72571888 290.48526308 -337.20387917 290.96320194 -337.69652916 291.45562379 C-345.43790449 299.1930543 -353.18600808 306.92370938 -360.93704949 314.6514556 C-368.91522003 322.60584361 -376.88755745 330.56604196 -384.85455716 338.53162134 C-389.31965351 342.99567262 -393.78711627 347.45729087 -398.26064682 351.91289139 C-402.47143077 356.10712492 -406.67490736 360.30854957 -410.87305069 364.51543427 C-412.40825628 366.05140648 -413.94599292 367.58485407 -415.48654175 369.11546707 C-432.05394302 385.36279031 -432.05394302 385.36279031 -442 406 C-442.35707031 406.94746094 -442.71414063 407.89492188 -443.08203125 408.87109375 C-446.89441634 421.86564889 -443.45160616 436.68635597 -437.24051666 448.2742281 C-435.17167858 451.85885827 -432.72487386 455.03102001 -430.0189209 458.15531921 C-429.54141435 458.71225989 -429.0639078 459.26920057 -428.57193136 459.84301823 C-423.19432665 466.04043357 -417.44117243 471.84771025 -411.63476562 477.63989258 C-410.43878235 478.84023759 -409.24321286 480.04099501 -408.04801941 481.24212646 C-404.83992935 484.46345401 -401.62562467 487.67850762 -398.40963554 490.89194703 C-395.71156311 493.58894028 -393.0164942 496.2889255 -390.32134676 498.98884124 C-383.95988066 505.36134758 -377.5931702 511.72858007 -371.22314453 518.0925293 C-364.67681689 524.63280799 -358.13974549 531.18223565 -351.60708284 537.73616105 C-345.96970836 543.39120063 -340.3264908 549.04036312 -334.67865324 554.68495291 C-331.31770346 558.0440991 -327.95896131 561.40537619 -324.60591125 564.77240944 C-321.45408728 567.93688912 -318.29497175 571.0939105 -315.13033485 574.24557495 C-313.9777436 575.39581848 -312.82764567 576.54856739 -311.68039513 577.7041378 C-299.29952682 590.16822602 -284.99897179 603.14609897 -266.47119004 603.26506424 C-265.24316608 603.25787463 -265.24316608 603.25787463 -263.99033356 603.25053978 C-263.10133439 603.25333746 -262.21233521 603.25613513 -261.29639667 603.25901759 C-258.31426823 603.26598222 -255.33234524 603.25871593 -252.35021973 603.2515564 C-250.19189557 603.25369483 -248.03357214 603.25672017 -245.87525034 603.26055682 C-239.94153596 603.26860487 -234.00788453 603.26428622 -228.07417035 603.25803804 C-221.67600352 603.25350892 -215.27784878 603.26054195 -208.87968445 603.26634216 C-197.7919113 603.27497951 -186.70415469 603.27679153 -175.61637878 603.27439499 C-158.83837624 603.2709778 -142.06040972 603.28433944 -125.28241686 603.30116946 C-118.54905961 603.30785004 -111.81570182 603.31398892 -105.08234406 603.32012367 C-104.33429159 603.32080767 -103.58623912 603.32149166 -102.81551839 603.32219639 C-85.01259404 603.33837209 -67.20966747 603.34920929 -49.40673828 603.35839844 C-48.62783107 603.35880447 -47.84892386 603.35921051 -47.0464134 603.35962884 C-28.86946395 603.36905878 -10.69251575 603.37592363 7.48443604 603.37835693 C8.26646541 603.3784635 9.04849479 603.37857006 9.85422203 603.37867985 C13.79769023 603.37921302 17.74115844 603.37972777 21.68462664 603.38024123 C22.46401627 603.38034344 23.2434059 603.38044565 24.0464134 603.38055095 C25.619541 603.38075651 27.1926686 603.38095907 28.76579621 603.38115862 C54.74828899 603.38453824 80.73074566 603.4014386 106.71321964 603.43326016 C110.38122603 603.43773357 114.04923262 603.44202341 117.71723938 603.44618607 C118.80007474 603.44741675 118.80007474 603.44741675 119.90478555 603.4486723 C131.5287368 603.46142752 143.15264125 603.45942259 154.77659495 603.45155162 C166.45405996 603.44387438 178.13143218 603.45055922 189.80888355 603.47119068 C196.13678943 603.48189728 202.46452411 603.48598241 208.79242897 603.47271919 C214.58198901 603.46070581 220.37122735 603.46695972 226.16075927 603.48791118 C228.25823537 603.49222859 230.35573845 603.48974315 232.45319575 603.47987001 C235.29929982 603.46744251 238.14428502 603.47951532 240.99033356 603.49777794 C242.21835751 603.48356483 242.21835751 603.48356483 243.47119004 603.46906459 C249.08927519 603.54197573 252.37822676 604.76315075 257 608 C259.44649988 611.44039046 260 613.33939911 260 617.5625 C258.64665754 622.2146147 256.30396825 624.42019889 252.36515993 627.12098861 C248.79088801 628.44936632 245.2326199 628.2732937 241.46994114 628.25168228 C240.59633132 628.25458916 239.7227215 628.25749604 238.82263866 628.26049101 C235.87473724 628.2678305 232.92704139 628.26082922 229.97914124 628.25396729 C227.85243114 628.25627018 225.72572184 628.25944555 223.59901422 628.26342177 C217.73851446 628.27180251 211.87807949 628.2676296 206.01757944 628.26144934 C199.7030908 628.25693897 193.38861359 628.26390172 187.0741272 628.26940918 C175.41125616 628.27780572 163.74841149 628.2770535 152.08553978 628.27158624 C141.30655572 628.26655814 130.52757927 628.26524029 119.74859428 628.26763153 C119.03401458 628.2677843 118.31943487 628.26793707 117.58320124 628.26809447 C114.68250084 628.26871714 111.78180045 628.26935394 108.88110006 628.270014 C81.65165592 628.2761362 54.42222497 628.2705795 27.19278287 628.2598202 C3.01092042 628.25033771 -21.17092095 628.25117008 -45.3527832 628.26074219 C-72.51835645 628.2714594 -99.68391801 628.27569288 -126.84949309 628.26951766 C-129.74774619 628.26887624 -132.64599929 628.26825055 -135.5442524 628.26763153 C-136.25787869 628.26747338 -136.97150499 628.26731522 -137.70675633 628.26715227 C-148.47166683 628.2648797 -159.23656887 628.26753366 -170.0014782 628.27259064 C-182.25176872 628.27831669 -194.50202807 628.276672 -206.75231694 628.26602915 C-213.00191692 628.26077841 -219.25147419 628.25870544 -225.50107384 628.26532745 C-231.22621603 628.27130185 -236.95127608 628.26798711 -242.67641086 628.25737235 C-244.74380284 628.25514454 -246.81120181 628.25626065 -248.87858927 628.26112393 C-285.39406908 628.34040858 -306.91080474 616.07749667 -332.38571024 590.75710595 C-333.95954382 589.1871967 -335.53108314 587.61501356 -337.10253906 586.04272461 C-338.25680871 584.89145681 -339.4112796 583.74039075 -340.56593323 582.58950806 C-343.66049412 579.50367288 -346.75190876 576.41470533 -349.84243107 573.324826 C-351.77567016 571.3923023 -353.70962142 569.46049421 -355.64382172 567.52893257 C-362.39608226 560.78587722 -369.14580257 554.04029142 -375.89306641 547.29223633 C-382.18031334 541.0043852 -388.47315646 534.72217268 -394.76855874 528.44248766 C-400.18632514 523.03776596 -405.60026073 517.62922742 -411.01118827 512.21765906 C-414.23809591 508.99049615 -417.46654663 505.76491437 -420.69886017 502.54316521 C-423.72717191 499.52448627 -426.75071019 496.50110879 -429.77055168 493.47395706 C-430.88147478 492.36198311 -431.99412423 491.25173095 -433.10857582 490.14329338 C-434.62335154 488.63616801 -436.13190626 487.12308521 -437.63897705 485.60826111 C-438.90979567 484.33825964 -438.90979567 484.33825964 -440.20628738 483.04260159 C-442 481 -442 481 -442 479 C-442.66 479 -443.32 479 -444 479 C-445.67992394 477.09951051 -447.22335337 475.20631338 -448.75 473.1875 C-449.19883545 472.59727051 -449.6476709 472.00704102 -450.11010742 471.39892578 C-453.98206887 466.20607353 -457.16291509 460.8266102 -460 455 C-460.46277344 454.071875 -460.92554688 453.14375 -461.40234375 452.1875 C-469.31958507 435.6645616 -470.0672601 413.75733645 -464.390625 396.34765625 C-459.99335916 385.76210336 -454.56105523 376.65666947 -447 368 C-446.38244488 367.29174513 -445.76488977 366.58349026 -445.12862086 365.85377312 C-438.35382557 358.215493 -431.16536677 351.0196221 -423.94561768 343.80517578 C-422.52797713 342.38494715 -421.11054991 340.96450555 -419.69331622 339.54387093 C-415.81885014 335.66138419 -411.94129645 331.78199436 -408.06318855 327.90314579 C-403.87315899 323.71125713 -399.68597794 319.51652468 -395.49838257 315.32220459 C-385.87603392 305.6856037 -376.2494855 296.05320331 -366.62230251 286.42143258 C-361.85972779 281.65651669 -357.09778434 276.89097012 -352.33591481 272.12534951 C-336.01861852 255.7952254 -319.70026933 239.46615453 -303.37828445 223.14071655 C-302.35528248 222.11749295 -301.33228059 221.09426927 -300.30927877 220.07104552 C-299.28389679 219.0454429 -298.25851473 218.01984036 -297.2331326 216.9942379 C-295.17625306 214.93691582 -293.1193758 212.87959145 -291.0625 210.82226562 C-290.29752994 210.05713148 -290.29752994 210.05713148 -289.51710593 209.27654007 C-272.9781655 192.73396838 -256.44538371 176.18525995 -239.91628233 159.63285759 C-222.41806468 142.11001812 -204.91438997 124.59264823 -187.40445399 107.08151817 C-185.48080525 105.15769799 -183.55717849 103.23385581 -181.63356781 101.30999756 C-180.92315467 100.59950076 -180.92315467 100.59950076 -180.19838974 99.87465049 C-173.06439143 92.73957505 -165.93450839 85.6004047 -158.80680084 78.45904541 C-150.69602477 70.33285036 -142.58010384 62.21183778 -134.45749095 54.09747362 C-130.31641669 49.96029887 -126.17777441 45.82076781 -122.04568863 41.67461395 C-118.25723313 37.87337871 -114.46181682 34.07923655 -110.66092333 30.29043937 C-109.29294329 28.9244092 -107.92745252 27.55588027 -106.56483212 26.18450379 C-91.7138126 11.24417296 -76.70830343 -1.32538698 -56 -7 C-54.62908203 -7.53560547 -54.62908203 -7.53560547 -53.23046875 -8.08203125 C-36.36428017 -12.87472087 -15.16420639 -7.84427827 0 0 Z " transform="translate(472,17)" style="fill: #FEE500;"/><path d="M0 0 C16.58650163 9.521478 29.60886463 24.45307854 43.01488388 37.85484111 C45.56322124 40.40130403 48.11439672 42.94492126 50.66514587 45.4889679 C56.22131989 51.03166041 61.77380582 56.57803733 67.32545257 62.12526393 C70.79854037 65.59557489 74.27235885 69.0651538 77.74630165 72.53460884 C87.3863307 82.16246411 97.02542562 91.79125242 106.66106701 101.42349911 C107.27557986 102.0377924 107.89009272 102.65208568 108.52322717 103.28499392 C109.13908992 103.90063839 109.75495266 104.51628285 110.38947791 105.15058321 C111.63717317 106.39783502 112.88486999 107.64508528 114.13256836 108.89233398 C114.75145065 109.51099484 115.37033294 110.1296557 116.00796924 110.76706386 C126.04464433 120.7997876 136.08806205 130.82573248 146.13438662 140.84879272 C156.4766879 151.16733915 166.81331401 161.49154257 177.14432698 171.82139117 C182.93390467 177.61005501 188.72584157 183.39631225 194.52406883 189.1763134 C199.45783973 194.09462815 204.38636775 199.01812369 209.30830213 203.9482848 C211.8150436 206.45891178 214.32406812 208.96713087 216.83981323 211.46873856 C236.25949984 230.78564674 236.25949984 230.78564674 243 241 C243.65583163 241.99230086 244.31166327 242.98460173 244.98736858 244.00697231 C255.83409208 260.88677066 258.3214892 281.38149652 254.54858398 300.88549805 C249.39189116 324.24128918 232.8061118 340.38438216 216.40722656 356.69042969 C215.40197054 357.6937589 214.3969476 358.69732167 213.39213562 359.70109558 C211.25478403 361.8353243 209.11589971 363.96799971 206.97574615 366.09941864 C203.58441924 369.47704657 200.19706823 372.85864398 196.8102417 376.24078369 C189.62648363 383.41352062 182.43846589 390.5819817 175.25 397.75 C167.47173695 405.50616875 159.69425226 413.26310937 151.92164016 421.02494168 C148.56144601 424.38018598 145.19883781 427.73298542 141.83428907 431.08386278 C139.73789262 433.17275291 137.64361239 435.26375516 135.54987526 437.35531044 C134.13004996 438.7723995 132.70770626 440.18696392 131.28526306 441.60142517 C126.95956701 445.9267668 122.78171053 450.30501052 118.79552269 454.94438553 C115.11076068 459.1629065 111.23059659 463.20337543 107.3815918 467.27148438 C106.68645446 468.00721491 106.68645446 468.00721491 105.97727394 468.75780869 C96.82959835 478.43571813 87.57905167 488.0130939 78.28924847 497.55449677 C72.39638491 503.61112944 66.53939164 509.69562665 60.75952148 515.86035156 C55.69024427 521.26703153 50.56130529 526.60835543 45.3556779 531.88400126 C42.61343188 534.66719777 39.90708918 537.47042419 37.27084923 540.35453796 C19.83084301 559.36849072 19.83084301 559.36849072 5.85049438 560.35180664 C-2.47512709 560.70765954 -10.74453635 560.0618131 -19 559 C-18.06482391 557.89776573 -17.1280115 556.79691968 -16.1905365 555.69664001 C-15.66902984 555.08345382 -15.14752317 554.47026762 -14.61021328 553.83850002 C-12.11812382 550.9930965 -9.44803338 548.34395213 -6.75390625 545.69140625 C-6.17970444 545.12099106 -5.60550262 544.55057587 -5.01390076 543.96287537 C-2.59114554 541.55624785 -0.16241462 539.15568571 2.26586914 536.75463867 C11.19853352 527.93568504 11.19853352 527.93568504 19.60620117 518.62084961 C21.60369548 516.29796212 23.75539842 514.14853079 25.9375 512 C26.70964844 511.236875 27.48179687 510.47375 28.27734375 509.6875 C29.13005859 508.8521875 29.13005859 508.8521875 30 508 C28.64782283 504.98410383 27.14117534 502.89256572 24.80615711 500.56285477 C24.14464675 499.897979 23.48313638 499.23310324 22.80158025 498.54807973 C22.0729006 497.82590788 21.34422094 497.10373602 20.59346008 496.35968018 C19.82081525 495.58603205 19.04817041 494.81238393 18.25211209 494.01529193 C15.65367557 491.41590041 13.04814746 488.82373468 10.44262695 486.23144531 C8.58135588 484.3723748 6.72053178 482.5128567 4.86012268 480.65292358 C0.84836691 476.64353071 -3.16698077 472.63776443 -7.18472862 468.63437653 C-13.00184975 462.83794673 -18.81295418 457.03551508 -24.62251625 451.23151025 C-34.05901266 441.80427282 -43.49959958 432.38114325 -52.94311523 422.9609375 C-53.50836486 422.39708118 -54.0736145 421.83322487 -54.6559929 421.25228199 C-55.22192483 420.6877456 -55.78785675 420.12320921 -56.37093812 419.54156566 C-64.38332654 411.54891919 -72.39476455 403.55532173 -80.4050293 395.56054688 C-80.96807519 394.99859183 -81.53112108 394.43663679 -82.11122897 393.85765281 C-91.51135017 384.47557774 -100.90942607 375.09145558 -110.30645972 365.7062881 C-116.09916435 359.92116022 -121.89393521 354.13811608 -127.69142548 348.357784 C-131.668132 344.39267966 -135.64311706 340.42585529 -139.61677708 336.4576979 C-141.9069299 334.17086395 -144.19819329 331.88516215 -146.4911499 329.60113907 C-148.98261248 327.11916796 -151.47093385 324.63408795 -153.95854187 322.14825439 C-154.67606792 321.43500543 -155.39359396 320.72175646 -156.13286322 319.98689389 C-160.07260649 316.04272552 -163.81595918 311.98970489 -167.45775169 307.76916194 C-169.32670961 305.62522104 -171.28417401 303.59278046 -173.29649353 301.58325195 C-174.0718042 300.80656662 -174.84711487 300.02988129 -175.6459198 299.22966003 C-176.47167007 298.40750504 -177.29742035 297.58535004 -178.14819336 296.73828125 C-179.48108902 295.40516655 -179.48108902 295.40516655 -180.84091187 294.04512024 C-183.2539091 291.63269616 -185.669088 289.22249767 -188.08530498 286.81330109 C-190.61886452 284.2860356 -193.14955142 281.75589673 -195.68055725 279.22607422 C-200.46301363 274.44671343 -205.24801108 269.66990527 -210.03394943 264.89403152 C-215.48702739 259.45217001 -220.93723193 254.0074345 -226.38720882 248.56246758 C-237.58830073 237.37179989 -248.79295717 226.18470825 -260 215 C-264.86675283 219.05858419 -269.45481051 223.30794459 -273.93136597 227.79092407 C-274.59253233 228.44911931 -275.25369869 229.10731456 -275.9349004 229.78545511 C-278.13328203 231.97521676 -280.3281247 234.16848987 -282.52294922 236.36181641 C-284.1052271 237.93946139 -285.6877009 239.5169099 -287.27035522 241.09417725 C-291.55807039 245.36881248 -295.84248183 249.6467436 -300.12588644 253.9256978 C-302.80586933 256.60274303 -305.48643537 259.27920299 -308.16717911 261.9554863 C-315.60490347 269.38111069 -323.04176982 276.80759186 -330.47514153 284.23757362 C-330.94988464 284.71209718 -331.42462776 285.18662073 -331.91375703 285.67552378 C-332.38956277 286.15111124 -332.86536851 286.6266987 -333.35559261 287.11669791 C-334.31957972 288.08024157 -335.28356838 289.04378367 -336.24755859 290.00732422 C-336.72571888 290.48526308 -337.20387917 290.96320194 -337.69652916 291.45562379 C-345.43790449 299.1930543 -353.18600808 306.92370938 -360.93704949 314.6514556 C-368.91522003 322.60584361 -376.88755745 330.56604196 -384.85455716 338.53162134 C-389.31965351 342.99567262 -393.78711627 347.45729087 -398.26064682 351.91289139 C-402.47143077 356.10712492 -406.67490736 360.30854957 -410.87305069 364.51543427 C-412.40825628 366.05140648 -413.94599292 367.58485407 -415.48654175 369.11546707 C-432.05394302 385.36279031 -432.05394302 385.36279031 -442 406 C-442.35707031 406.94746094 -442.71414063 407.89492188 -443.08203125 408.87109375 C-446.89441634 421.86564889 -443.45160616 436.68635597 -437.24051666 448.2742281 C-435.17167858 451.85885827 -432.72487386 455.03102001 -430.0189209 458.15531921 C-429.54141435 458.71225989 -429.0639078 459.26920057 -428.57193136 459.84301823 C-423.19432665 466.04043357 -417.44117243 471.84771025 -411.63476562 477.63989258 C-410.43878235 478.84023759 -409.24321286 480.04099501 -408.04801941 481.24212646 C-404.83992935 484.46345401 -401.62562467 487.67850762 -398.40963554 490.89194703 C-395.71156311 493.58894028 -393.0164942 496.2889255 -390.32134676 498.98884124 C-383.95988066 505.36134758 -377.5931702 511.72858007 -371.22314453 518.0925293 C-364.67681689 524.63280799 -358.13974549 531.18223565 -351.60708284 537.73616105 C-345.96970836 543.39120063 -340.3264908 549.04036312 -334.67865324 554.68495291 C-331.31770346 558.0440991 -327.95896131 561.40537619 -324.60591125 564.77240944 C-321.45408728 567.93688912 -318.29497175 571.0939105 -315.13033485 574.24557495 C-313.9777436 575.39581848 -312.82764567 576.54856739 -311.68039513 577.7041378 C-299.29952682 590.16822602 -284.99897179 603.14609897 -266.47119004 603.26506424 C-265.24316608 603.25787463 -265.24316608 603.25787463 -263.99033356 603.25053978 C-263.10133439 603.25333746 -262.21233521 603.25613513 -261.29639667 603.25901759 C-258.31426823 603.26598222 -255.33234524 603.25871593 -252.35021973 603.2515564 C-250.19189557 603.25369483 -248.03357214 603.25672017 -245.87525034 603.26055682 C-239.94153596 603.26860487 -234.00788453 603.26428622 -228.07417035 603.25803804 C-221.67600352 603.25350892 -215.27784878 603.26054195 -208.87968445 603.26634216 C-197.7919113 603.27497951 -186.70415469 603.27679153 -175.61637878 603.27439499 C-158.83837624 603.2709778 -142.06040972 603.28433944 -125.28241686 603.30116946 C-118.54905961 603.30785004 -111.81570182 603.31398892 -105.08234406 603.32012367 C-104.33429159 603.32080767 -103.58623912 603.32149166 -102.81551839 603.32219639 C-85.01259404 603.33837209 -67.20966747 603.34920929 -49.40673828 603.35839844 C-48.62783107 603.35880447 -47.84892386 603.35921051 -47.0464134 603.35962884 C-28.86946395 603.36905878 -10.69251575 603.37592363 7.48443604 603.37835693 C8.26646541 603.3784635 9.04849479 603.37857006 9.85422203 603.37867985 C13.79769023 603.37921302 17.74115844 603.37972777 21.68462664 603.38024123 C22.46401627 603.38034344 23.2434059 603.38044565 24.0464134 603.38055095 C25.619541 603.38075651 27.1926686 603.38095907 28.76579621 603.38115862 C54.74828899 603.38453824 80.73074566 603.4014386 106.71321964 603.43326016 C110.38122603 603.43773357 114.04923262 603.44202341 117.71723938 603.44618607 C118.80007474 603.44741675 118.80007474 603.44741675 119.90478555 603.4486723 C131.5287368 603.46142752 143.15264125 603.45942259 154.77659495 603.45155162 C166.45405996 603.44387438 178.13143218 603.45055922 189.80888355 603.47119068 C196.13678943 603.48189728 202.46452411 603.48598241 208.79242897 603.47271919 C214.58198901 603.46070581 220.37122735 603.46695972 226.16075927 603.48791118 C228.25823537 603.49222859 230.35573845 603.48974315 232.45319575 603.47987001 C235.29929982 603.46744251 238.14428502 603.47951532 240.99033356 603.49777794 C242.21835751 603.48356483 242.21835751 603.48356483 243.47119004 603.46906459 C249.08927519 603.54197573 252.37822676 604.76315075 257 608 C259.44649988 611.44039046 260 613.33939911 260 617.5625 C258.64665754 622.2146147 256.30396825 624.42019889 252.36515993 627.12098861 C248.79088801 628.44936632 245.2326199 628.2732937 241.46994114 628.25168228 C240.59633132 628.25458916 239.7227215 628.25749604 238.82263866 628.26049101 C235.87473724 628.2678305 232.92704139 628.26082922 229.97914124 628.25396729 C227.85243114 628.25627018 225.72572184 628.25944555 223.59901422 628.26342177 C217.73851446 628.27180251 211.87807949 628.2676296 206.01757944 628.26144934 C199.7030908 628.25693897 193.38861359 628.26390172 187.0741272 628.26940918 C175.41125616 628.27780572 163.74841149 628.2770535 152.08553978 628.27158624 C141.30655572 628.26655814 130.52757927 628.26524029 119.74859428 628.26763153 C119.03401458 628.2677843 118.31943487 628.26793707 117.58320124 628.26809447 C114.68250084 628.26871714 111.78180045 628.26935394 108.88110006 628.270014 C81.65165592 628.2761362 54.42222497 628.2705795 27.19278287 628.2598202 C3.01092042 628.25033771 -21.17092095 628.25117008 -45.3527832 628.26074219 C-72.51835645 628.2714594 -99.68391801 628.27569288 -126.84949309 628.26951766 C-129.74774619 628.26887624 -132.64599929 628.26825055 -135.5442524 628.26763153 C-136.25787869 628.26747338 -136.97150499 628.26731522 -137.70675633 628.26715227 C-148.47166683 628.2648797 -159.23656887 628.26753366 -170.0014782 628.27259064 C-182.25176872 628.27831669 -194.50202807 628.276672 -206.75231694 628.26602915 C-213.00191692 628.26077841 -219.25147419 628.25870544 -225.50107384 628.26532745 C-231.22621603 628.27130185 -236.95127608 628.26798711 -242.67641086 628.25737235 C-244.74380284 628.25514454 -246.81120181 628.25626065 -248.87858927 628.26112393 C-285.39406908 628.34040858 -306.91080474 616.07749667 -332.38571024 590.75710595 C-333.95954382 589.1871967 -335.53108314 587.61501356 -337.10253906 586.04272461 C-338.25680871 584.89145681 -339.4112796 583.74039075 -340.56593323 582.58950806 C-343.66049412 579.50367288 -346.75190876 576.41470533 -349.84243107 573.324826 C-351.77567016 571.3923023 -353.70962142 569.46049421 -355.64382172 567.52893257 C-362.39608226 560.78587722 -369.14580257 554.04029142 -375.89306641 547.29223633 C-382.18031334 541.0043852 -388.47315646 534.72217268 -394.76855874 528.44248766 C-400.18632514 523.03776596 -405.60026073 517.62922742 -411.01118827 512.21765906 C-414.23809591 508.99049615 -417.46654663 505.76491437 -420.69886017 502.54316521 C-423.72717191 499.52448627 -426.75071019 496.50110879 -429.77055168 493.47395706 C-430.88147478 492.36198311 -431.99412423 491.25173095 -433.10857582 490.14329338 C-434.62335154 488.63616801 -436.13190626 487.12308521 -437.63897705 485.60826111 C-438.90979567 484.33825964 -438.90979567 484.33825964 -440.20628738 483.04260159 C-442 481 -442 481 -442 479 C-442.66 479 -443.32 479 -444 479 C-445.67992394 477.09951051 -447.22335337 475.20631338 -448.75 473.1875 C-449.19883545 472.59727051 -449.6476709 472.00704102 -450.11010742 471.39892578 C-453.98206887 466.20607353 -457.16291509 460.8266102 -460 455 C-460.46277344 454.071875 -460.92554688 453.14375 -461.40234375 452.1875 C-469.31958507 435.6645616 -470.0672601 413.75733645 -464.390625 396.34765625 C-459.99335916 385.76210336 -454.56105523 376.65666947 -447 368 C-446.38244488 367.29174513 -445.76488977 366.58349026 -445.12862086 365.85377312 C-438.35382557 358.215493 -431.16536677 351.0196221 -423.94561768 343.80517578 C-422.52797713 342.38494715 -421.11054991 340.96450555 -419.69331622 339.54387093 C-415.81885014 335.66138419 -411.94129645 331.78199436 -408.06318855 327.90314579 C-403.87315899 323.71125713 -399.68597794 319.51652468 -395.49838257 315.32220459 C-385.87603392 305.6856037 -376.2494855 296.05320331 -366.62230251 286.42143258 C-361.85972779 281.65651669 -357.09778434 276.89097012 -352.33591481 272.12534951 C-336.01861852 255.7952254 -319.70026933 239.46615453 -303.37828445 223.14071655 C-302.35528248 222.11749295 -301.33228059 221.09426927 -300.30927877 220.07104552 C-299.28389679 219.0454429 -298.25851473 218.01984036 -297.2331326 216.9942379 C-295.17625306 214.93691582 -293.1193758 212.87959145 -291.0625 210.82226562 C-290.29752994 210.05713148 -290.29752994 210.05713148 -289.51710593 209.27654007 C-272.9781655 192.73396838 -256.44538371 176.18525995 -239.91628233 159.63285759 C-222.41806468 142.11001812 -204.91438997 124.59264823 -187.40445399 107.08151817 C-185.48080525 105.15769799 -183.55717849 103.23385581 -181.63356781 101.30999756 C-180.92315467 100.59950076 -180.92315467 100.59950076 -180.19838974 99.87465049 C-173.06439143 92.73957505 -165.93450839 85.6004047 -158.80680084 78.45904541 C-150.69602477 70.33285036 -142.58010384 62.21183778 -134.45749095 54.09747362 C-130.31641669 49.96029887 -126.17777441 45.82076781 -122.04568863 41.67461395 C-118.25723313 37.87337871 -114.46181682 34.07923655 -110.66092333 30.29043937 C-109.29294329 28.9244092 -107.92745252 27.55588027 -106.56483212 26.18450379 C-91.7138126 11.24417296 -76.70830343 -1.32538698 -56 -7 C-54.62908203 -7.53560547 -54.62908203 -7.53560547 -53.23046875 -8.08203125 C-36.36428017 -12.87472087 -15.16420639 -7.84427827 0 0 Z M-99.1574707 51.96459961 C-100.74688026 53.54608936 -102.33646451 55.12740356 -103.9262085 56.70855713 C-109.09640638 61.85280392 -114.26139323 67.00226533 -119.42578125 72.15234375 C-121.21010479 73.93130097 -122.99443391 75.71025259 -124.77876854 77.48919868 C-132.19228017 84.88114253 -139.6044541 92.27442403 -147.01276875 99.6715765 C-148.92410144 101.57998032 -150.83545061 103.48836763 -152.74682617 105.39672852 C-153.22179144 105.87094774 -153.69675671 106.34516696 -154.18611487 106.83375645 C-161.91501861 114.54995116 -169.65417099 122.25578361 -177.39744959 129.9575501 C-185.36355027 137.8812942 -193.32005137 145.81458156 -201.26782674 153.75671393 C-205.7243956 158.20962235 -210.18508711 162.65821334 -214.65596962 167.09675407 C-218.84887604 171.25975059 -223.02994206 175.43427291 -227.20199585 179.61816406 C-228.73803759 181.15442781 -230.27840164 182.68638323 -231.82326317 184.21377754 C-233.92345914 186.29150171 -236.00785077 188.38386706 -238.08882141 190.4808197 C-239.02057653 191.39175169 -239.02057653 191.39175169 -239.97115499 192.32108635 C-241.83839982 194.16413329 -241.83839982 194.16413329 -244 197 C-243.73138322 200.42544656 -242.335678 201.98361369 -239.84724522 204.23040676 C-239.18130988 204.84197709 -238.51537454 205.45354741 -237.82925934 206.08365017 C-237.09932095 206.74121758 -236.36938256 207.39878499 -235.61732483 208.07627869 C-234.04706409 209.52244772 -232.47902831 210.97103557 -230.91298103 212.42176628 C-229.69109483 213.55282834 -229.69109483 213.55282834 -228.44452405 214.70674014 C-224.5355658 218.37381678 -220.73781101 222.14846124 -216.94822693 225.93824768 C-216.17028876 226.71564202 -215.3923506 227.49303636 -214.59083855 228.29398811 C-212.09952593 230.78721644 -209.61114793 233.28335136 -207.12280273 235.77954102 C-205.3010113 237.60325718 -203.47898795 239.4267417 -201.65675354 241.25001526 C-197.76980618 245.13981754 -193.8846288 249.03138 -190.00066948 252.92416573 C-184.37725872 258.56026079 -178.75049546 264.19299986 -173.12287617 269.82489239 C-163.97654612 278.97825118 -154.83209064 288.13348002 -145.68920898 297.2902832 C-144.87239548 298.10833843 -144.87239548 298.10833843 -144.03908069 298.94292002 C-140.17183885 302.81606515 -136.30466412 306.68927728 -132.4375 310.5625 C-128.00420151 315.00273659 -123.57086577 319.44293598 -119.13745117 323.88305664 C-118.59085952 324.43047642 -118.04426787 324.9778962 -117.48111283 325.54190446 C-108.35634031 334.68037821 -99.2295914 343.81687566 -90.10144192 352.95197624 C-84.48852348 358.56936027 -78.87738258 364.18850855 -73.26857037 369.8099926 C-68.97590929 374.11210061 -64.68069137 378.41164648 -60.38454247 382.71027184 C-58.62769984 384.46898312 -56.87172021 386.22855699 -55.11668015 387.98906708 C-52.71641405 390.39657751 -50.31304803 392.80095176 -47.90892029 395.2046051 C-47.22010267 395.89701768 -46.53128506 396.58943026 -45.82159418 397.30282503 C-41.9250452 401.19117753 -37.92265674 404.89461572 -33.74470288 408.47959274 C-31.3240598 410.58904264 -29.06561916 412.83880079 -26.8125 415.125 C-26.01457031 415.93195313 -25.21664062 416.73890625 -24.39453125 417.5703125 C-23.60433594 418.37210937 -22.81414062 419.17390625 -22 420 C-20.33415011 421.66748304 -18.66733053 423.33399746 -17 425 C-15.97697822 426.02292751 -14.95400621 427.04590481 -13.93107605 428.06892395 C-13.37728271 428.62271729 -12.82348938 429.17651062 -12.25291443 429.74708557 C7.83139038 449.83139038 27.91569519 469.91569519 48 490 C52.89034898 485.89439116 57.51030446 481.63651352 62.02075195 477.11968994 C62.69149655 476.45191646 63.36224115 475.78414299 64.05331135 475.09613395 C66.28400071 472.87406607 68.51114987 470.64848508 70.73828125 468.42285156 C72.34350825 466.82225727 73.94893125 465.22185952 75.55453491 463.62164307 C79.90409719 459.28516053 84.25035584 454.94538208 88.59560776 450.60458088 C91.31309689 447.89002875 94.03116944 445.17606212 96.74942017 442.46227264 C104.28837284 434.93541862 111.82646804 427.40770966 119.36106873 419.87649918 C119.84225019 419.39553728 120.32343166 418.91457538 120.81919438 418.41903888 C121.30146093 417.9369906 121.78372748 417.45494232 122.28060818 416.95828652 C123.25770859 415.98162957 124.23481055 415.00497417 125.21191406 414.02832031 C125.6965802 413.5438756 126.18124634 413.05943089 126.68059933 412.56030604 C134.53325801 404.71159507 142.39264863 396.86966245 150.2549659 389.030628 C158.34385829 380.96549478 166.42693478 372.89457939 174.50466824 364.81826758 C179.03341741 360.29056476 183.56454673 355.7653077 188.10171509 351.24604034 C192.36992891 346.99434098 196.63088074 342.73549434 200.88646317 338.47115326 C202.44508369 336.91176426 204.00624939 335.35491418 205.57020187 333.8008728 C220.85706794 318.60518234 231.38729721 305.6182204 231.5625 283.25 C231.17700883 257.59877522 213.38323931 242.21781196 196.37269211 225.29752731 C193.91445451 222.8521986 191.45948172 220.40363252 189.00527954 217.95425415 C183.79800728 212.75833609 178.58679942 207.56637654 173.375 202.375 C167.32326576 196.34694507 161.27319871 190.31723605 155.22734451 184.28328323 C152.81933997 181.88171723 150.40832326 179.48320425 147.99716187 177.08480835 C146.51016587 175.60144744 145.02331153 174.1179445 143.53662109 172.63427734 C142.87462204 171.97744461 142.21262299 171.32061188 141.53056335 170.64387512 C138.5104856 167.62413656 135.59480363 164.57090247 132.81930542 161.32426453 C127.6324666 155.32448767 121.9532904 149.78846151 116.35449219 144.17749023 C115.08050219 142.89722415 113.80669848 141.61677267 112.5330658 140.33615112 C108.37455881 136.15674834 104.21084833 131.98254917 100.046875 127.80859375 C98.60733104 126.36499769 97.16781961 124.9213692 95.72834015 123.47770882 C88.96647956 116.69683331 82.20223529 109.91834683 75.43503928 103.14279598 C67.6467164 95.3446956 59.86675004 87.5383805 52.09375072 79.72500652 C46.06742777 73.66846659 40.03339463 67.61967741 33.99359822 61.57657391 C30.39404106 57.974674 26.79781898 54.36959116 23.20973969 50.7562542 C19.83351589 47.35664485 16.44776809 43.9668108 13.05471992 40.58399582 C11.81738041 39.34714912 10.58340307 38.1069274 9.35323143 36.86295128 C-4.04190493 23.32605492 -17.99244532 13.60916781 -37.625 13.4375 C-64.79782062 13.89254724 -81.27490183 34.13255582 -99.1574707 51.96459961 Z " transform="translate(472,17)" style="fill: #1B3455;"/><path d="M0 0 C2.33682327 1.99603654 4.66972297 3.99634204 7 6 C7.61332325 6.52440345 8.22664651 7.04880691 8.85855532 7.58910137 C13.78131494 11.83937527 18.43515226 16.29581675 23.02331543 20.90306091 C23.78969157 21.66858263 24.55606771 22.43410434 25.34566736 23.22282368 C27.89362993 25.76914907 30.4380198 28.31901368 32.98242188 30.86889648 C34.81587601 32.7026329 36.64955078 34.53614873 38.48342896 36.36946106 C42.42134928 40.30685892 46.35744532 44.24607274 50.2922821 48.18655205 C55.98128675 53.88370933 61.67307501 59.57807902 67.36553031 65.27178825 C76.60274249 74.51118505 85.83772274 83.75280935 95.07128906 92.99584961 C104.03690909 101.97065904 113.00358655 110.94440985 121.97167969 119.91674805 C122.52515908 120.47049016 123.07863847 121.02423227 123.64888996 121.59475445 C126.4257449 124.3729145 129.20262055 127.15105384 131.97950649 129.92918289 C154.98954943 152.94958005 177.99596565 175.9735985 201 199 C200.34 199.33 199.68 199.66 199 200 C189.84448903 195.30739044 181.52166653 188.41213229 173.51171875 182.01171875 C168.66856885 178.30999861 164.64502282 176.48833793 158.6875 175.0625 C151.34805274 173.17611939 151.34805274 173.17611939 149.0625 169.4375 C148.34929012 167.97055694 147.66339777 166.4901321 147 165 C143.26624688 158.1294601 138.96410791 152.81767705 133.3125 147.5 C125.6630838 140.27407025 120.44476802 131.93797627 115.2199707 122.86254883 C112.63325856 118.91337394 109.54101634 117.06488641 105.4375 114.8125 C100.33218205 111.89693288 95.87586245 108.64930229 91.359375 104.90234375 C88.47363731 102.57559829 85.44212597 100.57353468 82.33984375 98.55078125 C67.86394488 88.95657115 55.73743663 78.67015792 45.5625 64.625 C45.11253662 64.00536377 44.66257324 63.38572754 44.19897461 62.74731445 C41 58.24291476 41 58.24291476 41 56 C40.40445313 55.74863281 39.80890625 55.49726563 39.1953125 55.23828125 C34.88176988 52.8051976 31.78193386 48.08515697 30.0625 43.5 C27.14721554 36.64050714 21.5266787 32.19674059 15 29 C15 25.37 15 21.74 15 18 C14.195625 17.896875 13.39125 17.79375 12.5625 17.6875 C8.19187742 16.84404652 4.20294554 15.46466284 0 14 C0 9.38 0 4.76 0 0 Z " transform="translate(228,217)" style="fill: #1A3300;"/><path d="M0 0 C2.84734049 -0.53387634 4.2622622 -0.76019736 7 0 C11.65667016 3.91260617 14.98860057 8.2516859 17 14 C18.27875 14.04125 19.5575 14.0825 20.875 14.125 C29.56315579 15.12222543 36.1473028 20.33992138 41.5703125 26.9375 C42.9200448 28.88465479 43.82954833 30.70098082 44.75 32.875 C47.02813914 37.91874036 51.11993946 41.0531885 55.24609375 44.60546875 C59.8296314 48.59087099 63.53247852 52.45703408 66.75 57.625 C67.63945313 59.03652344 67.63945313 59.03652344 68.546875 60.4765625 C70 63 70 63 71 66 C72.86173689 67.06297434 72.86173689 67.06297434 75 68 C77.71791427 69.92352522 80.28473728 72.03377873 82.875 74.125 C83.56980469 74.66898437 84.26460937 75.21296875 84.98046875 75.7734375 C89.24533102 79.21102893 92.45702787 82.72891738 95.62402344 87.18847656 C97.50819126 89.66905237 99.70246963 91.4516168 102.1875 93.3125 C106.48699815 96.56849476 109.76339383 99.09083442 112.125 104 C112.45757813 104.680625 112.79015625 105.36125 113.1328125 106.0625 C114 108 114 108 115 111 C121.27 111 127.54 111 134 111 C137.28426155 117.56852309 138.58687392 122.66701207 139 130 C141.97 130 144.94 130 148 130 C148.19634033 130.59014893 148.39268066 131.18029785 148.5949707 131.78833008 C149.49164297 134.46622614 150.40189371 137.13931171 151.3125 139.8125 C151.62123047 140.74126953 151.92996094 141.67003906 152.24804688 142.62695312 C152.70727539 143.9659668 152.70727539 143.9659668 153.17578125 145.33203125 C153.59210815 146.56530151 153.59210815 146.56530151 154.0168457 147.82348633 C155.05339859 150.11821417 156.1770336 151.30105733 158 153 C160.2 157.4 160.2 157.4 159 161 C152.98985232 155.01313294 146.98249276 149.02348738 140.97856808 143.03038025 C138.18992936 140.24693621 135.40037836 137.46442004 132.60864258 134.68408203 C129.90908997 131.99548066 127.21206453 129.30436702 124.51669502 126.61157227 C123.49346103 125.59017065 122.46935477 124.56964201 121.44431877 123.55004883 C119.99686003 122.10996352 118.55267751 120.66666171 117.10913086 119.22265625 C116.28972519 118.40547119 115.47031952 117.58828613 114.62608337 116.74633789 C112.61956844 114.64793993 110.72109972 112.5321695 108.83276367 110.33177185 C104.32008849 105.13763187 99.44288388 100.31847032 94.56665039 95.46899414 C93.53092439 94.43519129 92.49542877 93.40115759 91.46014404 92.36691284 C89.24630519 90.15621395 87.03092818 87.94707272 84.8143177 85.73915291 C81.31186869 82.25029968 77.81330315 78.75756928 74.31529236 75.26426697 C66.90066573 67.86069853 59.48178713 60.46139758 52.0625 53.0625 C44.0274786 45.04950811 35.99320497 37.03577443 27.96376795 29.01718611 C24.48285545 25.54126662 20.99951725 22.06780173 17.51432526 18.59617341 C15.35603049 16.44530582 13.1997807 14.29239729 11.0440979 12.1389122 C10.04034919 11.13704452 9.03573208 10.13604604 8.03021049 9.13595772 C6.66423157 7.77713198 5.30156419 6.41497961 3.93910217 5.05262756 C3.1738878 4.2896338 2.40867342 3.52664003 1.62027073 2.74052525 C0 1 0 1 0 0 Z " transform="translate(495,68)" style="fill: #1A3300;"/><path d="M0 0 C0.33 0 0.66 0 1 0 C3.05358493 20.03521203 3.05358493 20.03521203 -0.09863281 26.12109375 C-2.95888827 29.61762225 -6.54751529 32.11821422 -10.23828125 34.67578125 C-13.13989899 36.85681986 -15.43693149 39.52241697 -17.8125 42.25 C-21.49732209 46.37295642 -25.2923647 50.33325812 -29.2421875 54.203125 C-30.92134997 55.9196022 -32.42730528 57.69745078 -33.9375 59.5625 C-36.8566193 63.06384801 -40.26382849 65.64827721 -43.89453125 68.37890625 C-47.59376589 71.22711103 -50.60647442 74.49023175 -53.5 78.125 C-56.63607784 81.73148952 -59.24577273 83.52724655 -63.85546875 84.76953125 C-72.23596184 88.04885463 -77.82538876 97.9968395 -82.88671875 105.1171875 C-92.01464317 117.56895871 -102.62398726 128.14332859 -114.9609375 137.4296875 C-117.03019342 139.0232524 -118.98186331 140.70720416 -120.9375 142.4375 C-124 145 -124 145 -126 145 C-126.22816406 145.54269531 -126.45632813 146.08539063 -126.69140625 146.64453125 C-128.38506942 149.69312496 -130.58550373 152.1413022 -132.9375 154.6875 C-133.42549072 155.21714355 -133.91348145 155.74678711 -134.41625977 156.29248047 C-139.2071473 161.38707536 -144.50318304 165.68758007 -150 170 C-152.0689296 171.70135327 -154.13197424 173.40769254 -156.1875 175.125 C-157.67830078 176.36636719 -157.67830078 176.36636719 -159.19921875 177.6328125 C-162.28156812 180.23797807 -165.29985437 182.90513031 -168.28125 185.625 C-170.09488149 187.07590519 -171.91482312 187.99291767 -174 189 C-170.00507672 184.20936144 -165.83157228 179.69394782 -161.4032135 175.30314636 C-160.44738087 174.34920714 -160.44738087 174.34920714 -159.47223848 173.37599641 C-157.35373675 171.26283732 -155.23167287 169.15329281 -153.10961914 167.04370117 C-151.58292702 165.52220682 -150.05647974 164.00046675 -148.53025818 162.47850037 C-145.25116813 159.20932643 -141.97062325 155.94162189 -138.68901253 152.67497826 C-133.4952341 147.50432903 -128.30639255 142.32874482 -123.11851501 137.1521759 C-108.36822118 122.43526118 -93.61380632 107.7224961 -78.84887695 93.02026367 C-70.68824907 84.89420593 -62.53302784 76.76276263 -54.38373846 68.62533361 C-49.23341597 63.48308906 -44.07660373 58.34747279 -38.91487706 53.21667707 C-35.69862852 50.01648953 -32.48875099 46.80997024 -29.28061867 43.60164833 C-27.79780777 42.12124929 -26.31243612 40.6434098 -24.82425308 39.16841125 C-10.44070748 25.23518931 -10.44070748 25.23518931 -2.0625 7.375 C-1.85560547 6.65699219 -1.64871094 5.93898438 -1.43554688 5.19921875 C-0.94009848 3.47091038 -0.4674117 1.73610059 0 0 Z " transform="translate(702,311)" style="fill: #1D3600;"/><path d="M0 0 C0.99 0.495 0.99 0.495 2 1 C-16.75497035 19.77829447 -35.51277589 38.55375267 -54.27399349 57.32580566 C-62.98439379 66.04136996 -71.69385151 74.75787234 -80.40112305 83.4765625 C-87.9872737 91.07265683 -95.5751598 98.66701247 -103.16516596 106.25925446 C-107.18675148 110.28214762 -111.20744154 114.30592692 -115.22605705 118.33178711 C-119.00358658 122.11607188 -122.78342079 125.89803877 -126.56508446 129.67819214 C-127.95717976 131.07056399 -129.34840952 132.4638018 -130.7387352 133.85794067 C-132.62785805 135.75199302 -134.51998724 137.64298828 -136.41294861 139.53320312 C-136.97033232 140.09349968 -137.52771603 140.65379623 -138.10199016 141.23107147 C-141.88587879 145 -141.88587879 145 -143 145 C-143 138.07 -143 131.14 -143 124 C-140.36 123.67 -137.72 123.34 -135 123 C-132.53123655 121.68921989 -132.53123655 121.68921989 -130.625 119.9375 C-127.15529412 117 -127.15529412 117 -125 117 C-124.80019531 116.45214844 -124.60039062 115.90429688 -124.39453125 115.33984375 C-122.43426027 112.05076163 -119.62848139 109.93552272 -116.6875 107.5625 C-111.31416326 103.17498495 -106.32060719 98.77020544 -102.0625 93.25 C-98.35251019 88.92712641 -93.98069741 86.15031016 -89.15063477 83.23339844 C-82.66166792 79.30794049 -77.87837842 75.26169697 -73.8125 68.75 C-69.51582677 62.1734022 -64.32207346 57.6649239 -58 53 C-54.88460976 50.60533437 -52.16421791 48.24751578 -49.625 45.25 C-48.72974609 44.20779297 -48.72974609 44.20779297 -47.81640625 43.14453125 C-46.63393229 41.7484491 -45.45410231 40.35012179 -44.27734375 38.94921875 C-41.41982786 35.59700763 -38.55769019 32.52982907 -35.1875 29.6875 C-30.85750662 26.02301144 -27.15366317 21.88732939 -23.39453125 17.6484375 C-18.846767 12.61844703 -14.75038563 8.99550452 -8.8125 5.8125 C-4.1077518 3.33286648 -4.1077518 3.33286648 0 0 Z " transform="translate(386,54)" style="fill: #183100;"/><path d="M0 0 C7.09515446 5.79904189 13.46818621 12.32301832 19.93359375 18.80078125 C21.17897697 20.04549009 22.42450854 21.29005051 23.67018127 22.5344696 C26.26636699 25.12918795 28.8607523 27.7256894 31.45385742 30.32348633 C34.78518523 33.66054669 38.12103057 36.99304957 41.45820522 40.32426167 C44.02408603 42.88654126 46.58759567 45.45118243 49.15037727 48.01656151 C50.38049901 49.24735189 51.61136832 50.47739555 52.84298515 51.70668983 C54.5545667 53.41574826 56.2629381 55.12795036 57.97045898 56.84106445 C58.48310303 57.35168427 58.99574707 57.86230408 59.52392578 58.38839722 C63 61.8857302 63 61.8857302 63 63 C57.06 63 51.12 63 45 63 C43.68 60.36 42.36 57.72 41 55 C40.29617188 54.14019531 39.59234375 53.28039062 38.8671875 52.39453125 C36.65003388 49.55119408 36.00082769 47.16995772 35.125 43.6875 C32.93444641 36.29958733 30.77651911 31.26000296 24.00390625 27.20703125 C21.74122324 26.02206547 19.47020982 24.85287926 17.19140625 23.69921875 C8.70542599 19.18097957 3.60804112 12.92443505 0 4 C0 2.68 0 1.36 0 0 Z " transform="translate(454,441)" style="fill: #203800;"/><path d="M0 0 C1.20849609 0.00322266 2.41699219 0.00644531 3.66210938 0.00976562 C4.92474609 0.01814453 6.18738281 0.02652344 7.48828125 0.03515625 C9.39963867 0.04192383 9.39963867 0.04192383 11.34960938 0.04882812 C14.50004689 0.06062752 17.65039074 0.07709028 20.80078125 0.09765625 C17.99924569 1.96534663 16.47114138 2.51829966 13.30078125 3.28515625 C1.71259431 6.69443444 -6.7156442 14.91019251 -15.19921875 23.09765625 C-15.19921875 20.09765625 -15.19921875 20.09765625 -13.26171875 17.59765625 C-10.57249055 13.84788735 -10.58996874 9.98419888 -10.375 5.48828125 C-10.19921875 3.09765625 -10.19921875 3.09765625 -9.19921875 1.09765625 C-5.90187229 -0.00145924 -3.4696313 -0.01628935 0 0 Z " transform="translate(404.19921875,30.90234375)" style="fill: #1C3400;"/><path d="M0 0 C5.30143916 1.19282381 8.16547144 3.75351481 12.046875 7.31640625 C15.71016965 10.47416624 19.36080379 11.84020095 24 13 C24 20.92 24 28.84 24 37 C22.41346805 33.8269361 21.17717536 30.80580096 19.9375 27.5 C15.84378285 17.62691747 9.16174024 9.70198934 1.43359375 2.42578125 C0.96050781 1.95527344 0.48742187 1.48476562 0 1 C0 0.67 0 0.34 0 0 Z " transform="translate(679,253)" style="fill: #1C3400;"/><path d="M0 0 C4.95 0 9.9 0 15 0 C10.60831493 5.27002208 6.0573621 10.35302051 1 15 C0.67 15 0.34 15 0 15 C0 10.05 0 5.1 0 0 Z " transform="translate(228,199)" style="fill: #1C3400;"/><path d="M0 0 C1.33456107 0.66420551 2.66757123 1.33152726 4 2 C5.17175781 2.57234375 5.17175781 2.57234375 6.3671875 3.15625 C13.04184244 6.73270062 17.16547428 10.86879502 20 18 C19.67 18.66 19.34 19.32 19 20 C15.8293305 16.85817898 12.66414446 13.71089125 9.5 10.5625 C8.59378906 9.66466797 7.68757812 8.76683594 6.75390625 7.84179688 C5.89667969 6.98779297 5.03945313 6.13378906 4.15625 5.25390625 C3.36025391 4.46314697 2.56425781 3.6723877 1.74414062 2.85766602 C0 1 0 1 0 0 Z " transform="translate(655,229)" style="fill: #1F3800;"/><path d="M0 0 C9.26995516 -1.0735426 9.26995516 -1.0735426 13.51171875 1.55859375 C15.45621177 3.29362612 17.26770912 5.054275 19 7 C15.4463349 7 13.32294228 6.01945368 10.0625 4.625 C9.02222656 4.18414062 7.98195313 3.74328125 6.91015625 3.2890625 C4.56826735 2.25171574 2.27568165 1.17348403 0 0 Z " transform="translate(447,32)" style="fill: #2C4300;"/></svg>