<svg id="svg" version="1.1" xmlns="http://www.w3.org/2000/svg" viewBox="0 0 560 486" style="display: block;"><path d="M0 0 C184.8 0 369.6 0 560 0 C560 160.38 560 320.76 560 486 C375.2 486 190.4 486 0 486 C0 325.62 0 165.24 0 0 Z " transform="translate(0,0)" style="fill: #FEFEFE;"/><path d="M0 0 C0 0.99 0 1.98 0 3 C0.66 3 1.32 3 2 3 C2 3.66 2 4.32 2 5 C4.31 5.33 6.62 5.66 9 6 C9 6.66 9 7.32 9 8 C9.66 8 10.32 8 11 8 C11 8.66 11 9.32 11 10 C11.99 10 12.98 10 14 10 C14 10.66 14 11.32 14 12 C14.99 12 15.98 12 17 12 C17 12.66 17 13.32 17 14 C18.32 14 19.64 14 21 14 C21 15.65 21 17.3 21 19 C22.98 19.33 24.96 19.66 27 20 C27 20.66 27 21.32 27 22 C27.66 22 28.32 22 29 22 C29 22.99 29 23.98 29 25 C30.98 25.33 32.96 25.66 35 26 C35 26.66 35 27.32 35 28 C36.65 28.33 38.3 28.66 40 29 C40 29.99 40 30.98 40 32 C40.99 32 41.98 32 43 32 C43 32.66 43 33.32 43 34 C44.65 34.33 46.3 34.66 48 35 C48 35.99 48 36.98 48 38 C48.99 38 49.98 38 51 38 C51 38.66 51 39.32 51 40 C52.32 40 53.64 40 55 40 C55.33 40.66 55.66 41.32 56 42 C57.485 42.495 57.485 42.495 59 43 C59 43.66 59 44.32 59 45 C59.99 45 60.98 45 62 45 C62 45.99 62 46.98 62 48 C63.65 48.33 65.3 48.66 67 49 C67 49.66 67 50.32 67 51 C68.65 51.33 70.3 51.66 72 52 C72.495 54.475 72.495 54.475 73 57 C74.98 57.33 76.96 57.66 79 58 C79 59.32 79 60.64 79 62 C80.98 62.33 82.96 62.66 85 63 C85 63.66 85 64.32 85 65 C85.99 65 86.98 65 88 65 C88 65.66 88 66.32 88 67 C88.66 67 89.32 67 90 67 C90 67.66 90 68.32 90 69 C90.99 69 91.98 69 93 69 C93 69.66 93 70.32 93 71 C94.98 71.33 96.96 71.66 99 72 C99.33 73.65 99.66 75.3 100 77 C101.98 77.33 103.96 77.66 106 78 C106 78.66 106 79.32 106 80 C106.66 80 107.32 80 108 80 C108 80.66 108 81.32 108 82 C108.99 82 109.98 82 111 82 C111 82.99 111 83.98 111 85 C111.99 85 112.98 85 114 85 C114 85.66 114 86.32 114 87 C115.65 87.33 117.3 87.66 119 88 C119 88.99 119 89.98 119 91 C121.31 91.33 123.62 91.66 126 92 C126.33 93.32 126.66 94.64 127 96 C127.99 96 128.98 96 130 96 C130 96.66 130 97.32 130 98 C130.99 98 131.98 98 133 98 C133 98.66 133 99.32 133 100 C134.65 100.33 136.3 100.66 138 101 C138 101.99 138 102.98 138 104 C138.99 104 139.98 104 141 104 C141 104.99 141 105.98 141 107 C142.32 107.33 143.64 107.66 145 108 C145 108.66 145 109.32 145 110 C147.31 110.33 149.62 110.66 152 111 C152.33 112.65 152.66 114.3 153 116 C155.97 116.495 155.97 116.495 159 117 C159 117.99 159 118.98 159 120 C161.97 120.495 161.97 120.495 165 121 C165 121.66 165 122.32 165 123 C165.99 123 166.98 123 168 123 C168.33 124.65 168.66 126.3 169 128 C169.99 128 170.98 128 172 128 C172 128.66 172 129.32 172 130 C173.65 130.33 175.3 130.66 177 131 C177 131.66 177 132.32 177 133 C177.99 133 178.98 133 180 133 C180 133.99 180 134.98 180 136 C181.134375 136.12375 182.26875 136.2475 183.4375 136.375 C184.613125 136.58125 185.78875 136.7875 187 137 C187.33 137.66 187.66 138.32 188 139 C188.99 139.33 189.98 139.66 191 140 C191 140.99 191 141.98 191 143 C191.99 143 192.98 143 194 143 C194.33 144.32 194.66 145.64 195 147 C195.99 147 196.98 147 198 147 C198 147.99 198 148.98 198 150 C199.98 150.33 201.96 150.66 204 151 C204 151.66 204 152.32 204 153 C205.98 153.33 207.96 153.66 210 154 C210 154.99 210 155.98 210 157 C211.32 157 212.64 157 214 157 C214.33 157.66 214.66 158.32 215 159 C215.99 159.33 216.98 159.66 218 160 C218 160.66 218 161.32 218 162 C218.66 162 219.32 162 220 162 C220 162.66 220 163.32 220 164 C220.66 164 221.32 164 222 164 C222 164.66 222 165.32 222 166 C222.99 166 223.98 166 225 166 C225 166.99 225 167.98 225 169 C226.65 169.33 228.3 169.66 230 170 C230 170.99 230 171.98 230 173 C231.98 173.33 233.96 173.66 236 174 C236 174.66 236 175.32 236 176 C237.32 176 238.64 176 240 176 C240.33 176.99 240.66 177.98 241 179 C241.66 179.33 242.32 179.66 243 180 C243 180.66 243 181.32 243 182 C244.65 182.33 246.3 182.66 248 183 C248 183.99 248 184.98 248 186 C248.99 186 249.98 186 251 186 C251 186.66 251 187.32 251 188 C252.65 188.33 254.3 188.66 256 189 C256 189.99 256 190.98 256 192 C256.99 192 257.98 192 259 192 C259 192.66 259 193.32 259 194 C259.99 194 260.98 194 262 194 C262 194.66 262 195.32 262 196 C263.32 196 264.64 196 266 196 C267.75 197.3125 267.75 197.3125 269 199 C269 199.99 269 200.98 269 202 C270.65 202.33 272.3 202.66 274 203 C274 203.66 274 204.32 274 205 C274.99 205 275.98 205 277 205 C277 205.66 277 206.32 277 207 C277.99 207 278.98 207 280 207 C280 207.66 280 208.32 280 209 C281.65 209 283.3 209 285 209 C285.33 209.99 285.66 210.98 286 212 C286.99 212.33 287.98 212.66 289 213 C289 213.66 289 214.32 289 215 C289.99 215 290.98 215 292 215 C292.33 215.99 292.66 216.98 293 218 C293.99 218.33 294.98 218.66 296 219 C296 219.66 296 220.32 296 221 C297.65 221.33 299.3 221.66 301 222 C301 222.99 301 223.98 301 225 C301.99 225 302.98 225 304 225 C304 225.66 304 226.32 304 227 C305.65 227.33 307.3 227.66 309 228 C309 228.99 309 229.98 309 231 C310.98 231.33 312.96 231.66 315 232 C315 232.99 315 233.98 315 235 C315.66 235 316.32 235 317 235 C317 235.66 317 236.32 317 237 C317.66 237 318.32 237 319 237 C319 237.66 319 238.32 319 239 C319.99 239 320.98 239 322 239 C322 239.66 322 240.32 322 241 C323.98 241.33 325.96 241.66 328 242 C328 242.66 328 243.32 328 244 C328.99 244 329.98 244 331 244 C331 244.99 331 245.98 331 247 C332.65 247.33 334.3 247.66 336 248 C336 248.66 336 249.32 336 250 C337.98 250.33 339.96 250.66 342 251 C342 251.99 342 252.98 342 254 C342.99 254 343.98 254 345 254 C345.33 255.32 345.66 256.64 346 258 C346.99 258 347.98 258 349 258 C349 258.99 349 259.98 349 261 C350.65 261.33 352.3 261.66 354 262 C354 262.66 354 263.32 354 264 C355.98 264.33 357.96 264.66 360 265 C360 265.99 360 266.98 360 268 C361.65 268 363.3 268 365 268 C365 268.66 365 269.32 365 270 C365.99 270.33 366.98 270.66 368 271 C368 271.66 368 272.32 368 273 C369.32 273 370.64 273 372 273 C372.33 274.65 372.66 276.3 373 278 C373.99 278 374.98 278 376 278 C376 278.66 376 279.32 376 280 C377.65 280.33 379.3 280.66 381 281 C381 281.99 381 282.98 381 284 C382.98 284.33 384.96 284.66 387 285 C387 285.66 387 286.32 387 287 C387.66 287 388.32 287 389 287 C389 287.99 389 288.98 389 290 C390.65 290.33 392.3 290.66 394 291 C394 291.66 394 292.32 394 293 C395.65 293.33 397.3 293.66 399 294 C399 294.99 399 295.98 399 297 C399.99 297 400.98 297 402 297 C402 297.99 402 298.98 402 300 C403.98 300.33 405.96 300.66 408 301 C408 301.66 408 302.32 408 303 C408.99 303 409.98 303 411 303 C411 303.66 411 304.32 411 305 C411.99 305 412.98 305 414 305 C414 305.66 414 306.32 414 307 C414.66 307 415.32 307 416 307 C416.33 307.66 416.66 308.32 417 309 C417.99 309.33 418.98 309.66 420 310 C420 310.99 420 311.98 420 313 C421.65 313.33 423.3 313.66 425 314 C425 314.66 425 315.32 425 316 C425.99 316 426.98 316 428 316 C428 316.99 428 317.98 428 319 C428.99 319 429.98 319 431 319 C431 319.66 431 320.32 431 321 C431.66 321 432.32 321 433 321 C433 321.66 433 322.32 433 323 C434.98 323.33 436.96 323.66 439 324 C439.33 325.65 439.66 327.3 440 329 C442.31 329.33 444.62 329.66 447 330 C447 330.66 447 331.32 447 332 C448.32 332 449.64 332 451 332 C451.33 333.32 451.66 334.64 452 336 C452.99 336 453.98 336 455 336 C455 336.66 455 337.32 455 338 C456.65 338.33 458.3 338.66 460 339 C460 340.32 460 341.64 460 343 C461.65 343.33 463.3 343.66 465 344 C465 344.66 465 345.32 465 346 C465.66 346 466.32 346 467 346 C467 346.99 467 347.98 467 349 C468.98 349.33 470.96 349.66 473 350 C473 350.66 473 351.32 473 352 C474.65 352.33 476.3 352.66 478 353 C478 353.99 478 354.98 478 356 C478.99 356 479.98 356 481 356 C481 356.66 481 357.32 481 358 C482.98 358.33 484.96 358.66 487 359 C487 359.66 487 360.32 487 361 C487.66 361 488.32 361 489 361 C492.17183589 366.20786848 492.50733348 370.39236638 492.4375 376.3125 C492.43427734 377.15466064 492.43105469 377.99682129 492.42773438 378.86450195 C492.28763983 385.09327445 491.26013293 389.60040484 488 395 C485.03 395 482.06 395 479 395 C479 394.34 479 393.68 479 393 C478.01 393 477.02 393 476 393 C476 392.34 476 391.68 476 391 C475.01 391 474.02 391 473 391 C473 390.34 473 389.68 473 389 C472.34 389 471.68 389 471 389 C471 388.34 471 387.68 471 387 C469.02 386.67 467.04 386.34 465 386 C464.896875 385.360625 464.79375 384.72125 464.6875 384.0625 C464.3471875 383.0415625 464.3471875 383.0415625 464 382 C463.01 381.67 462.02 381.34 461 381 C461 380.34 461 379.68 461 379 C460.01 379 459.02 379 458 379 C458 378.01 458 377.02 458 376 C456.35 375.67 454.7 375.34 453 375 C453 374.34 453 373.68 453 373 C451.02 372.67 449.04 372.34 447 372 C447 371.01 447 370.02 447 369 C446.34 369 445.68 369 445 369 C445 368.34 445 367.68 445 367 C443.35 366.67 441.7 366.34 440 366 C440 365.01 440 364.02 440 363 C439.01 363 438.02 363 437 363 C437 362.34 437 361.68 437 361 C436.01 361 435.02 361 434 361 C434 360.34 434 359.68 434 359 C432.35 358.67 430.7 358.34 429 358 C429 357.34 429 356.68 429 356 C428.01 356 427.02 356 426 356 C426 355.01 426 354.02 426 353 C424.02 352.67 422.04 352.34 420 352 C420 351.34 420 350.68 420 350 C418.68 349.67 417.36 349.34 416 349 C416 348.01 416 347.02 416 346 C415.34 346 414.68 346 414 346 C414 345.34 414 344.68 414 344 C412.35 343.67 410.7 343.34 409 343 C409 341.68 409 340.36 409 339 C407.35 338.67 405.7 338.34 404 338 C404 337.34 404 336.68 404 336 C402.68 336 401.36 336 400 336 C400 335.34 400 334.68 400 334 C399.01 334 398.02 334 397 334 C397 333.34 397 332.68 397 332 C396.01 332 395.02 332 394 332 C394 331.34 394 330.68 394 330 C392.68 329.67 391.36 329.34 390 329 C390 328.34 390 327.68 390 327 C389.01 327 388.02 327 387 327 C387 326.01 387 325.02 387 324 C385.35 323.67 383.7 323.34 382 323 C382 322.34 382 321.68 382 321 C381.01 321 380.02 321 379 321 C379 320.34 379 319.68 379 319 C378.34 319 377.68 319 377 319 C377 318.01 377 317.02 377 316 C376.01 316 375.02 316 374 316 C374 315.34 374 314.68 374 314 C372.35 313.67 370.7 313.34 369 313 C369 312.01 369 311.02 369 310 C367.68 309.67 366.36 309.34 365 309 C365 308.34 365 307.68 365 307 C363.35 307 361.7 307 360 307 C360 306.34 360 305.68 360 305 C359.34 305 358.68 305 358 305 C358 304.34 358 303.68 358 303 C357.01 303 356.02 303 355 303 C355 302.34 355 301.68 355 301 C353.35 300.67 351.7 300.34 350 300 C350 299.01 350 298.02 350 297 C349.01 297 348.02 297 347 297 C347 296.01 347 295.02 347 294 C345.35 293.67 343.7 293.34 342 293 C342 292.34 342 291.68 342 291 C340.35 290.67 338.7 290.34 337 290 C337 289.01 337 288.02 337 287 C336.01 287 335.02 287 334 287 C334 286.34 334 285.68 334 285 C332.35 284.67 330.7 284.34 329 284 C329 283.01 329 282.02 329 281 C327.35 280.67 325.7 280.34 324 280 C324 279.34 324 278.68 324 278 C322.68 278 321.36 278 320 278 C320 277.01 320 276.02 320 275 C319.01 275 318.02 275 317 275 C316.67 273.68 316.34 272.36 316 271 C314.02 270.67 312.04 270.34 310 270 C310 269.34 310 268.68 310 268 C309.01 268 308.02 268 307 268 C307 267.01 307 266.02 307 265 C305.35 264.67 303.7 264.34 302 264 C302 263.34 302 262.68 302 262 C300.35 261.67 298.7 261.34 297 261 C297 260.01 297 259.02 297 258 C296.01 258 295.02 258 294 258 C294 257.34 294 256.68 294 256 C293.34 256 292.68 256 292 256 C292 255.34 292 254.68 292 254 C291.34 254 290.68 254 290 254 C290 253.01 290 252.02 290 251 C288.35 250.67 286.7 250.34 285 250 C285 249.34 285 248.68 285 248 C282.69 247.67 280.38 247.34 278 247 C278 246.01 278 245.02 278 244 C277.01 244 276.02 244 275 244 C275 243.34 275 242.68 275 242 C273.35 241.67 271.7 241.34 270 241 C270 240.34 270 239.68 270 239 C269.01 239 268.02 239 267 239 C267 238.34 267 237.68 267 237 C266.34 237 265.68 237 265 237 C265 236.34 265 235.68 265 235 C264.01 235 263.02 235 262 235 C262 234.01 262 233.02 262 232 C260.35 231.67 258.7 231.34 257 231 C257 230.01 257 229.02 257 228 C255.35 227.67 253.7 227.34 252 227 C252 226.34 252 225.68 252 225 C251.01 225 250.02 225 249 225 C249 224.01 249 223.02 249 222 C247.35 221.67 245.7 221.34 244 221 C244 220.34 244 219.68 244 219 C242.35 218.67 240.7 218.34 239 218 C239 217.01 239 216.02 239 215 C238.01 215 237.02 215 236 215 C236 214.34 236 213.68 236 213 C234.35 212.67 232.7 212.34 231 212 C231 211.01 231 210.02 231 209 C230.01 209 229.02 209 228 209 C228 208.34 228 207.68 228 207 C227.34 207 226.68 207 226 207 C226 206.34 226 205.68 226 205 C225.01 205 224.02 205 223 205 C223 204.34 223 203.68 223 203 C221.68 202.67 220.36 202.34 219 202 C219 201.01 219 200.02 219 199 C217.02 198.67 215.04 198.34 213 198 C213 197.34 213 196.68 213 196 C212.01 196 211.02 196 210 196 C210 195.34 210 194.68 210 194 C209.34 194 208.68 194 208 194 C208 193.34 208 192.68 208 192 C207.01 192 206.02 192 205 192 C205 191.01 205 190.02 205 189 C203.02 188.67 201.04 188.34 199 188 C199 187.34 199 186.68 199 186 C198.01 186 197.02 186 196 186 C196 185.01 196 184.02 196 183 C194.35 182.67 192.7 182.34 191 182 C191 181.34 191 180.68 191 180 C189.35 179.67 187.7 179.34 186 179 C186 178.01 186 177.02 186 176 C185.01 176 184.02 176 183 176 C183 175.34 183 174.68 183 174 C181.35 173.67 179.7 173.34 178 173 C178 172.01 178 171.02 178 170 C176.35 169.67 174.7 169.34 173 169 C173 168.01 173 167.02 173 166 C172.01 166 171.02 166 170 166 C169.67 164.68 169.34 163.36 169 162 C167.68 162 166.36 162 165 162 C165 161.34 165 160.68 165 160 C163.02 159.67 161.04 159.34 159 159 C159 158.34 159 157.68 159 157 C158.01 157 157.02 157 156 157 C156 156.01 156 155.02 156 154 C154.35 153.67 152.7 153.34 151 153 C151 152.34 151 151.68 151 151 C149.35 150.67 147.7 150.34 146 150 C146 149.01 146 148.02 146 147 C145.34 147 144.68 147 144 147 C144 146.34 144 145.68 144 145 C143.01 145 142.02 145 141 145 C141 144.34 141 143.68 141 143 C140.01 143 139.02 143 138 143 C138 142.01 138 141.02 138 140 C136.35 139.67 134.7 139.34 133 139 C133 138.34 133 137.68 133 137 C131.35 136.67 129.7 136.34 128 136 C128 135.01 128 134.02 128 133 C127.01 133 126.02 133 125 133 C125 132.34 125 131.68 125 131 C123.02 130.67 121.04 130.34 119 130 C119 129.34 119 128.68 119 128 C118.34 128 117.68 128 117 128 C117 127.34 117 126.68 117 126 C116.01 126 115.02 126 114 126 C114 125.01 114 124.02 114 123 C113.01 123 112.02 123 111 123 C111 122.34 111 121.68 111 121 C109.35 120.67 107.7 120.34 106 120 C106 119.01 106 118.02 106 117 C104.35 116.67 102.7 116.34 101 116 C101 115.34 101 114.68 101 114 C100.01 114 99.02 114 98 114 C98 113.01 98 112.02 98 111 C96.02 110.505 96.02 110.505 94 110 C94 109.34 94 108.68 94 108 C92.02 107.67 90.04 107.34 88 107 C88 106.01 88 105.02 88 104 C87.01 104 86.02 104 85 104 C85 103.01 85 102.02 85 101 C83.02 100.67 81.04 100.34 79 100 C79 99.34 79 98.68 79 98 C78.01 98 77.02 98 76 98 C76 97.34 76 96.68 76 96 C75.34 96 74.68 96 74 96 C74 95.34 74 94.68 74 94 C73.01 94 72.02 94 71 94 C69 91 69 91 69 88 C66.69 87.67 64.38 87.34 62 87 C62 86.34 62 85.68 62 85 C61.01 85 60.02 85 59 85 C59 84.01 59 83.02 59 82 C58.34 82 57.68 82 57 82 C57 81.34 57 80.68 57 80 C56.01 80 55.02 80 54 80 C54 79.34 54 78.68 54 78 C52.35 77.67 50.7 77.34 49 77 C49 76.01 49 75.02 49 74 C48.01 74 47.02 74 46 74 C45.67 73.34 45.34 72.68 45 72 C42.97536745 71.34786708 42.97536745 71.34786708 41 71 C41 70.34 41 69.68 41 69 C40.01 69 39.02 69 38 69 C38 68.34 38 67.68 38 67 C37.01 67 36.02 67 35 67 C35 66.34 35 65.68 35 65 C34.01 65 33.02 65 32 65 C32 64.34 32 63.68 32 63 C30.35 62.67 28.7 62.34 27 62 C27 60.68 27 59.36 27 58 C25.35 57.67 23.7 57.34 22 57 C22 56.34 22 55.68 22 55 C21.34 55 20.68 55 20 55 C20 54.01 20 53.02 20 52 C18.68 51.67 17.36 51.34 16 51 C16 50.34 16 49.68 16 49 C12.535 48.505 12.535 48.505 9 48 C9 47.01 9 46.02 9 45 C8.01 45 7.02 45 6 45 C6 44.34 6 43.68 6 43 C4.02 42.67 2.04 42.34 0 42 C0 41.34 0 40.68 0 40 C-0.99 40 -1.98 40 -3 40 C-3.33 38.35 -3.66 36.7 -4 35 C-4.7425 35 -5.485 35 -6.25 35 C-9.46806823 33.82979337 -9.70034458 33.2587513 -11.1875 30.3125 C-13.82740282 24.52718106 -15.29144627 19.40033267 -15.3125 13 C-15.32925781 11.824375 -15.34601562 10.64875 -15.36328125 9.4375 C-14.96280425 5.64804024 -13.97954097 3.23662173 -12 0 C-8.1768416 -1.9115792 -3.94551835 -1.31517278 0 0 Z " transform="translate(36,41)" style="fill: #1B3455;"/></svg>