<svg id="svg" version="1.1" xmlns="http://www.w3.org/2000/svg" viewBox="0 0 676 661" style="display: block;"><path d="M0 0 C223.08 0 446.16 0 676 0 C676 218.13 676 436.26 676 661 C452.92 661 229.84 661 0 661 C0 442.87 0 224.74 0 0 Z " transform="translate(0,0)" style="fill: #FEFEFE;"/><path d="M0 0 C1.11314575 0.00845947 1.11314575 0.00845947 2.2487793 0.01708984 C26.37944487 0.54116193 41.59422682 14.71460849 57.73046875 30.83203125 C59.04448213 32.1396006 60.3586379 33.44702688 61.67292786 34.75431824 C64.41204176 37.48152988 67.14706589 40.21276842 69.87963867 42.9465332 C73.35918935 46.42628733 76.8523193 49.89205511 80.34911633 53.35446644 C83.06283953 56.04582145 85.76729127 58.7463512 88.46932411 61.4494381 C89.7525441 62.73031936 91.03895854 64.00800955 92.32878685 65.2822361 C105.66313403 78.47021518 116.97611885 92.99831234 117.20483398 112.56787109 C117.14839034 120.89450091 117.0930124 128.50065829 113.875 136.3125 C113.45734375 137.38242188 113.0396875 138.45234375 112.609375 139.5546875 C109.62001954 146.33357942 106.12057862 151.55107076 101.0252533 156.84754944 C100.42389366 157.48178489 99.82253403 158.11602034 99.20295137 158.76947504 C90.26599282 168.13033076 81.0710635 177.24276162 71.90780699 186.38109958 C69.10779626 189.17464564 66.31077457 191.9711819 63.51338196 194.76734924 C58.68172193 199.59614302 53.8482965 204.42316359 49.01367378 209.24899101 C42.01577051 216.23425764 35.02118054 223.22283476 28.02745127 230.21228016 C16.66565484 241.56703392 5.3019896 252.91991527 -6.06323242 264.27124023 C-6.74132063 264.94850063 -7.41940883 265.62576102 -8.11804516 266.32354445 C-12.9328147 271.13241177 -17.74765113 275.94121211 -22.5625 280.75 C-28.07483757 286.25540325 -33.58714058 291.76084111 -39.09936523 297.26635742 C-39.77873827 297.94490233 -40.4581113 298.62344723 -41.15807139 299.3225541 C-52.4932226 310.644011 -63.82640324 321.96743854 -75.15818554 333.29226738 C-82.13433309 340.2639431 -89.11224965 347.23383912 -96.09248502 354.20142204 C-100.87088013 358.97137958 -105.64749604 363.74311385 -110.4227271 368.51623892 C-113.17474303 371.266913 -115.92757527 374.01675697 -118.68263245 376.76438522 C-121.20796731 379.28293627 -123.73094736 381.80382226 -126.25213564 384.32652403 C-127.58870016 385.6626917 -128.92773774 386.99638419 -130.26688379 388.32996458 C-134.50785281 392.57816074 -138.57628298 396.90100852 -142.49116749 401.45075697 C-145.12419932 404.45108205 -147.93312335 407.26533426 -150.75697327 410.08491516 C-151.70055377 411.03295235 -151.70055377 411.03295235 -152.6631965 412.0001418 C-154.74846007 414.09400028 -156.83721039 416.18434305 -158.92602539 418.2746582 C-160.43160731 419.78487483 -161.93699352 421.29528657 -163.44219971 422.80587769 C-167.51651156 426.89325268 -171.59410394 430.97733895 -175.67272496 435.0604136 C-178.22633507 437.61696431 -180.77936107 440.17409693 -183.33221245 442.73140526 C-191.33575753 450.74860927 -199.3412923 458.76381853 -207.34973532 466.77613002 C-216.56439543 475.99526698 -225.77248808 485.2208971 -234.97488219 494.45227748 C-242.10870306 501.60778042 -249.24834201 508.75744447 -256.39234537 515.90278119 C-260.64964908 520.16112825 -264.90453576 524.42182235 -269.153368 528.68862343 C-273.15471782 532.70656707 -277.16330973 536.71714686 -281.17732239 540.72243881 C-282.63988923 542.18424131 -284.09994932 543.64855742 -285.55714226 545.11571693 C-301.93660115 561.60051094 -319.08636693 574.33135525 -340.125 584.3125 C-341.053125 584.76496094 -341.98125 585.21742188 -342.9375 585.68359375 C-351.84463356 589.72626597 -361.36875195 591.98159365 -370.77734375 594.546875 C-376.31431868 596.06594902 -381.78782157 597.73277476 -387.25 599.5 C-393.88228844 601.64139467 -400.54045019 603.51341087 -407.2890625 605.26171875 C-411.56804585 606.43386388 -415.77868808 607.76260334 -420 609.125 C-428.55327244 611.88230493 -437.18018101 614.31125021 -445.84277344 616.69970703 C-453.14202582 618.72453802 -460.36461518 620.92357248 -467.57275391 623.24951172 C-473.54317557 625.16382098 -479.54711343 626.80774056 -485.62109375 628.3671875 C-489.14669552 629.31835319 -492.59361084 630.42346177 -496.0625 631.5625 C-501.0353657 633.10201125 -504.94582238 634.06583493 -510.125 633.3125 C-512.5 631.5625 -512.5 631.5625 -514.125 629.3125 C-514.558125 628.714375 -514.99125 628.11625 -515.4375 627.5 C-517.44693838 621.10633242 -513.69533522 612.72828637 -511.9375 606.5625 C-511.62578857 605.45793457 -511.31407715 604.35336914 -510.99291992 603.21533203 C-508.85864878 595.71531143 -506.57682801 588.27351116 -504.18481445 580.85229492 C-502.3177004 575.02797638 -500.71851409 569.15831246 -499.1796875 563.23828125 C-496.17959453 551.88412824 -492.57561171 540.68315129 -489 529.5 C-486.84801206 522.76799943 -484.95273392 516.00714247 -483.1796875 509.1640625 C-481.76195584 503.9867165 -480.12438173 498.88995978 -478.47216797 493.78344727 C-477.11780051 489.56569247 -475.83905227 485.3443913 -474.6875 481.06640625 C-468.72101246 458.90196468 -459.45472432 439.36069709 -445.125 421.3125 C-444.39120117 420.32382935 -444.39120117 420.32382935 -443.64257812 419.31518555 C-437.42022212 411.15135133 -430.13820747 404.05828684 -422.86181641 396.84350586 C-420.62472566 394.6247279 -418.39579754 392.39799564 -416.16796875 390.16992188 C-414.72703375 388.73390198 -413.28564286 387.29833937 -411.84375 385.86328125 C-411.188302 385.20894608 -410.532854 384.5546109 -409.85754395 383.88044739 C-406.89436396 380.94707328 -403.90873911 378.10139799 -400.72167969 375.41215515 C-394.44044431 369.93584084 -388.64442787 363.95446592 -382.76757812 358.05273438 C-381.42986531 356.71309965 -380.09192262 355.37369445 -378.75376892 354.03450012 C-375.88501889 351.16260201 -373.01782678 348.28916088 -370.15184021 345.414505 C-365.61510342 340.86418648 -361.07450183 336.3177376 -356.5333252 331.77185059 C-346.89424713 322.12169681 -337.25940388 312.46732 -327.625 302.8125 C-317.22207344 292.38752875 -306.81841552 281.96329375 -296.40986013 271.54394197 C-291.90054984 267.02966493 -287.3936856 262.51296453 -282.88871002 257.99436188 C-280.08089308 255.17905861 -277.27098163 252.36585292 -274.46051216 249.55319786 C-273.16325331 248.25407522 -271.86685503 246.95409256 -270.57140923 245.653162 C-264.941258 239.99993599 -259.33005595 234.40046294 -253.25682831 229.21848297 C-247.87311835 224.40512185 -242.86194298 219.16866809 -237.76757812 214.05273438 C-236.42986531 212.71309965 -235.09192262 211.37369445 -233.75376892 210.03450012 C-230.88501889 207.16260201 -228.01782678 204.28916088 -225.15184021 201.414505 C-220.61510342 196.86418648 -216.07450183 192.3177376 -211.5333252 187.77185059 C-201.89424713 178.12169681 -192.25940388 168.46732 -182.625 158.8125 C-172.22207344 148.38752875 -161.81841552 137.96329375 -151.40986013 127.54394197 C-146.90054984 123.02966493 -142.3936856 118.51296453 -137.88871002 113.99436188 C-135.08089308 111.17905861 -132.27098163 108.36585292 -129.46051216 105.55319786 C-128.16325331 104.25407522 -126.86685503 102.95409256 -125.57140923 101.653162 C-119.81245824 95.87060834 -114.08571064 90.13382992 -107.87113762 84.83572769 C-104.79372509 82.15117412 -101.95156805 79.23656452 -99.08911133 76.32666016 C-98.43582855 75.66709824 -97.78254578 75.00753632 -97.10946655 74.32798767 C-95.70458199 72.90935897 -94.30078501 71.48965253 -92.89798927 70.06895828 C-90.66680007 67.81084586 -88.43102108 65.55737459 -86.19377136 63.30526733 C-79.83730673 56.90634445 -73.48348113 50.50488311 -67.14624023 44.08691406 C-63.25546419 40.14724988 -59.35467884 36.21773291 -55.44745445 32.294384 C-53.97238871 30.80950941 -52.50096132 29.32101018 -51.03348732 27.82863235 C-29.34318294 5.77849833 -29.34318294 5.77849833 -15.125 2.3125 C-14.0525 1.96703125 -12.98 1.6215625 -11.875 1.265625 C-7.85552906 0.24400947 -4.11809724 -0.03310748 0 0 Z " transform="translate(549.125,8.6875)" style="fill: #EC1D25;"/><path d="M0 0 C1.11314575 0.00845947 1.11314575 0.00845947 2.2487793 0.01708984 C26.37944487 0.54116193 41.59422682 14.71460849 57.73046875 30.83203125 C59.04448213 32.1396006 60.3586379 33.44702688 61.67292786 34.75431824 C64.41204176 37.48152988 67.14706589 40.21276842 69.87963867 42.9465332 C73.35918935 46.42628733 76.8523193 49.89205511 80.34911633 53.35446644 C83.06283953 56.04582145 85.76729127 58.7463512 88.46932411 61.4494381 C89.7525441 62.73031936 91.03895854 64.00800955 92.32878685 65.2822361 C105.66313403 78.47021518 116.97611885 92.99831234 117.20483398 112.56787109 C117.14839034 120.89450091 117.0930124 128.50065829 113.875 136.3125 C113.45734375 137.38242188 113.0396875 138.45234375 112.609375 139.5546875 C109.62001954 146.33357942 106.12057862 151.55107076 101.0252533 156.84754944 C100.42389366 157.48178489 99.82253403 158.11602034 99.20295137 158.76947504 C90.26599282 168.13033076 81.0710635 177.24276162 71.90780699 186.38109958 C69.10779626 189.17464564 66.31077457 191.9711819 63.51338196 194.76734924 C58.68172193 199.59614302 53.8482965 204.42316359 49.01367378 209.24899101 C42.01577051 216.23425764 35.02118054 223.22283476 28.02745127 230.21228016 C16.66565484 241.56703392 5.3019896 252.91991527 -6.06323242 264.27124023 C-6.74132063 264.94850063 -7.41940883 265.62576102 -8.11804516 266.32354445 C-12.9328147 271.13241177 -17.74765113 275.94121211 -22.5625 280.75 C-28.07483757 286.25540325 -33.58714058 291.76084111 -39.09936523 297.26635742 C-39.77873827 297.94490233 -40.4581113 298.62344723 -41.15807139 299.3225541 C-52.4932226 310.644011 -63.82640324 321.96743854 -75.15818554 333.29226738 C-82.13433309 340.2639431 -89.11224965 347.23383912 -96.09248502 354.20142204 C-100.87088013 358.97137958 -105.64749604 363.74311385 -110.4227271 368.51623892 C-113.17474303 371.266913 -115.92757527 374.01675697 -118.68263245 376.76438522 C-121.20796731 379.28293627 -123.73094736 381.80382226 -126.25213564 384.32652403 C-127.58870016 385.6626917 -128.92773774 386.99638419 -130.26688379 388.32996458 C-134.50785281 392.57816074 -138.57628298 396.90100852 -142.49116749 401.45075697 C-145.12419932 404.45108205 -147.93312335 407.26533426 -150.75697327 410.08491516 C-151.70055377 411.03295235 -151.70055377 411.03295235 -152.6631965 412.0001418 C-154.74846007 414.09400028 -156.83721039 416.18434305 -158.92602539 418.2746582 C-160.43160731 419.78487483 -161.93699352 421.29528657 -163.44219971 422.80587769 C-167.51651156 426.89325268 -171.59410394 430.97733895 -175.67272496 435.0604136 C-178.22633507 437.61696431 -180.77936107 440.17409693 -183.33221245 442.73140526 C-191.33575753 450.74860927 -199.3412923 458.76381853 -207.34973532 466.77613002 C-216.56439543 475.99526698 -225.77248808 485.2208971 -234.97488219 494.45227748 C-242.10870306 501.60778042 -249.24834201 508.75744447 -256.39234537 515.90278119 C-260.64964908 520.16112825 -264.90453576 524.42182235 -269.153368 528.68862343 C-273.15471782 532.70656707 -277.16330973 536.71714686 -281.17732239 540.72243881 C-282.63988923 542.18424131 -284.09994932 543.64855742 -285.55714226 545.11571693 C-301.93660115 561.60051094 -319.08636693 574.33135525 -340.125 584.3125 C-341.053125 584.76496094 -341.98125 585.21742188 -342.9375 585.68359375 C-351.84463356 589.72626597 -361.36875195 591.98159365 -370.77734375 594.546875 C-376.31431868 596.06594902 -381.78782157 597.73277476 -387.25 599.5 C-393.88228844 601.64139467 -400.54045019 603.51341087 -407.2890625 605.26171875 C-411.56804585 606.43386388 -415.77868808 607.76260334 -420 609.125 C-428.55327244 611.88230493 -437.18018101 614.31125021 -445.84277344 616.69970703 C-453.14202582 618.72453802 -460.36461518 620.92357248 -467.57275391 623.24951172 C-473.54317557 625.16382098 -479.54711343 626.80774056 -485.62109375 628.3671875 C-489.14669552 629.31835319 -492.59361084 630.42346177 -496.0625 631.5625 C-501.0353657 633.10201125 -504.94582238 634.06583493 -510.125 633.3125 C-512.5 631.5625 -512.5 631.5625 -514.125 629.3125 C-514.558125 628.714375 -514.99125 628.11625 -515.4375 627.5 C-517.44693838 621.10633242 -513.69533522 612.72828637 -511.9375 606.5625 C-511.62578857 605.45793457 -511.31407715 604.35336914 -510.99291992 603.21533203 C-508.85864878 595.71531143 -506.57682801 588.27351116 -504.18481445 580.85229492 C-502.3177004 575.02797638 -500.71851409 569.15831246 -499.1796875 563.23828125 C-496.17959453 551.88412824 -492.57561171 540.68315129 -489 529.5 C-486.84801206 522.76799943 -484.95273392 516.00714247 -483.1796875 509.1640625 C-481.76195584 503.9867165 -480.12438173 498.88995978 -478.47216797 493.78344727 C-477.11780051 489.56569247 -475.83905227 485.3443913 -474.6875 481.06640625 C-468.72101246 458.90196468 -459.45472432 439.36069709 -445.125 421.3125 C-444.39120117 420.32382935 -444.39120117 420.32382935 -443.64257812 419.31518555 C-437.42022212 411.15135133 -430.13820747 404.05828684 -422.86181641 396.84350586 C-420.62472566 394.6247279 -418.39579754 392.39799564 -416.16796875 390.16992188 C-414.72703375 388.73390198 -413.28564286 387.29833937 -411.84375 385.86328125 C-411.188302 385.20894608 -410.532854 384.5546109 -409.85754395 383.88044739 C-406.89436396 380.94707328 -403.90873911 378.10139799 -400.72167969 375.41215515 C-394.44044431 369.93584084 -388.64442787 363.95446592 -382.76757812 358.05273438 C-381.42986531 356.71309965 -380.09192262 355.37369445 -378.75376892 354.03450012 C-375.88501889 351.16260201 -373.01782678 348.28916088 -370.15184021 345.414505 C-365.61510342 340.86418648 -361.07450183 336.3177376 -356.5333252 331.77185059 C-346.89424713 322.12169681 -337.25940388 312.46732 -327.625 302.8125 C-317.22207344 292.38752875 -306.81841552 281.96329375 -296.40986013 271.54394197 C-291.90054984 267.02966493 -287.3936856 262.51296453 -282.88871002 257.99436188 C-280.08089308 255.17905861 -277.27098163 252.36585292 -274.46051216 249.55319786 C-273.16325331 248.25407522 -271.86685503 246.95409256 -270.57140923 245.653162 C-264.941258 239.99993599 -259.33005595 234.40046294 -253.25682831 229.21848297 C-247.87311835 224.40512185 -242.86194298 219.16866809 -237.76757812 214.05273438 C-236.42986531 212.71309965 -235.09192262 211.37369445 -233.75376892 210.03450012 C-230.88501889 207.16260201 -228.01782678 204.28916088 -225.15184021 201.414505 C-220.61510342 196.86418648 -216.07450183 192.3177376 -211.5333252 187.77185059 C-201.89424713 178.12169681 -192.25940388 168.46732 -182.625 158.8125 C-172.22207344 148.38752875 -161.81841552 137.96329375 -151.40986013 127.54394197 C-146.90054984 123.02966493 -142.3936856 118.51296453 -137.88871002 113.99436188 C-135.08089308 111.17905861 -132.27098163 108.36585292 -129.46051216 105.55319786 C-128.16325331 104.25407522 -126.86685503 102.95409256 -125.57140923 101.653162 C-119.81245824 95.87060834 -114.08571064 90.13382992 -107.87113762 84.83572769 C-104.79372509 82.15117412 -101.95156805 79.23656452 -99.08911133 76.32666016 C-98.43582855 75.66709824 -97.78254578 75.00753632 -97.10946655 74.32798767 C-95.70458199 72.90935897 -94.30078501 71.48965253 -92.89798927 70.06895828 C-90.66680007 67.81084586 -88.43102108 65.55737459 -86.19377136 63.30526733 C-79.83730673 56.90634445 -73.48348113 50.50488311 -67.14624023 44.08691406 C-63.25546419 40.14724988 -59.35467884 36.21773291 -55.44745445 32.294384 C-53.97238871 30.80950941 -52.50096132 29.32101018 -51.03348732 27.82863235 C-29.34318294 5.77849833 -29.34318294 5.77849833 -15.125 2.3125 C-14.0525 1.96703125 -12.98 1.6215625 -11.875 1.265625 C-7.85552906 0.24400947 -4.11809724 -0.03310748 0 0 Z M-129.08754158 132.99542618 C-129.85583639 133.75486672 -129.85583639 133.75486672 -130.63965231 134.5296495 C-132.37476576 136.24727802 -134.10260396 137.9720486 -135.83059692 139.69683838 C-137.07760266 140.93438913 -138.32502978 142.1715154 -139.57284439 143.40825057 C-143.01622254 146.82372989 -146.45319312 150.24559549 -149.88911414 153.66857433 C-152.83316574 156.59990911 -155.78091321 159.52751279 -158.72872581 162.45506468 C-168.44374754 172.10334231 -178.14689123 181.76351942 -187.84692413 191.42686331 C-190.3718945 193.94224845 -192.89705543 196.45744214 -195.42226171 198.97259045 C-211.09332875 214.58171532 -226.76012244 230.19512083 -242.41699409 245.81848526 C-246.04600395 249.4395957 -249.67506699 253.06065282 -253.30419922 256.68164062 C-254.20623388 257.58165856 -255.10826853 258.4816765 -256.03763758 259.4089677 C-270.65202971 273.98934328 -285.2903525 288.54544921 -299.93850423 303.09189966 C-314.96749484 318.01739806 -329.97379656 332.96541093 -344.95838821 347.9354856 C-353.37611959 356.3438843 -361.80370071 364.74187839 -370.25696182 373.11457062 C-377.45623341 380.24530959 -384.63489829 387.3960004 -391.78730334 394.57376042 C-395.43809004 398.23621764 -399.09795056 401.88821552 -402.78454208 405.51465988 C-406.15993027 408.8354237 -409.50641192 412.18272108 -412.83209895 415.55323765 C-414.03958847 416.76718596 -415.2572993 417.97107038 -416.48600043 419.16354468 C-423.19570532 425.42451926 -423.19570532 425.42451926 -426.8327024 433.60350919 C-426.85807437 436.61444387 -426.60768147 439.34564116 -426.125 442.3125 C-426.01057837 443.9695402 -425.90710256 445.62742606 -425.82128906 447.28619385 C-425.68292816 448.92854641 -425.5391968 450.5704537 -425.390625 452.21191406 C-425.31259644 453.12074844 -425.23456787 454.02958282 -425.1541748 454.96595764 C-424.89931451 457.92045909 -424.63723694 460.87426999 -424.375 463.828125 C-424.19518812 465.89601806 -424.01583361 467.96395093 -423.83691406 470.03192139 C-423.36799469 475.43759975 -422.89292013 480.84271959 -422.41650391 486.2477417 C-421.93015613 491.77811468 -421.44971136 497.3090002 -420.96875 502.83984375 C-420.02656689 513.66456838 -419.07787179 524.4887114 -418.125 535.3125 C-398.65326189 537.33823012 -379.17523604 539.13432441 -359.65942383 540.67504883 C-356.1994366 540.94841265 -352.74011317 541.22941916 -349.28088284 541.51217937 C-345.8946596 541.78758199 -342.50784993 542.05545009 -339.12109375 542.32421875 C-337.904254 542.42417648 -336.68741425 542.52413422 -335.43370056 542.62712097 C-334.27020584 542.71754166 -333.10671112 542.80796234 -331.90795898 542.90112305 C-330.90812485 542.9808989 -329.90829071 543.06067474 -328.87815857 543.14286804 C-327.63961624 543.19884659 -326.40107391 543.25482513 -325.125 543.3125 C-323.64911659 543.46487342 -323.64911659 543.46487342 -322.14341736 543.62032509 C-316.07683164 544.02018817 -312.02361889 543.962798 -307.23001099 539.98754883 C-305.65030626 538.44817278 -304.10520356 536.87274985 -302.59033203 535.26953125 C-301.73160995 534.41431381 -300.87288788 533.55909637 -299.98814392 532.67796326 C-297.6560693 530.34262507 -295.35528967 527.98114249 -293.06571054 525.60426331 C-290.65136952 523.1117998 -288.20000756 520.65626759 -285.75265503 518.19628906 C-281.12348376 513.53196234 -276.52880588 508.83513286 -271.94549453 504.12578392 C-266.75311029 498.79425543 -261.52086346 493.50259868 -256.28594804 488.21288109 C-248.12589151 479.96414524 -239.986766 471.6949823 -231.88330078 463.390625 C-231.09667557 462.58717148 -230.31005035 461.78371796 -229.49958801 460.95591736 C-228.75989273 460.19606033 -228.02019745 459.43620331 -227.25808716 458.65332031 C-226.62510775 458.00437805 -225.99212833 457.35543579 -225.33996773 456.68682861 C-223.47637255 454.68915284 -221.68868194 452.65649302 -219.90570545 450.58773804 C-215.95654284 446.05582155 -211.75776564 441.80905706 -207.50062561 437.56787109 C-206.2359618 436.30192564 -206.2359618 436.30192564 -204.94574922 435.01040554 C-202.62604334 432.68934585 -200.30412845 430.37052366 -197.98122776 428.05266213 C-195.46893942 425.54471733 -192.95956755 423.03385725 -190.4498291 420.52336121 C-186.10809399 416.18110332 -181.76454078 411.84067109 -177.41972542 407.50149536 C-171.13795751 401.22787596 -164.8589731 394.95147669 -158.5806511 388.67440903 C-148.39288237 378.48882557 -138.20288538 368.30547439 -128.01147461 358.12353516 C-118.11511652 348.2363648 -108.21981576 338.34813821 -98.32592773 328.45849609 C-97.71543271 327.84826379 -97.10493768 327.23803148 -96.4759428 326.60930729 C-93.4130854 323.54775499 -90.35024871 320.48618199 -87.2874223 317.42459869 C-61.90315593 292.05068856 -36.51526797 266.68040459 -11.125 241.3125 C-12.79275243 237.77635985 -14.7132673 235.47288486 -17.4901123 232.69342041 C-18.40711411 231.77077896 -19.32411591 230.84813751 -20.26890564 229.89753723 C-21.28789411 228.88243717 -22.30698634 227.86744126 -23.32617188 226.85253906 C-24.39751521 225.77848527 -25.46843268 224.70400656 -26.53895569 223.62913513 C-29.44536222 220.71361109 -32.35805936 217.80444854 -35.27219582 214.89665318 C-38.31853113 211.85537851 -41.35998704 208.80923056 -44.40222168 205.76385498 C-49.50983392 200.6526044 -54.62164864 195.5455852 -59.73583984 190.44091797 C-65.65517788 184.53247585 -71.56726064 178.61684734 -77.4756484 172.6974566 C-82.54461487 167.61942739 -87.61745195 162.54528957 -92.69357157 157.47441077 C-95.72723246 154.44387367 -98.75951216 151.41198781 -101.78831482 148.37659454 C-104.63358705 145.52556379 -107.48367112 142.67943417 -110.33761406 139.83708382 C-111.38668511 138.79066688 -112.43404018 137.74252649 -113.47958565 136.6925869 C-114.90174487 135.2650008 -116.33062417 133.84411843 -117.7598877 132.42364502 C-118.55924995 131.62503681 -119.35861221 130.8264286 -120.18219757 130.00362015 C-124.19873139 126.50741221 -125.88799427 129.81593328 -129.08754158 132.99542618 Z " transform="translate(549.125,8.6875)" style="fill: #1B3455;"/><path d="M0 0 C4.51913294 4.20737639 8.88954082 8.55882531 13.2578125 12.921875 C14.53223734 14.18986015 15.80680658 15.45770019 17.08151245 16.72540283 C19.74262943 19.37459588 22.39963293 22.02783759 25.05419922 24.68359375 C28.43750236 28.06710014 31.83436299 31.43662941 35.23492622 34.80277634 C37.86882743 37.41432351 40.49346999 40.03502954 43.11568832 42.65830231 C44.36345256 43.90372451 45.61441921 45.14594764 46.86877823 46.38472748 C57.37175838 56.76936351 66.77872587 67.32218315 67.375 82.875 C66.76852262 98.37656192 59.37677412 109.28397475 48.58618164 119.86791992 C47.7756131 120.67907257 46.96504456 121.49022522 46.12991333 122.32595825 C43.48270923 124.97040434 40.82168277 127.60044506 38.16015625 130.23046875 C36.30840521 132.07474933 34.45754284 133.91992258 32.60752869 135.76594543 C28.25606124 140.10505508 23.89451385 144.43387988 19.52911133 148.75896484 C14.55369792 153.6894345 9.58984238 158.6314726 4.62685215 163.57444227 C-5.56942246 173.72907591 -15.77990132 183.86934499 -26 194 C-32.16415313 188.90271127 -37.79193521 183.3433222 -43.43334961 177.68017578 C-44.4686367 176.64460615 -45.50414496 175.6092576 -46.53985596 174.57411194 C-49.33291752 171.78133572 -52.12289844 168.9855006 -54.91231227 166.18908167 C-57.83464239 163.26047421 -60.75982974 160.33472341 -63.68470764 157.40866089 C-69.21491743 151.87535066 -74.74257448 146.33949764 -80.26930577 140.80271327 C-86.56482362 134.49599423 -92.86320208 128.19213529 -99.16181552 121.88850808 C-112.11104948 108.92883889 -125.05670923 95.96560473 -138 83 C-136.66007857 80.22352142 -135.42340659 78.17869455 -133.22192383 76.01074219 C-132.66406693 75.45626404 -132.10621002 74.90178589 -131.53144836 74.33050537 C-130.92939072 73.74190735 -130.32733307 73.15330933 -129.70703125 72.546875 C-129.08277756 71.92782288 -128.45852386 71.30877075 -127.81535339 70.67095947 C-125.8191003 68.69248853 -123.816312 66.72081257 -121.8125 64.75 C-119.82736234 62.79267216 -117.8437716 60.83384057 -115.86320496 58.87188721 C-114.63274322 57.65347173 -113.39962165 56.43773379 -112.1632843 55.22528076 C-109.21470992 52.31027732 -106.39297286 49.34347365 -103.6875 46.20068359 C-99.35558817 41.18901519 -94.70623942 36.50644902 -90.04296875 31.8046875 C-89.34317115 31.09877661 -89.34317115 31.09877661 -88.62923622 30.37860489 C-86.16321497 27.8919009 -83.69405652 25.40836043 -81.22241211 22.92724609 C-78.69595157 20.38970503 -76.18140482 17.84068744 -73.6692915 15.28895378 C-71.71041057 13.30373711 -69.74251237 11.32764003 -67.77221107 9.35376358 C-66.39557726 7.97000363 -65.0285872 6.57667046 -63.66191101 5.18307495 C-44.82165967 -13.59290313 -21.27673934 -17.69161865 0 0 Z " transform="translate(579,41)" style="fill: #000000;"/><path d="M0 0 C0.33 0 0.66 0 1 0 C1.62000033 7.07845327 2.23747993 14.15712229 2.8521328 21.23604202 C3.1379191 24.52660306 3.42467267 27.81707244 3.71289062 31.10742188 C4.04765746 34.93081147 4.37979506 38.75441989 4.7109375 42.578125 C4.8218573 43.84893921 4.9327771 45.11975342 5.04705811 46.42907715 C5.6020859 52.90081798 6.10229105 59.37039298 6.50488281 65.85351562 C6.58517731 67.1154071 6.6654718 68.37729858 6.74819946 69.6774292 C6.89576829 72.05671277 7.03333261 74.43664745 7.15878296 76.81719971 C7.53089823 86.3334412 7.53089823 86.3334412 11 95 C14.06404163 96.26396346 15.8228228 96.72622131 19 97 C20.04997162 97.14115234 20.04997162 97.14115234 21.12115479 97.28515625 C23.35158677 97.57355175 25.58090057 97.79323173 27.8203125 98 C28.64143524 98.08121094 29.46255798 98.16242188 30.30856323 98.24609375 C32.91352891 98.50302966 35.51916008 98.75210144 38.125 99 C41.54466836 99.32935858 44.96392885 99.66259295 48.3828125 100 C49.21671005 100.08213745 50.0506076 100.1642749 50.90977478 100.24890137 C56.83300744 100.84663898 62.70794635 101.64825894 68.59570312 102.53125 C72.33101074 103.04557807 76.07057775 103.43375015 79.82421875 103.78125 C81.11908203 103.90113281 82.41394531 104.02101563 83.74804688 104.14453125 C85.74028178 104.32429662 87.73253659 104.50391716 89.7253418 104.67724609 C91.69647264 104.85025626 93.66662244 105.03433233 95.63671875 105.21875 C97.36474731 105.3724707 97.36474731 105.3724707 99.12768555 105.52929688 C102 106 102 106 105 108 C102.49468455 108.91987824 99.98705594 109.83259691 97.4765625 110.73828125 C95.11197248 111.59644145 92.75271966 112.46942113 90.3984375 113.35546875 C80.56290636 117.00249065 70.59315316 119.84217645 60.43725586 122.46411133 C54.14994506 124.09744901 48.00853467 125.95733159 41.8605957 128.05371094 C37.53604231 129.48427925 33.15331357 130.65222625 28.75 131.8125 C19.52604194 134.28037332 10.35702525 136.90733206 1.20800781 139.63989258 C-3.18832081 140.94140753 -7.59281525 142.21143235 -12.0390625 143.33203125 C-12.74369629 143.5122583 -13.44833008 143.69248535 -14.17431641 143.87817383 C-16 144 -16 144 -18.5625 141.9375 C-19.366875 140.968125 -20.17125 139.99875 -21 139 C-22.30536403 138.12350301 -23.64157919 137.29177973 -25 136.5 C-31.09746993 132.80247586 -34.87583687 128.96253469 -37 122 C-36.58316763 114.32310348 -34.17948129 107.10527144 -32.02734375 99.765625 C-31.62141051 98.36455738 -31.2160319 96.96332897 -30.81117249 95.56195068 C-29.7427402 91.86896804 -28.66718376 88.17809895 -27.58996582 84.4876709 C-26.31491138 80.11479475 -25.04818134 75.73950229 -23.78026772 71.36455154 C-22.73865067 67.77132143 -21.69528937 64.17861924 -20.64779663 60.58709717 C-18.65343395 53.74363009 -16.68148341 46.89544434 -14.77001953 40.02832031 C-14.41823135 38.7717865 -14.06644318 37.51525269 -13.70399475 36.22064209 C-13.05540159 33.89750945 -12.41292931 31.57265392 -11.77830505 29.2456665 C-8.91064572 19.00106705 -4.73155663 9.50692397 0 0 Z " transform="translate(105,464)" style="fill: #D8CE93;"/><path d="M0 0 C1.8125 0.0625 1.8125 0.0625 4 1 C5.05047644 3.31104818 6.05007438 5.64583651 7 8 C7.99 8.66 8.98 9.32 10 10 C10 10.66 10 11.32 10 12 C10.56203125 12.27070312 11.1240625 12.54140625 11.703125 12.8203125 C14.13290247 14.06825943 16.43955263 15.41775705 18.75 16.875 C19.54921875 17.36742187 20.3484375 17.85984375 21.171875 18.3671875 C21.77515625 18.90601563 22.3784375 19.44484375 23 20 C23 21.32 23 22.64 23 24 C22.29875 24.12375 21.5975 24.2475 20.875 24.375 C17.06407585 25.20346177 13.45850894 26.47338792 9.79296875 27.796875 C5.65484683 29.2517371 2.41985181 30.12628148 -2 30 C-2.680625 30.350625 -3.36125 30.70125 -4.0625 31.0625 C-6.49909608 32.2414981 -7.47647171 31.75023814 -10 31 C-9.12991944 17.76877489 -9.12991944 17.76877489 -4.375 13.5625 C-2.36670756 11.2803495 -2.50902306 8.87160462 -2.25 5.94140625 C-1.95552995 3.65466227 -1.21876101 1.95001762 0 0 Z " transform="translate(66,586)" style="fill: #000101;"/></svg>