<svg id="svg" version="1.1" xmlns="http://www.w3.org/2000/svg" viewBox="0 0 859 724" style="display: block;"><path d="M0 0 C283.47 0 566.94 0 859 0 C859 238.92 859 477.84 859 724 C575.53 724 292.06 724 0 724 C0 485.08 0 246.16 0 0 Z " transform="translate(0,0)" style="fill: #1A3354;"/><path d="M0 0 C1.59431586 -0.00262956 1.59431586 -0.00262956 3.22084013 -0.00531223 C6.7763938 -0.00995791 10.33190631 -0.00751042 13.88746166 -0.00507832 C16.46482778 -0.006947 19.04219361 -0.00924794 21.61955899 -0.01194364 C27.22027753 -0.01708596 32.82098744 -0.01851687 38.42170811 -0.01748753 C46.75041554 -0.01596056 55.07911343 -0.02012884 63.407819 -0.02536215 C79.1492459 -0.03502706 94.89066955 -0.03784606 110.63209907 -0.03841921 C122.7885013 -0.03887893 134.94490224 -0.04093821 147.10130405 -0.04411983 C150.60178461 -0.04501739 154.10226516 -0.0459072 157.60274571 -0.04679471 C158.47299646 -0.04701576 159.3432472 -0.04723681 160.23986918 -0.04746456 C184.71403813 -0.05361763 209.18820664 -0.05756523 233.6623764 -0.05712128 C234.58487607 -0.0571057 235.50737573 -0.05709012 236.45782993 -0.05707407 C241.13334145 -0.05699096 245.80885297 -0.05689192 250.48436449 -0.05678936 C251.87720198 -0.05675944 251.87720198 -0.05675944 253.2981776 -0.05672892 C255.17594773 -0.05668848 257.05371785 -0.05664669 258.93148798 -0.05660353 C288.14925465 -0.05599072 317.36700971 -0.06349888 346.58477306 -0.07717609 C379.41749467 -0.09253922 412.25020865 -0.1011422 445.08293408 -0.10021287 C448.5843577 -0.10013824 452.08578132 -0.10008954 455.58720493 -0.10005856 C456.44933248 -0.1000469 457.31146003 -0.10003525 458.19971265 -0.10002324 C472.06785065 -0.09999248 485.93597856 -0.1063757 499.80411356 -0.11499082 C513.74298414 -0.12347077 527.68183999 -0.12445455 541.62071172 -0.1178815 C549.89863851 -0.1141883 558.17652051 -0.11601135 566.45444255 -0.12582384 C572.63924176 -0.13253501 578.82399329 -0.12876431 585.00879028 -0.12095062 C587.50803347 -0.11941223 590.00728153 -0.12124452 592.506519 -0.12681069 C632.23261394 -0.2094187 632.23261394 -0.2094187 648.10747814 14.75363445 C658.43368651 25.29723668 660.35090693 36.30285313 660.28548717 50.53645611 C660.28635997 51.90780722 660.28811232 53.27915802 660.29066551 54.65050703 C660.29512848 58.40865549 660.28714984 62.16668952 660.27710938 65.9248234 C660.26846203 69.98131622 660.27139596 74.03780273 660.27291393 78.09430218 C660.27396197 85.11908207 660.26769385 92.14382477 660.25643826 99.16859531 C660.24017522 109.32519419 660.23497443 119.48177511 660.23246227 129.6383856 C660.22808643 146.11732314 660.21478034 162.59624087 660.19585705 179.07516766 C660.17749538 195.08167706 660.16334028 211.08818109 660.15484142 227.09469891 C660.15405325 228.57498361 660.15405325 228.57498361 660.15324916 230.08517306 C660.15063906 235.03600617 660.14811165 239.98683932 660.14562535 244.9376725 C660.12489631 286.00134026 660.08967379 327.06498622 660.04497814 368.12863445 C655.52006287 364.34113659 651.20746055 360.43177449 647.05597973 356.23970318 C646.21630505 355.39813509 646.21630505 355.39813509 645.35966724 354.53956562 C643.50440432 352.67897081 641.6527643 350.81481336 639.80108166 348.95065594 C638.46353269 347.60790794 637.12573719 346.26540548 635.78771496 344.92312908 C632.9163214 342.04182786 630.04640077 339.15907039 627.17754841 336.27523899 C622.63754876 331.71209565 618.09260167 327.15390191 613.54667187 322.59666729 C600.62372604 309.64035272 587.70496696 296.67988413 574.79668713 283.70895672 C567.66020451 276.53792196 560.51835229 269.37228076 553.37050861 262.21256977 C548.85325055 257.6872284 544.34263375 253.15540314 539.83681595 248.61867225 C537.02895098 245.79476445 534.21477527 242.97721218 531.39878368 240.16141033 C530.09815192 238.85836359 528.80008533 237.55275038 527.50484562 236.24434376 C517.44512756 226.08667801 508.07936816 217.19245548 493.04497814 216.75363445 C478.35285496 217.21798727 467.60642054 225.94036503 457.63587475 236.05671978 C456.75667942 236.93249741 455.8774841 237.80827503 454.97164649 238.71059138 C452.56061819 241.11621398 450.15879161 243.53037301 447.76059949 245.94875062 C445.16207362 248.56467997 442.5518627 251.16890665 439.94311047 253.77463055 C435.43391813 258.28173361 430.93206095 262.79605532 426.43521595 267.31547642 C419.9336701 273.84964139 413.42100163 280.37262787 406.90563544 286.8930089 C396.33314992 297.47423156 385.76961311 308.06434096 375.21172619 318.66012859 C364.96057704 328.94803881 354.70520165 339.23170589 344.44414806 349.50973797 C343.81080796 350.14412896 343.17746786 350.77851996 342.52493564 351.43213492 C339.34737445 354.61491656 336.16973036 357.79761541 332.99204504 360.98027313 C306.66349154 387.35023944 280.34946948 413.73466675 254.04497814 440.12863445 C252.92259911 439.17186225 251.80096401 438.2142173 250.67964363 437.25620461 C250.05495341 436.72300981 249.43026319 436.18981502 248.78664297 435.64046282 C246.801879 433.91761556 244.92276473 432.12022958 243.07256603 430.25387859 C242.0309708 429.20732853 242.0309708 429.20732853 240.96833324 428.13963604 C240.24210262 427.40510708 239.515872 426.67057812 238.76763439 425.9137907 C237.612365 424.75284138 237.612365 424.75284138 236.43375683 423.56843853 C233.16694961 420.28541712 229.90614773 416.996455 226.64483166 413.70798016 C224.25036676 411.29531914 221.85282017 408.88575019 219.45513439 406.4762907 C218.730928 405.74378597 218.00672161 405.01128124 217.26056957 404.2565794 C216.2142461 403.20530109 216.2142461 403.20530109 215.14678478 402.13278484 C214.54612698 401.52689022 213.94546917 400.9209956 213.32660961 400.29674053 C211.33553685 398.40473605 209.30203747 396.60661138 207.22460461 394.81123638 C203.3372819 391.42850816 199.68124512 387.87545409 196.06914806 384.2028532 C195.42240627 383.54983227 194.77566448 382.89681133 194.10932446 382.22400188 C192.71916673 380.82010331 191.33009784 379.41512584 189.94203281 378.00915813 C187.73659099 375.77680441 185.5265683 373.54908338 183.31507397 371.32272625 C177.03213535 364.99731013 170.75190152 358.66929147 164.48809338 352.32492352 C160.6426615 348.43070747 156.78730967 344.54655026 152.9254961 340.66858196 C151.46553464 339.19878978 150.00921824 337.72536673 148.55680943 336.24811077 C136.81855614 324.31349727 125.73707674 313.30036464 108.10747814 312.69113445 C93.58474803 313.06591458 84.32422798 321.51904256 74.52495861 331.40573406 C73.4864677 332.44137745 73.4864677 332.44137745 72.42699718 333.49794292 C70.1671553 335.75411659 67.91453464 338.01734623 65.66216564 340.2809782 C64.0779062 341.86643191 62.49327454 343.45151375 60.90828991 345.03624249 C57.59869127 348.34739924 54.29245981 351.6618686 50.9888258 354.97897625 C46.76986209 359.21493549 42.54433956 363.44427613 38.31649113 367.67136574 C35.04755297 370.94057678 31.78123479 374.21239493 28.51577663 377.48508167 C26.95915436 379.04486899 25.40194081 380.60406647 23.84410763 382.16264439 C21.66228919 384.34664914 19.48380469 386.53392655 17.30620861 388.72214031 C16.67226177 389.35563396 16.03831493 389.98912762 15.38515759 390.64181805 C11.67639396 394.37683813 8.17382649 398.23600459 4.73091984 402.21656418 C2.2123897 405.07289463 -0.45274849 407.76615563 -3.14984608 410.4528532 C-4.01216091 411.31779652 -4.01216091 411.31779652 -4.89189625 412.20021343 C-6.76202111 414.07468266 -8.6357112 415.94553818 -10.50970936 417.81613445 C-11.82024962 419.12734924 -13.13064149 420.43871237 -14.44089222 421.75021648 C-17.17086992 424.48166052 -19.90262853 427.21130718 -22.63568592 429.93966961 C-26.14647458 433.44472185 -29.65270139 436.95429803 -33.15764141 440.46519756 C-35.85459938 443.16575626 -38.55391852 445.86394465 -41.25397587 448.56140423 C-42.54896121 449.85572099 -43.8432 451.15078513 -45.13668919 452.4465971 C-46.93424756 454.24667821 -48.73495049 456.04355155 -50.53656483 457.83957195 C-51.3422163 458.64825977 -51.3422163 458.64825977 -52.16414356 459.47328472 C-55.84075129 463.12863445 -55.84075129 463.12863445 -56.95502186 463.12863445 C-57.06948981 409.08006354 -57.15758224 355.0315049 -57.21034851 300.98283659 C-57.21660197 294.60052748 -57.22307359 288.2182186 -57.22968006 281.83590984 C-57.23099161 280.56531799 -57.23230317 279.29472613 -57.23365446 277.98563149 C-57.25540538 257.41788952 -57.29482523 236.85021749 -57.34078584 216.28251699 C-57.3875591 195.17495695 -57.41531912 174.06743352 -57.42546433 152.95982379 C-57.43232165 139.93742657 -57.45397259 126.91522707 -57.49460419 113.89289071 C-57.52105323 104.96051232 -57.52901791 96.028236 -57.52252875 87.0958213 C-57.51932927 81.94382231 -57.52420118 76.79216859 -57.55104923 71.64023113 C-57.57547912 66.91770556 -57.57654648 62.19575564 -57.55951633 57.47320291 C-57.55741325 55.77041404 -57.56367313 54.06758843 -57.57943777 52.36487124 C-57.69947961 38.59145466 -55.49003315 26.74396722 -45.95502186 16.12863445 C-45.43166248 15.5253532 -44.90830311 14.92207195 -44.36908436 14.30050945 C-32.07066753 1.02052884 -17.08923503 -0.03610851 0 0 Z " transform="translate(128.95502185821533,53.871365547180176)" style="fill: #99D8E9;"/><path d="M0 0 C3.18911797 2.32032874 5.88423455 4.7781165 8.67428589 7.56338501 C9.19210129 8.07769577 9.70991669 8.59200653 10.24342346 9.12190247 C11.93650985 10.80625666 13.62225854 12.49773565 15.30758667 14.18984985 C16.48699229 15.3679072 17.66669458 16.54566761 18.84667969 17.72314453 C21.30924267 20.18276851 23.76817518 22.64595007 26.22457886 25.11172485 C29.37875105 28.27734113 32.5418848 31.43382688 35.70774651 34.58774757 C38.14077924 37.01357141 40.56905086 39.44411592 42.99588394 41.87614059 C44.16106353 43.04265677 45.32773729 44.2076824 46.49590683 45.37120438 C48.12144205 46.9916849 49.74046908 48.61839449 51.35787964 50.24697876 C52.74304276 51.63452866 52.74304276 51.63452866 54.15618896 53.05010986 C56.12789917 55.27578735 56.12789917 55.27578735 56.12789917 57.27578735 C56.78789917 57.27578735 57.44789917 57.27578735 58.12789917 57.27578735 C58.12789917 57.93578735 58.12789917 58.59578735 58.12789917 59.27578735 C58.78789917 59.27578735 59.44789917 59.27578735 60.12789917 59.27578735 C60.12789917 59.93578735 60.12789917 60.59578735 60.12789917 61.27578735 C60.78789917 61.27578735 61.44789917 61.27578735 62.12789917 61.27578735 C62.12789917 61.93578735 62.12789917 62.59578735 62.12789917 63.27578735 C62.78789917 63.27578735 63.44789917 63.27578735 64.12789917 63.27578735 C64.12789917 63.93578735 64.12789917 64.59578735 64.12789917 65.27578735 C64.78789917 65.27578735 65.44789917 65.27578735 66.12789917 65.27578735 C66.12789917 65.93578735 66.12789917 66.59578735 66.12789917 67.27578735 C66.78789917 67.27578735 67.44789917 67.27578735 68.12789917 67.27578735 C68.12789917 67.93578735 68.12789917 68.59578735 68.12789917 69.27578735 C68.78789917 69.27578735 69.44789917 69.27578735 70.12789917 69.27578735 C70.12789917 69.93578735 70.12789917 70.59578735 70.12789917 71.27578735 C70.78789917 71.27578735 71.44789917 71.27578735 72.12789917 71.27578735 C73.21511536 72.45516178 74.24492248 73.68781921 75.24424744 74.9425354 C78.82938186 79.15050674 82.55192362 81.79909285 87.2663269 84.6078186 C116.30061738 102.81731582 152.10653011 128.78785441 160.3961792 164.28077698 C166.47768196 194.06289938 165.23424426 225.44201829 164.31539917 255.65078735 C164.2846409 256.70669823 164.25388263 257.7626091 164.22219229 258.85051727 C163.55594241 281.43514928 162.45775837 303.98974552 160.73800659 326.5194397 C160.68021149 327.31288347 160.62241638 328.10632725 160.56286991 328.92381477 C159.34883821 345.25914869 156.05854651 358.45486141 143.83102417 370.1625061 C134.63961695 377.34827389 125.04442198 380.43620805 113.45409679 380.39883518 C112.57712675 380.39998903 111.70015671 380.40114287 110.79661182 380.40233168 C107.84347934 380.40498896 104.89040084 380.40048345 101.93727112 380.39604187 C99.80455872 380.39647775 97.67184638 380.39735298 95.53913432 380.39863104 C89.66721218 380.40087264 83.79530819 380.39685925 77.92338836 380.39185297 C71.5955371 380.38754389 65.26768691 380.38899523 58.93983459 380.38975525 C47.97260448 380.39028019 37.00538117 380.38717131 26.03815269 380.38151741 C14.53463399 380.37560223 3.03111765 380.37175184 -8.47240257 380.3706646 C-9.18741381 380.37059586 -9.90242505 380.37052712 -10.6391033 380.37045629 C-14.27022168 380.37011797 -17.90134006 380.36981658 -21.53245845 380.36952942 C-47.25773473 380.3674285 -72.98300793 380.36068973 -98.70828247 380.35122681 C-123.70144637 380.3420438 -148.69460941 380.33495948 -173.68777466 380.33071899 C-174.45804988 380.33058747 -175.2283251 380.33045594 -176.02194199 380.33032043 C-183.75729825 380.32900192 -191.49265451 380.3277261 -199.22801078 380.32648157 C-214.98609842 380.3239453 -230.744186 380.32112404 -246.50227356 380.31813049 C-247.22681939 380.3179932 -247.95136523 380.31785591 -248.697867 380.31771446 C-297.08927959 380.30851239 -345.48069036 380.29264624 -393.87210083 380.27578735 C-392.53593824 377.30755218 -391.07199584 375.22698039 -388.77196217 372.93234634 C-387.81104718 371.96638326 -387.81104718 371.96638326 -386.83071977 370.98090577 C-386.1253858 370.28207961 -385.42005184 369.58325345 -384.69334412 368.86325073 C-383.57112883 367.73953052 -383.57112883 367.73953052 -382.42624253 366.59310889 C-379.91072228 364.07663382 -377.38811346 361.56738604 -374.86550903 359.05801392 C-373.06335048 357.25805599 -371.26163895 355.45765041 -369.46034241 353.65682983 C-365.57598344 349.7754079 -361.6886119 345.89704275 -357.79854774 342.02133942 C-352.1660401 336.40952523 -346.53955132 330.79170751 -340.91460373 325.17231676 C-331.77759311 316.04456483 -322.63649235 306.92092094 -313.49246216 297.80020142 C-312.94515622 297.25428879 -312.39785027 296.70837616 -311.8339593 296.14592072 C-311.28599397 295.59935092 -310.73802863 295.05278111 -310.17345828 294.48964858 C-302.41581294 286.75174433 -294.65911736 279.01288973 -286.90359497 271.27285767 C-286.35847105 270.7288246 -285.81334714 270.18479153 -285.25170431 269.62427261 C-276.14990556 260.54052171 -267.05015327 251.45472251 -257.95144337 242.36787772 C-252.34299595 236.76700592 -246.73248285 231.16821788 -241.119248 225.572144 C-236.81260632 221.27848144 -232.50843723 216.98234914 -228.20513344 212.68534088 C-226.44321725 210.92688754 -224.68043026 209.16930621 -222.91669846 207.41267395 C-220.50405666 205.00952797 -218.09456068 202.60326955 -215.68577576 200.19625854 C-214.9915954 199.50635527 -214.29741504 198.81645199 -213.58219892 198.10564256 C-209.76778563 194.28680794 -206.16448567 190.3535006 -202.63710099 186.26934576 C-199.57711683 182.81310973 -196.31096994 179.56662014 -193.04737854 176.30389404 C-192.29017377 175.54301259 -191.53296901 174.78213114 -190.75281864 173.99819267 C-188.23430752 171.46873538 -185.71229305 168.94280209 -183.19021606 166.41690063 C-181.37609811 164.59651171 -179.56216867 162.77593491 -177.74841309 160.95518494 C-172.32489374 155.51201473 -166.89662767 150.07359047 -161.46773562 144.63577968 C-158.90749634 142.07114499 -156.34774133 139.50602703 -153.78792 136.94097519 C-145.2756642 128.41173022 -136.76216326 119.88373099 -128.24503994 111.35934639 C-126.04104616 109.15344299 -123.83705777 106.94753421 -121.63308716 104.74160767 C-121.0853558 104.19339257 -120.53762444 103.64517747 -119.97329516 103.08034979 C-111.08267618 94.18141407 -102.2006197 85.27398271 -93.32206856 76.36300839 C-84.19653704 67.20442443 -75.06351005 58.05337 -65.92303616 48.90969837 C-60.79493196 43.77942907 -55.67016947 38.64591603 -50.55377007 33.5039711 C-45.74723728 28.67349348 -40.93063545 23.85329211 -36.1069603 19.03992271 C-34.33698835 17.2704479 -32.5704469 15.4975341 -30.80757713 13.72098351 C-28.40411718 11.29991514 -25.98870288 8.8914434 -23.56983948 6.48577881 C-22.52347916 5.42296462 -22.52347916 5.42296462 -21.45598024 4.33867943 C-15.03093292 -2.00181609 -8.50775502 -5.10747347 0 0 Z " transform="translate(629.8721008300781,295.7242126464844)" style="fill: #22B14C;"/><path d="M0 0 C283.47 0 566.94 0 859 0 C859 238.92 859 477.84 859 724 C575.53 724 292.06 724 0 724 C0 485.08 0 246.16 0 0 Z M74 47 C73.28328125 47.54914062 72.5665625 48.09828125 71.828125 48.6640625 C57.89654116 59.95344941 50.07643233 78.02018231 48.20498148 95.55089723 C47.8736824 99.50923286 47.86011239 103.45070729 47.86857224 107.42082405 C47.8665196 108.32999462 47.86446697 109.2391652 47.86235213 110.17588639 C47.8567092 113.2146123 47.85813602 116.2532925 47.85955811 119.29202271 C47.85697293 121.49586853 47.85395934 123.6997139 47.8505547 125.90355861 C47.84249957 131.95410959 47.84069596 138.00464869 47.83995724 144.05520439 C47.8382945 149.91237882 47.83197472 155.7695471 47.82587883 161.62671832 C47.80984338 177.31190189 47.80391854 192.99708445 47.79913008 208.68227474 C47.79679188 216.10595315 47.793189 223.52963079 47.7894347 230.9533086 C47.77660197 256.37820948 47.76588208 281.80310994 47.7624321 307.22801399 C47.76221047 308.82304682 47.76198868 310.41807965 47.76176675 312.01311248 C47.76154611 313.61193307 47.76132563 315.21075366 47.7611053 316.80957425 C47.76066275 320.01692971 47.76021564 323.22428517 47.75976562 326.43164062 C47.75965623 327.2268741 47.75954684 328.02210758 47.75943414 328.84143904 C47.75580378 354.62492592 47.7398831 380.40838467 47.71657526 406.19186077 C47.69196272 433.46860026 47.67825862 460.74532367 47.67706418 488.02207458 C47.67689273 491.01802119 47.67667731 494.01396779 47.67642975 497.0099144 C47.67637398 497.74757006 47.67631821 498.48522572 47.67626075 499.24523458 C47.67511163 511.09995236 47.66410155 522.9546412 47.64954269 534.80934921 C47.63515521 546.73088851 47.63195343 558.65239082 47.63998267 570.57393642 C47.64388675 577.02839288 47.64297115 583.48275224 47.62892532 589.93719673 C47.6161725 595.85163088 47.61739622 601.76589511 47.62951604 607.68032907 C47.6314706 609.81423099 47.62840579 611.94814501 47.61967167 614.08202995 C47.53530145 636.09766142 50.38409808 655.85450521 64 674 C64.48210937 674.66644531 64.96421875 675.33289063 65.4609375 676.01953125 C75.09670064 688.35664995 92.53241103 697.08801866 107.85759138 699.26372056 C113.89520328 699.99860906 119.842424 700.14235232 125.92009163 700.13142776 C127.5269733 700.13450672 127.5269733 700.13450672 129.16631722 700.13764787 C132.75640776 700.14330289 136.34645976 700.14186247 139.93655396 700.14044189 C142.53638054 700.14302638 145.13620673 700.14603977 147.73603237 700.1494453 C154.13212977 700.15700732 160.52821883 700.15921744 166.92432024 700.15977435 C174.58765693 700.16068976 182.25098594 700.1673625 189.91431932 700.17412117 C208.43325651 700.19016454 226.95219287 700.19608236 245.47113577 700.20086992 C254.23422764 700.20320732 262.99731885 700.2068101 271.76041021 700.2105653 C301.7664564 700.2233987 331.77250223 700.23411856 361.7785511 700.2375679 C363.66135229 700.23778953 365.54415349 700.23801132 367.42695468 700.23823325 C369.31425507 700.23845389 371.20155547 700.23867437 373.08885586 700.2388947 C376.87499245 700.23933725 380.66112904 700.23978437 384.44726562 700.24023438 C385.85537319 700.24039846 385.85537319 700.24039846 387.29192737 700.24056586 C417.73158597 700.24419662 448.17122075 700.26011846 478.61087022 700.28342474 C510.80555175 700.30802964 543.00021968 700.32174102 575.19491088 700.32293582 C578.73008784 700.32310727 582.26526479 700.3233227 585.80044174 700.32357025 C586.67087985 700.32362602 587.54131795 700.32368179 588.43813297 700.32373925 C602.4351843 700.32488904 616.43221114 700.3359048 630.42925421 700.35045731 C644.50159026 700.36483497 658.57389499 700.36805209 672.64623637 700.36001733 C681.00152166 700.35556726 689.3567057 700.35939675 697.71197764 700.37525584 C703.95796048 700.38618049 710.2038394 700.38134544 716.44982027 700.37048396 C718.97133714 700.36852573 721.4928642 700.37161121 724.01436676 700.38032833 C747.23251303 700.45549676 767.75969845 698.40142332 787 684 C787.65484375 683.54109375 788.3096875 683.0821875 788.984375 682.609375 C797.66807371 675.99701726 803.70587648 664.81029011 808 655 C808.44279297 654.00613281 808.44279297 654.00613281 808.89453125 652.9921875 C813.9873693 640.59877865 813.28594475 627.42132499 813.26069641 614.28437805 C813.26371892 612.05889403 813.2676089 609.83341104 813.27228898 607.60792989 C813.28256498 601.50680475 813.28038813 595.40573841 813.27610838 589.30460846 C813.27389407 583.39573725 813.28105493 577.48688205 813.28786864 571.57801544 C813.30309158 558.00395165 813.30481541 544.42990655 813.30234561 530.85583601 C813.30051123 520.37091605 813.3022756 509.88600219 813.30657005 499.40108299 C813.30717246 497.89342126 813.30777366 496.38575953 813.30837366 494.8780978 C813.30928094 492.60603235 813.3101896 490.33396691 813.31110601 488.06190146 C813.31953318 466.94252678 813.32387291 445.8231544 813.31969929 424.70377827 C813.31954291 423.9079634 813.31938654 423.11214853 813.31922542 422.29221806 C813.31841967 418.25894793 813.3175739 414.22567782 813.31671212 410.1924077 C813.31654103 409.39142518 813.31636994 408.59044266 813.31619367 407.76518793 C813.31584701 406.14540689 813.31549848 404.52562584 813.31514808 402.90584479 C813.30979238 377.70910729 813.31771797 352.5124048 813.33618164 327.31567383 C813.35691465 298.98905733 813.36762179 270.66246252 813.36360615 242.33583802 C813.36321083 239.31322396 813.36284928 236.2906099 813.36250877 233.26799583 C813.36241804 232.52378485 813.36232731 231.77957386 813.36223383 231.01281102 C813.36106959 219.79561866 813.36770299 208.57844825 813.37832069 197.36126137 C813.39039031 184.59738828 813.39191148 171.83356343 813.37953053 159.06968961 C813.3734985 152.56042303 813.37253365 146.05123152 813.38453293 139.5419693 C813.39540197 133.57636403 813.392276 127.61093149 813.37827124 121.64533427 C813.37562714 119.49397952 813.37798177 117.34261119 813.38600711 115.19126979 C813.54297148 92.70474979 813.54297148 92.70474979 806.3125 71.6875 C805.78922119 70.70124634 805.78922119 70.70124634 805.25537109 69.69506836 C794.56601482 50.03711657 779.62109943 39.11580346 758.453125 32.7890625 C749.54570145 30.75365576 740.92446815 29.70386059 731.79278755 29.73993778 C730.72692224 29.73613211 729.66105693 29.73232644 728.56289268 29.72840545 C725.00909219 29.71813996 721.45545293 29.72198654 717.90164185 29.72584534 C715.32071302 29.7213902 712.73978556 29.71607525 710.15886009 29.70997661 C704.55631069 29.69816863 698.95379379 29.69376231 693.35123253 29.69429779 C685.01934675 29.69509323 676.68750182 29.68451846 668.35562699 29.67188222 C651.7384743 29.64718017 635.12133163 29.63836349 618.50416309 29.63334573 C617.64420394 29.63308456 616.78424478 29.63282338 615.89822626 29.63255429 C615.03648108 29.63229402 614.17473589 29.63203374 613.28687721 29.63176558 C603.72458402 29.62867963 594.16229358 29.62217354 584.60000229 29.6155529 C555.70078479 29.59590833 526.80157026 29.5795023 497.90234566 29.57667637 C496.97853927 29.57658231 496.05473289 29.57648825 495.10293237 29.57639134 C491.35937741 29.57601287 487.61582244 29.57564887 483.87226748 29.57528836 C481.05481894 29.57501664 478.23737041 29.57473996 475.41992188 29.57446289 C474.48892684 29.57437487 473.55793181 29.57428685 472.5987248 29.57419616 C443.36038313 29.57129209 414.12210763 29.54920648 384.88378906 29.51293945 C352.01104182 29.47216505 319.13833966 29.44851744 286.26556575 29.44821686 C282.75642895 29.44812004 279.24729216 29.44795332 275.73815536 29.44773674 C274.87416132 29.44769263 274.01016728 29.44764851 273.11999161 29.44760306 C259.24813701 29.44648569 245.37634899 29.42911315 231.50451579 29.40591742 C217.54778897 29.38301368 203.59115158 29.37888902 189.63441284 29.39346672 C181.35605718 29.40158509 173.07798428 29.3960455 164.79966323 29.37028587 C158.59862189 29.35255683 152.39787181 29.36132856 146.19683896 29.37993097 C143.7028762 29.38340825 141.20888369 29.37859153 138.71495987 29.36422653 C115.26995952 29.23798201 92.61672376 31.48606353 74 47 Z " transform="translate(0,0)" style="fill: #FEFEFE;"/><path d="M0 0 C6.03309182 3.93209472 10.91210582 9.20013781 15.95092773 14.29219055 C17.08445324 15.42656349 18.21864216 16.56027384 19.35343933 17.69337463 C22.41540522 20.75448368 25.46806599 23.82471969 28.51908112 26.89673829 C31.71540854 30.1118846 34.92029647 33.31847499 38.12426758 36.52600098 C44.1826317 42.59367028 50.23331105 48.66894273 56.28123474 54.74701661 C63.17013574 61.6695092 70.06760934 68.58343319 76.96579933 75.4966675 C91.14875488 89.71093747 105.32096559 103.93587891 119.48608398 118.16792297 C117.78111555 122.40603739 114.7029779 125.50602171 111.67654419 128.83705139 C111.07412836 129.50608813 110.47171253 130.17512486 109.85104167 130.86443543 C107.82491067 133.10965327 105.7910745 135.34770799 103.75610352 137.58491516 C102.68854733 138.7624577 102.68854733 138.7624577 101.59942436 139.96378899 C87.85637209 155.11279628 73.84755361 170.00711647 59.72094942 184.79850267 C57.39483536 187.23428407 55.07070211 189.67194695 52.74780273 192.11079407 C52.05449277 192.83860637 52.05449277 192.83860637 51.34717654 193.58112195 C44.42298797 200.8592594 37.6562091 208.25932614 30.95776367 215.74653625 C-33.61935937 287.77136195 -33.61935937 287.77136195 -74.34951901 290.57040262 C-100.37482718 291.84783092 -138.77058234 292.02261679 -159.74438477 274.28120422 C-177.24843661 257.56532732 -177.91473277 231.4845803 -179.38891602 208.73042297 C-179.45240864 207.7555191 -179.51590126 206.78061523 -179.5813179 205.77616882 C-181.05449784 179.95602194 -177.46662155 160.04414169 -160.09605408 140.21041679 C-142.84246558 121.2247327 -123.32865781 104.04061299 -103.27145195 88.07166386 C-99.15909271 84.74747304 -95.68181992 81.2292653 -92.26438618 77.19668961 C-89.3109945 73.77375637 -86.10656569 70.60478044 -82.91381836 67.4066925 C-81.82705559 66.31248238 -81.82705559 66.31248238 -80.71833801 65.19616699 C-78.34825168 62.81160968 -75.97440802 60.43084291 -73.59985352 58.05073547 C-72.7850716 57.23312618 -71.97028969 56.41551689 -71.13081741 55.57313156 C-66.82892869 51.25632055 -62.52422534 46.94234064 -58.21704102 42.6308136 C-53.7705025 38.17876449 -49.3333353 33.71749506 -44.89824486 29.25404549 C-41.4803615 25.81756178 -38.05581138 22.38778167 -34.62938309 18.95981979 C-32.98983501 17.3172447 -31.3527888 15.67216839 -29.71830368 14.02455521 C-27.43761483 11.72684234 -25.14768488 9.43874636 -22.85522461 7.15278625 C-21.84672707 6.13046654 -21.84672707 6.13046654 -20.81785583 5.0874939 C-14.6169525 -1.05840347 -8.52099641 -4.44265648 0 0 Z " transform="translate(246.513916015625,390.8320770263672)" style="fill: #23B14D;"/><path d="M0 0 C0.87398437 -0.020625 1.74796875 -0.04125 2.6484375 -0.0625 C8.83636384 -0.0992236 13.76042471 1.00146226 19.5 3.25 C20.43972656 3.56324219 21.37945312 3.87648437 22.34765625 4.19921875 C25.42382812 5.22460938 25.42382812 5.22460938 28.5 6.25 C28.5 6.91 28.5 7.57 28.5 8.25 C29.49 8.5284375 29.49 8.5284375 30.5 8.8125 C42.43552373 14.53160512 52.88386443 27.16946263 57.25 39.4375 C62.60061423 55.0660346 61.80648198 71.69309453 54.875 86.7890625 C46.85422824 100.79199321 34.07385967 112.89561333 18.52734375 117.8828125 C3.84931052 121.33969509 -14.11317476 120.87851178 -27.51171875 113.52734375 C-39.97269277 105.52196358 -53.27093432 92.87831144 -57.05029297 78.09790039 C-60.28207549 62.87911428 -61.02162177 45.11417774 -52.42675781 31.55712891 C-49.71034528 27.54832128 -46.68757398 23.89225795 -43.5 20.25 C-42.76523438 19.40308594 -42.03046875 18.55617187 -41.2734375 17.68359375 C-33.32605405 9.14376899 -24.20561297 4.09498943 -12.80078125 1.7578125 C-4.96470912 0.02828894 -4.96470912 0.02828894 0 0 Z " transform="translate(238.5,161.75)" style="fill: #FEF102;"/><path d="M0 0 C0.84691406 0.31066406 1.69382812 0.62132812 2.56640625 0.94140625 C22.2298712 8.78568654 36.08578944 23.11270856 45 42 C51.71116511 58.74083451 55.06982603 74.82355716 51.375 92.6875 C51.19751221 93.55109131 51.02002441 94.41468262 50.8371582 95.30444336 C48.13721443 107.69531811 43.43029625 118.65461951 36 129 C35.40574219 129.85207031 34.81148437 130.70414063 34.19921875 131.58203125 C23.27119447 146.31110746 6.44634929 154.5487549 -11 159 C-11.68078613 159.17805176 -12.36157227 159.35610352 -13.06298828 159.53955078 C-18.52007384 160.87682746 -23.64115285 161.31832996 -29.25 161.25 C-30.08063965 161.24178223 -30.9112793 161.23356445 -31.76708984 161.22509766 C-50.41737191 160.88928425 -66.70551159 155.63510191 -82 145 C-83.22976562 144.18595703 -83.22976562 144.18595703 -84.484375 143.35546875 C-100.84097994 131.76484008 -109.48058118 110.25200171 -113.25 91.25 C-116.79487712 66.69366939 -110.671469 43.9711629 -96 24 C-95.55398437 23.35675781 -95.10796875 22.71351563 -94.6484375 22.05078125 C-73.90852136 -5.24193048 -30.23092567 -12.16997591 0 0 Z M-46 20 C-47.53875415 20.40700835 -49.08054786 20.80267831 -50.625 21.1875 C-67.3950899 26.21355068 -79.40279339 40.76582709 -87.44921875 55.6875 C-93.36473592 69.96776602 -91.25108043 89.1597449 -85.75 103.1875 C-83.13721548 107.38661798 -80.15190173 111.19323713 -77 115 C-76.30519531 115.84304688 -75.61039063 116.68609375 -74.89453125 117.5546875 C-65.80012133 128.14605339 -55.11600611 135.49901488 -41 137 C-19.90780619 138.06906268 -5.55658574 135.0132206 10.5390625 120.75 C23.11587965 108.89511495 28.71244665 94.8293396 29.46972656 77.76611328 C29.71345319 61.53470586 23.10968146 48.67898574 12.2734375 37.08203125 C6.23178035 30.79271237 6.23178035 30.79271237 -1 26 C-1.66 26 -2.32 26 -3 26 C-3 25.34 -3 24.68 -3 24 C-4.32064453 23.60167969 -4.32064453 23.60167969 -5.66796875 23.1953125 C-6.82941406 22.84210938 -7.99085938 22.48890625 -9.1875 22.125 C-10.33605469 21.77695313 -11.48460937 21.42890625 -12.66796875 21.0703125 C-16 20 -16 20 -18.30078125 18.8828125 C-22.49288781 17.51173279 -26.62002439 17.71191326 -31 17.75 C-31.88945312 17.74226563 -32.77890625 17.73453125 -33.6953125 17.7265625 C-38.28628965 17.74026691 -41.808463 17.94962721 -46 20 Z " transform="translate(270,144)" style="fill: #1A3354;"/></svg>