<svg id="svg" version="1.1" xmlns="http://www.w3.org/2000/svg" viewBox="0 0 612 564" style="display: block;"><path d="M0 0 C201.96 0 403.92 0 612 0 C612 186.12 612 372.24 612 564 C410.04 564 208.08 564 0 564 C0 377.88 0 191.76 0 0 Z " transform="translate(0,0)" style="fill: #FEFEFE;"/><path d="M0 0 C1.6396875 0.061875 1.6396875 0.061875 3.3125 0.125 C11.81677102 2.14296262 18.23512371 6.39330958 23.5625 13.265625 C28.68600644 23.01142529 28.4408149 33.05518518 28.41992188 43.77539062 C28.42727156 45.56357856 28.43586039 47.35176177 28.44558716 49.13993835 C28.4677131 53.97255053 28.47073846 58.80499176 28.46883965 63.63764763 C28.46871957 67.68085113 28.4772984 71.72401889 28.48561716 75.76721239 C28.50481776 85.30853718 28.50774667 94.84977448 28.50097656 104.39111328 C28.49433259 114.21718138 28.51722224 124.0428744 28.55429029 133.86886644 C28.58502161 142.32352876 28.59634377 150.77807059 28.59245348 159.23278761 C28.59039017 164.27447293 28.5958012 169.31586602 28.62034607 174.35749817 C28.64266847 179.09866504 28.64068983 183.83922276 28.62041855 188.58039284 C28.61701863 190.31454254 28.62205352 192.04873371 28.63640213 193.78282738 C28.72107218 204.77894052 27.71457452 212.82287499 20.859375 221.8046875 C12.73447196 229.77912937 5.00682615 233.15019851 -6.32987976 233.14717102 C-7.0701539 233.15084771 -7.81042803 233.1545244 -8.57313472 233.1583125 C-11.05486704 233.16932967 -13.53655746 233.17318984 -16.01831055 233.17700195 C-17.79737989 233.1832681 -19.57644792 233.18991504 -21.35551453 233.19691467 C-27.19924002 233.21793984 -33.04296574 233.22831576 -38.88671875 233.23828125 C-40.89987514 233.24232941 -42.9130314 233.24644635 -44.92618752 233.25063133 C-54.38486564 233.26967977 -63.84353597 233.28391142 -73.30222958 233.2922433 C-84.21383884 233.30201419 -95.12524516 233.32833134 -106.03678292 233.36874419 C-114.4751527 233.39892271 -122.91346436 233.41371384 -131.35188705 233.41702431 C-136.38969385 233.41937285 -141.42728376 233.42830778 -146.46503258 233.45348549 C-151.20684116 233.4768015 -155.94829058 233.48098524 -160.69014168 233.47072411 C-162.4263262 233.47022949 -164.16252862 233.47652795 -165.89865875 233.49028015 C-178.14951917 233.58185801 -186.9535479 232.48878369 -196.20703125 223.86328125 C-202.36662109 217.46213886 -204.11834936 212.1274622 -204.375 203.3125 C-204.42398437 202.17425781 -204.47296875 201.03601563 -204.5234375 199.86328125 C-203.20550348 190.13614133 -197.26818561 183.56309141 -190.43017578 176.97363281 C-189.15383018 175.71305809 -189.15383018 175.71305809 -187.85169983 174.42701721 C-185.54028863 172.14782343 -183.21837191 169.87999281 -180.8922677 167.61581898 C-178.4529951 165.23430384 -176.03097821 162.83538988 -173.60787964 160.43743896 C-166.41456413 153.32488868 -159.19652006 146.23758084 -151.9697876 139.15899658 C-146.33613109 133.64048077 -140.71031338 128.11448193 -135.10842693 122.56369472 C-132.70016579 120.17885338 -130.28523102 117.80168576 -127.85348892 115.44077301 C-125.15099087 112.81230946 -122.47031616 110.16332165 -119.79345703 107.50878906 C-118.98420273 106.73255692 -118.17494843 105.95632477 -117.34117126 105.15657043 C-113.04201395 101.08895511 -113.04201395 101.08895511 -111.90158081 95.53778076 C-113.2301255 92.46831951 -113.97092581 92.2105631 -117 91 C-118.53348279 89.64103671 -120.02863306 88.23848387 -121.5 86.8125 C-154.85884663 55.72548587 -198.52562634 34.90723635 -243 26 C-244.03318359 25.78972168 -245.06636719 25.57944336 -246.13085938 25.36279297 C-276.63299523 19.36213914 -309.43335018 20.29386189 -339.8828125 26.56591797 C-342.21013466 27.04308342 -344.54214459 27.49211219 -346.875 27.94140625 C-354.61561554 29.46447198 -362.07361026 31.08826749 -369.42578125 34.015625 C-372.26876631 35.10277559 -375.13426845 35.92063752 -378.0625 36.75 C-411.2252453 46.83618407 -442.33864218 68.01589538 -467 92 C-467.78117187 92.75047607 -467.78117187 92.75047607 -468.578125 93.51611328 C-475.60281883 100.27781579 -481.99421824 107.30109892 -488 115 C-488.78890625 115.98355469 -489.5778125 116.96710938 -490.390625 117.98046875 C-518.06184019 152.77480443 -534.85878549 195.37830317 -540.1875 239.4375 C-540.27371613 240.14632324 -540.35993225 240.85514648 -540.44876099 241.58544922 C-543.25556673 265.20536904 -542.72497485 288.50055947 -539 312 C-538.8443457 313.03511719 -538.68869141 314.07023437 -538.52832031 315.13671875 C-535.73841337 333.24605485 -530.37595011 349.89339158 -524 367 C-523.46735028 368.48647835 -522.93585464 369.97337153 -522.40625 371.4609375 C-508.27572123 409.33404077 -478.10779279 446.00474114 -445.72851562 469.72900391 C-443.91288567 471.0640561 -442.12010669 472.42637073 -440.328125 473.79296875 C-431.90109318 480.16671363 -423.20331912 485.81577888 -414 491 C-413.34306152 491.37366699 -412.68612305 491.74733398 -412.00927734 492.13232422 C-403.8125727 496.75838256 -395.48425137 500.79904509 -386.75 504.3125 C-385.97116455 504.62582275 -385.1923291 504.93914551 -384.38989258 505.26196289 C-372.91558881 509.73714462 -361.10661549 512.84201429 -349.125 515.625 C-347.87847656 515.9240625 -346.63195312 516.223125 -345.34765625 516.53125 C-309.66931053 524.86972583 -273.7530749 523.27495244 -238 517 C-237.0212793 516.82952148 -236.04255859 516.65904297 -235.03417969 516.48339844 C-207.01074027 511.41269542 -180.62742328 498.58547499 -157 483 C-156.31115723 482.5477002 -155.62231445 482.09540039 -154.91259766 481.62939453 C-143.2390212 473.91184821 -131.94192468 465.6684091 -121.6875 456.125 C-116.402209 451.30758722 -111.52947674 447.17358082 -104.1875 446.8125 C-100.01954261 448.36526844 -98.90816384 450.03101921 -97 454 C-96.58644314 457.13193671 -96.68509696 458.52295176 -98.44140625 461.18359375 C-109.37354644 472.80025101 -120.93700158 483.80051152 -134 493 C-134.67498535 493.47727539 -135.3499707 493.95455078 -136.04541016 494.44628906 C-179.76463031 524.95531511 -230.54810971 542.00755833 -284 543 C-284.76070801 543.01514648 -285.52141602 543.03029297 -286.30517578 543.04589844 C-302.09450145 543.30740615 -317.38918615 542.3925171 -332.90332031 539.3984375 C-334.90857655 539.01737344 -336.91908305 538.66425585 -338.9296875 538.3125 C-363.63495004 533.93812756 -387.33149594 526.79052314 -410 516 C-410.67337402 515.68450195 -411.34674805 515.36900391 -412.04052734 515.04394531 C-433.50703318 504.94144439 -452.26823289 491.70471715 -470 476 C-471.17369141 474.98292969 -471.17369141 474.98292969 -472.37109375 473.9453125 C-484.50100221 463.25998671 -496.31283776 451.97192914 -505.72070312 438.77978516 C-507.16899775 436.76488672 -508.65357353 434.77942316 -510.140625 432.79296875 C-532.63940605 402.51691258 -547.31749383 368.61308957 -556 332 C-556.4021875 330.33904297 -556.4021875 330.33904297 -556.8125 328.64453125 C-561.21215729 309.46477526 -562.5479648 290.3858499 -562.4375 270.75 C-562.43512329 269.63402435 -562.43274658 268.51804871 -562.43029785 267.36825562 C-562.37555563 250.93219745 -561.74355402 235.07084567 -558 219 C-557.8345166 218.25041016 -557.6690332 217.50082031 -557.49853516 216.72851562 C-556.47001961 212.11120426 -555.25306426 207.5620821 -554 203 C-553.62362162 201.4814503 -553.25142642 199.96185936 -552.8828125 198.44140625 C-545.0656215 166.60358716 -529.63581969 137.13104858 -510 111 C-509.59571777 110.4529541 -509.19143555 109.9059082 -508.77490234 109.34228516 C-494.82856986 90.47631894 -477.85569308 72.00853644 -459 58 C-458.37367676 57.52433594 -457.74735352 57.04867187 -457.10205078 56.55859375 C-445.9026003 48.07234503 -434.30243015 40.76974373 -422 34 C-421.28489258 33.59797363 -420.56978516 33.19594727 -419.83300781 32.78173828 C-390.0599458 16.04560584 -356.8550504 6.19137862 -323.02685547 2.30957031 C-320.80318603 2.02848824 -320.80318603 2.02848824 -318 1 C-316.49121557 0.89864943 -314.978439 0.85167433 -313.46630859 0.83886719 C-312.54532379 0.82940567 -311.62433899 0.81994415 -310.67544556 0.81019592 C-309.6765329 0.80580002 -308.67762024 0.80140411 -307.6484375 0.796875 C-306.60996674 0.78986069 -305.57149597 0.78284637 -304.5015564 0.77561951 C-301.12599415 0.75802584 -297.75060655 0.75175819 -294.375 0.75 C-292.65996277 0.74898788 -292.65996277 0.74898788 -290.91027832 0.74795532 C-274.76101812 0.76317866 -258.90678242 0.91356483 -243 4 C-242.07558105 4.17692383 -241.15116211 4.35384766 -240.19873047 4.53613281 C-207.62709075 10.97814115 -175.95821824 22.95218605 -148 41 C-147.34418945 41.42071777 -146.68837891 41.84143555 -146.01269531 42.27490234 C-131.14802793 51.90833632 -117.54344241 63.15683353 -104.90795898 75.55786133 C-101.78183883 78.57671481 -99.27619368 80.74607855 -95 82 C-94.72709452 81.40233259 -94.45418903 80.80466518 -94.17301369 80.18888664 C-93.03171586 78.05918295 -91.92859996 76.67724803 -90.23178101 74.97781372 C-89.66843048 74.40882355 -89.10507996 73.83983337 -88.5246582 73.25360107 C-87.60052124 72.3355368 -87.60052124 72.3355368 -86.65771484 71.39892578 C-86.00703033 70.74473663 -85.35634583 70.09054749 -84.6859436 69.41653442 C-82.53261393 67.25440066 -80.3720471 65.09966802 -78.2109375 62.9453125 C-76.70809148 61.44111881 -75.20554243 59.93662837 -73.70327759 58.43185425 C-70.55070968 55.27633632 -67.39454997 52.12446679 -64.23583984 48.97509766 C-60.20090966 44.95152262 -56.17497192 40.91908893 -52.15172386 36.88383675 C-49.04798692 33.77284446 -45.93946684 30.66666658 -42.82951736 27.56188583 C-41.34419835 26.0778952 -39.86034757 24.59243343 -38.37803268 23.10544205 C-36.29639573 21.01868385 -34.20838038 18.93851485 -32.11865234 16.85986328 C-31.51470642 16.2518689 -30.9107605 15.64387451 -30.28851318 15.01745605 C-21.70518448 6.51754887 -12.61760198 -1.01754855 0 0 Z " transform="translate(573,13)" style="fill: #1B3355;"/><path d="M0 0 C3.3841653 0.7946623 4.89328094 2.75788102 6.9296875 5.453125 C9.00444571 9.5901838 9.18505189 13.05839184 9.19711304 17.65769958 C9.20164415 18.37235998 9.20617526 19.08702037 9.21084368 19.82333714 C9.2234797 22.21228768 9.22186786 24.60101002 9.22021484 26.98999023 C9.22620052 28.70511162 9.23300616 30.42023031 9.24057007 32.13534546 C9.25823136 36.79027688 9.26292545 41.44513477 9.26420164 46.10009646 C9.2656235 49.00864918 9.26989371 51.91718321 9.27519608 54.82573128 C9.29369538 64.97343254 9.30186664 75.12108126 9.30029297 85.26879883 C9.29909095 94.72726694 9.32020529 104.18550709 9.3517803 113.6439175 C9.377929 121.76634877 9.38866088 129.88870551 9.38738215 138.01117855 C9.38687219 142.86162874 9.39257457 147.71187622 9.41373825 152.56228447 C9.43309746 157.12354826 9.43326106 161.68441546 9.41870499 166.24569321 C9.41661304 167.91863013 9.42134076 169.59159173 9.4334259 171.26448631 C9.4488704 173.55064589 9.43957714 175.83543654 9.42416382 178.12156677 C9.42525335 179.4000521 9.42634289 180.67853743 9.42746544 181.99576473 C8.74783454 186.71620064 6.96626779 189.91879114 3.12678242 192.8114109 C-0.03139687 193.73383267 -2.93423129 193.71201987 -6.22383118 193.72055054 C-7.30573244 193.72734721 -7.30573244 193.72734721 -8.40949029 193.73428118 C-10.82685093 193.74694351 -13.24398681 193.74530365 -15.66137695 193.74365234 C-17.39443248 193.7496365 -19.12748533 193.75644178 -20.86053467 193.76400757 C-25.56930956 193.78168736 -30.27801177 193.78636381 -34.98681664 193.78763914 C-38.91815465 193.78953806 -42.84947571 193.79689562 -46.7808072 193.80398333 C-56.05724933 193.82027279 -65.33365263 193.82515182 -74.61010742 193.82373047 C-84.17702891 193.82252921 -93.74372474 193.84362665 -103.31058913 193.8752178 C-111.52558399 193.90137753 -119.74050513 193.91209787 -127.95554131 193.91081965 C-132.8613698 193.91030988 -137.76699782 193.91600117 -142.67278481 193.93717575 C-147.28820809 193.95655273 -151.90323959 193.95668632 -156.51867676 193.94214249 C-158.21054342 193.94005254 -159.90243456 193.94476637 -161.59425926 193.9568634 C-163.90857905 193.97233666 -166.22155142 193.96299544 -168.5358429 193.94760132 C-170.47625946 193.94923562 -170.47625946 193.94923562 -172.45587635 193.95090294 C-176.99057545 193.32638695 -179.30203261 192.02966527 -183.0703125 189.453125 C-185.2440729 186.19248441 -185.53141571 184.54962293 -184.89918137 180.71605873 C-181.06719672 170.25417788 -166.84747897 160.08985605 -159.07324219 152.32666016 C-157.46407769 150.71613858 -155.85512555 149.1054048 -154.24636841 147.49447632 C-149.90192611 143.14549794 -145.55435424 138.79966109 -141.20605373 134.45454073 C-136.64785059 129.89887882 -132.09209849 125.34076685 -127.53594971 120.78305054 C-119.40291054 112.64807967 -111.26736121 104.51562504 -103.1308085 96.38416867 C-95.75864206 89.01647677 -88.38911188 81.64615647 -81.02148438 74.27392578 C-72.44830994 65.6953974 -63.87345604 57.11855465 -55.2961266 48.54418027 C-50.76171709 44.01132915 -46.22798452 39.47780651 -41.69600677 34.94252396 C-37.43994352 30.68357342 -33.18144403 26.42707401 -28.92104721 22.17245865 C-27.3580876 20.6108216 -25.79597892 19.04833236 -24.23478317 17.48493195 C-22.10452486 15.35194268 -19.97121275 13.22205498 -17.83709717 11.09292603 C-16.91097881 10.16346159 -16.91097881 10.16346159 -15.966151 9.21522009 C-6.37089055 -0.33657535 -6.37089055 -0.33657535 0 0 Z " transform="translate(573.0703125,32.546875)" style="fill: #FDFDFD;"/></svg>