<svg id="svg" version="1.1" xmlns="http://www.w3.org/2000/svg" viewBox="0 0 709 714" style="display: block;"><path d="M0 0 C233.97 0 467.94 0 709 0 C709 235.62 709 471.24 709 714 C475.03 714 241.06 714 0 714 C0 478.38 0 242.76 0 0 Z " transform="translate(0,0)" style="fill: #FFFFFF;"/><path d="M0 0 C233.97 0 467.94 0 709 0 C709 235.62 709 471.24 709 714 C475.03 714 241.06 714 0 714 C0 478.38 0 242.76 0 0 Z M45 53 C45 256.28 45 459.56 45 669 C248.28 669 451.56 669 661 669 C661 465.72 661 262.44 661 53 C457.72 53 254.44 53 45 53 Z " transform="translate(0,0)" style="fill: #FFFFFF;"/><path d="M0 0 C217.14 0 434.28 0 658 0 C658 217.14 658 434.28 658 658 C440.86 658 223.72 658 0 658 C0 440.86 0 223.72 0 0 Z M21 21 C21 224.28 21 427.56 21 637 C224.28 637 427.56 637 637 637 C637 433.72 637 230.44 637 21 C433.72 21 230.44 21 21 21 Z " transform="translate(24,32)" style="fill: #1C3556;"/></svg>