<svg id="svg" version="1.1" xmlns="http://www.w3.org/2000/svg" viewBox="0 0 459 486" style="display: block;"><path d="M0 0 C151.47 0 302.94 0 459 0 C459 160.38 459 320.76 459 486 C307.53 486 156.06 486 0 486 C0 325.62 0 165.24 0 0 Z " transform="translate(0,0)" style="fill: #FEFEFE;"/><path d="M0 0 C7.01796424 5.69787481 13.32552998 12.23198794 19.63924789 18.68634415 C21.68311173 20.77311808 23.73706957 22.84984558 25.79028511 24.92741203 C29.59076914 28.77330951 33.38671756 32.62348515 37.16699219 36.48925781 C39.8196935 39.20118054 42.48430718 41.90087286 45.15732193 44.59276962 C46.16899183 45.61618676 47.17610915 46.64412512 48.17852402 47.67660904 C49.57082339 49.10970452 50.98009298 50.52625445 52.39013672 51.94189453 C53.18604218 52.75191925 53.98194763 53.56194397 54.80197144 54.39651489 C56.83095626 56.22630089 56.83095626 56.22630089 59.10745239 55.91110229 C62.3558668 54.34726432 64.71182362 51.69211017 67.25 49.1875 C100.61911816 17.35754781 146.10296448 -2.98520735 192.4765625 -3.203125 C193.92994522 -3.21167511 193.92994522 -3.21167511 195.41268921 -3.22039795 C197.4513848 -3.229782 199.4900951 -3.23635542 201.52880859 -3.24023438 C204.59630776 -3.2499095 207.66312699 -3.28098453 210.73046875 -3.3125 C222.25672012 -3.37344688 232.75244538 -2.51381157 244 0 C245.95566097 0.28950013 247.91371906 0.56390951 249.875 0.8125 C275.47879963 5.09130209 302.8183978 18.9678861 323 35 C323.91007812 35.71929687 324.82015625 36.43859375 325.7578125 37.1796875 C338.89264842 47.75341335 351.40302888 59.11177141 361.8984375 72.3515625 C363.20457896 73.99759207 364.53871871 75.62227508 365.9140625 77.2109375 C383.68885934 98.05792145 395.30175734 125.20445152 401.75 151.625 C402.04825684 152.84002197 402.04825684 152.84002197 402.35253906 154.07958984 C405.78520738 168.9083637 406.43955724 183.53670958 406.4375 198.6875 C406.43889984 199.67600952 406.44029968 200.66451904 406.44174194 201.6829834 C406.42244661 218.30381401 405.10299383 233.83505613 401 250 C400.78649902 250.86447754 400.57299805 251.72895508 400.35302734 252.61962891 C398.10603537 261.50714304 395.03386344 269.76287202 391 278 C390.36492135 279.40724929 389.73374866 280.81626472 389.10546875 282.2265625 C367.32423327 330.5799975 326.47102383 369.13640737 277.2734375 388.7890625 C265.6964631 393.07171413 254.10856077 396.37261466 242 398.8125 C240.46146362 399.1228418 240.46146362 399.1228418 238.8918457 399.43945312 C188.17747492 409.19079609 134.72160682 397.38779259 92 369 C87.87395829 366.15980599 83.91750023 363.12053027 80 360 C79.07960938 359.28328125 78.15921875 358.5665625 77.2109375 357.828125 C72.20577181 353.85219057 67.42074174 349.67672079 62.8125 345.25 C61.42998047 343.92742187 61.42998047 343.92742187 60.01953125 342.578125 C58 340 58 340 57.56640625 337.3515625 C58.25106267 333.63838083 60.02533707 332.19866391 63 330 C68.03316245 330.19358317 70.62674312 331.88237308 74.375 335.125 C75.33535156 335.94355469 76.29570313 336.76210938 77.28515625 337.60546875 C78.86213394 338.99638577 80.43481286 340.39226757 81.99609375 341.80078125 C112.785554 369.54440242 153.88021453 385.11253444 195 387 C196.69189453 387.08121094 196.69189453 387.08121094 198.41796875 387.1640625 C218.5497598 387.63876711 238.86526892 385.28118346 258 379 C259.72839644 378.53877061 261.45744827 378.07998114 263.1875 377.625 C269.41491665 375.72366181 275.23672964 372.78800743 281.07421875 369.93945312 C282.94110465 369.0287309 284.81385039 368.13107883 286.6875 367.234375 C333.14967678 344.61463104 366.14248261 303.75492899 382.93359375 255.41455078 C389.64581269 235.34629294 391.14190196 215.32783156 391.25 194.25 C391.26401855 192.35858276 391.26401855 192.35858276 391.27832031 190.42895508 C391.25697541 184.26972069 390.95037621 178.53603707 389.55371094 172.53393555 C388.91700081 169.62017259 388.52525159 166.70921604 388.125 163.75390625 C387.04514973 156.60617644 385.15466691 149.82918354 383 142.9375 C382.8050293 142.31092499 382.61005859 141.68434998 382.40917969 141.03878784 C377.06986717 124.02916356 369.26004293 108.55646138 359 94 C358.33943604 93.05761475 358.33943604 93.05761475 357.66552734 92.09619141 C335.52537674 60.82274737 306.40045596 38.41331265 271 24 C269.33710937 23.30777344 269.33710937 23.30777344 267.640625 22.6015625 C259.59981403 19.36562638 251.45833899 16.884133 243 15 C242.34402832 14.84756836 241.68805664 14.69513672 241.01220703 14.53808594 C215.27935155 8.83336385 185.51637173 10.11287859 160 16 C158.73542969 16.27328125 157.47085938 16.5465625 156.16796875 16.828125 C150.59249307 18.12059039 145.28648513 19.82031117 140 22 C139.1440625 22.33644531 138.288125 22.67289063 137.40625 23.01953125 C118.83894735 30.48139078 101.1933502 40.02172527 85.64550781 52.66455078 C84.49958168 53.59455315 83.3473773 54.51685041 82.19042969 55.43310547 C80.36531363 56.87907024 78.55595298 58.34270065 76.75 59.8125 C76.18845215 60.2564209 75.6269043 60.7003418 75.04833984 61.15771484 C72.81605424 63.01226121 71.1807277 64.59558419 69.98860168 67.26321411 C70.00340294 70.8170603 71.45696048 72.15222137 73.89266968 74.60586548 C74.48842804 75.17533905 75.0841864 75.74481262 75.69799805 76.33154297 C76.31565536 76.94525757 76.93331268 77.55897217 77.56968689 78.19128418 C79.62028134 80.22236457 81.69094798 82.23169954 83.76171875 84.2421875 C85.18997739 85.65163306 86.61670035 87.06263635 88.04194641 88.47512817 C91.80417025 92.19738478 95.58269118 95.90261422 99.3661499 99.60327148 C105.4078443 105.51581758 111.42985388 111.44823136 117.44190407 117.39090347 C119.54197759 119.46041554 121.65205265 121.51931137 123.76335144 123.57736206 C125.06092944 124.85443976 126.35817295 126.13185744 127.6550293 127.40966797 C128.2406665 127.97509308 128.82630371 128.54051819 129.4296875 129.12307739 C133.6914035 133.34926696 137.48347123 137.77388389 138.4609375 143.87890625 C138.14989762 153.59183333 136.15550439 159.23370714 129 166 C123.5769294 169.36230377 118.57939974 170.12150717 112.28274536 170.14044189 C111.14166321 170.14615204 110.00058105 170.15186218 108.82492065 170.15774536 C106.96083054 170.15942215 106.96083054 170.15942215 105.05908203 170.16113281 C103.74311035 170.16609772 102.42713867 170.17106262 101.07128906 170.17617798 C97.46792476 170.18926402 93.86457905 170.19573922 90.26119471 170.20018864 C88.00793745 170.20312484 85.75468522 170.20723062 83.50143051 170.21169281 C76.44546951 170.22535628 69.38952007 170.23502918 62.33354676 170.2388947 C54.1992409 170.24337607 46.06510303 170.26093239 37.93084824 170.2898953 C31.63514525 170.31153105 25.33948946 170.32159995 19.04374969 170.32293582 C15.28707718 170.32398227 11.53056284 170.32985626 7.7739296 170.34775543 C3.58241873 170.36733965 -0.60874137 170.36293963 -4.80029297 170.35644531 C-6.03897125 170.3656601 -7.27764954 170.37487488 -8.55386353 170.3843689 C-18.00960096 170.3384463 -24.08076916 168.91923084 -31 162 C-34.5631155 156.3035542 -36.122194 151.18533745 -36.13371277 144.47219849 C-36.13797775 143.34787415 -36.14224274 142.2235498 -36.14663696 141.06515503 C-36.14618378 139.83596344 -36.14573059 138.60677185 -36.14526367 137.34033203 C-36.14862228 136.04240723 -36.1519809 134.74448242 -36.15544128 133.40722656 C-36.16427073 129.84931808 -36.16661896 126.29143365 -36.16725707 122.73351526 C-36.16796818 120.50958538 -36.17010367 118.28566161 -36.17275429 116.06173325 C-36.18200427 108.30010337 -36.18608962 100.53849067 -36.18530273 92.77685547 C-36.18470206 85.54688233 -36.19525281 78.31698383 -36.2110464 71.08702958 C-36.22413089 64.87543803 -36.22948625 58.66387084 -36.22884732 52.45226562 C-36.2285926 48.7442747 -36.23142965 45.03635012 -36.24202538 41.32837296 C-36.25352358 37.19168257 -36.24895397 33.05515899 -36.24291992 28.91845703 C-36.24853943 27.6933139 -36.25415894 26.46817078 -36.25994873 25.2059021 C-36.25575424 24.07593811 -36.25155975 22.94597412 -36.24723816 21.7817688 C-36.24778293 20.80433275 -36.24832769 19.82689671 -36.24888897 18.81984138 C-35.59185761 11.3758626 -32.07397179 5.70579774 -26.625 0.75 C-18.20620402 -6.07798315 -8.8859022 -5.32642897 0 0 Z " transform="translate(46,70)" style="fill: #1B3455;"/><path d="M0 0 C2.87454796 1.97731113 2.87454796 1.97731113 5.66586304 4.73744202 C6.17697392 5.23352276 6.6880848 5.7296035 7.21468389 6.24071699 C8.82588441 7.81168211 10.41275894 9.40487357 12 11 C12.9953019 11.97517001 13.99225691 12.94865599 14.99095535 13.92034721 C18.13407912 16.98932075 21.2407624 20.09389073 24.34619141 23.20092773 C25.52677217 24.37850688 26.70755428 25.5558842 27.88851929 26.733078 C31.05552842 29.89135693 34.2193871 33.05277275 37.38235521 36.21509814 C39.36184257 38.1938701 41.34204215 40.17192647 43.32249069 42.1497364 C50.23915479 49.05719217 57.15327552 55.96718173 64.06494141 62.87963867 C70.49983837 69.31513917 76.9403249 75.74500856 83.38338339 82.172337 C88.93112434 87.70701708 94.47501813 93.2455307 100.01591241 98.78706509 C103.31889607 102.09030363 106.62341242 105.39197227 109.93181229 108.68978691 C113.03401311 111.78232828 116.13140546 114.87960506 119.22513199 117.98062325 C120.36101751 119.11755642 121.49861681 120.25278033 122.63803864 121.38616943 C124.19154736 122.93198281 125.73877959 124.48381861 127.28457642 126.03733826 C128.15206827 126.90428535 129.01956013 127.77123243 129.91333961 128.66445065 C132.74747348 131.83662929 134 133.7252268 134 138 C132.93115584 141.20653247 131.92417021 142.41272248 129.07509041 144.1815052 C124.42818114 146.01442344 119.29285223 145.5414966 114.37280273 145.50170898 C113.1022403 145.50711197 111.83167786 145.51251495 110.52261353 145.51808167 C107.04942844 145.53200576 103.57674042 145.52088911 100.1035831 145.50437045 C96.46375084 145.49048752 92.82394649 145.4969836 89.18409729 145.50050354 C83.07357807 145.50320277 76.9632556 145.48975377 70.8527832 145.46655273 C63.79309223 145.43993277 56.7337299 145.43820067 49.67400593 145.4499411 C42.87482727 145.4607275 36.07576723 145.45452585 29.27659798 145.44038582 C26.38634492 145.43463466 23.49617891 145.43470178 20.60592461 145.43945122 C16.56970255 145.44511825 12.53396965 145.42588518 8.49780273 145.40405273 C6.70148659 145.41080521 6.70148659 145.41080521 4.86888123 145.41769409 C3.76842468 145.40778946 2.66796814 145.39788483 1.53416443 145.38768005 C0.58052726 145.38525016 -0.37310991 145.38282026 -1.35564518 145.38031673 C-4.57619653 144.91713019 -6.41241903 143.95934393 -9 142 C-11.1747821 138.9051823 -11.25456851 136.22666448 -11.26742554 132.50343323 C-11.27595551 131.38607788 -11.28448547 130.26872253 -11.29327393 129.11750793 C-11.29236755 127.89609604 -11.29146118 126.67468414 -11.29052734 125.41625977 C-11.29724457 124.12648224 -11.30396179 122.83670471 -11.31088257 121.50784302 C-11.32853988 117.97271394 -11.33323778 114.4376817 -11.33451414 110.90251279 C-11.33593627 108.69332387 -11.34020698 106.48415954 -11.34550858 104.27497673 C-11.36400679 96.56635857 -11.37217931 88.85780955 -11.37060547 81.14916992 C-11.36940358 73.96566171 -11.39051551 66.78245372 -11.4220928 59.59902149 C-11.44824777 53.42904802 -11.45897312 47.25917266 -11.45769465 41.08914417 C-11.45718485 37.40513771 -11.46287766 33.72139818 -11.48405075 30.03744698 C-11.50701882 25.92913413 -11.49791713 21.82149401 -11.48583984 17.71313477 C-11.49707886 16.4937471 -11.50831787 15.27435944 -11.51989746 14.01802063 C-11.48496027 9.35287833 -11.45436022 5.939767 -9.40713501 1.70542908 C-6.05498149 -0.66953537 -4.04865224 -0.44018738 0 0 Z " transform="translate(36,81)" style="fill: #FDFDFD;"/></svg>